/* XPM */
static char *_fc62a5078d94290f1e636e8cd70a77bXVgfOq2wRDk6kGFL[] = {
/* columns rows colors chars-per-pixel */
"99 64 222 2 ",
"   c #593B12",
".  c #5E4117",
"X  c #66481A",
"o  c #714E1D",
"O  c #7A531F",
"+  c #64430D",
"@  c #654726",
"#  c #755323",
"$  c #7A5623",
"%  c #7E5A25",
"&  c #73562A",
"*  c #76592D",
"=  c #7D5B2A",
"-  c #745933",
";  c #7B5931",
":  c #7E6239",
">  c #7F6944",
",  c #835B25",
"<  c #825E2B",
"1  c #885E2C",
"2  c #835E32",
"3  c #866027",
"4  c #86622D",
"5  c #8B642D",
"6  c #8C682E",
"7  c #92662D",
"8  c #936A2D",
"9  c #9A6E2F",
"0  c #9F702C",
"q  c #856433",
"w  c #8B6632",
"e  c #8D6A34",
"r  c #84663A",
"t  c #8D6B3B",
"y  c #8A693C",
"u  c #926C35",
"i  c #936D3B",
"p  c #91673D",
"a  c #8E733C",
"s  c #967236",
"d  c #9B7236",
"f  c #95713D",
"g  c #9A743D",
"h  c #9D793D",
"j  c #92783B",
"k  c #A2763A",
"l  c #A27A3D",
"z  c #A67634",
"x  c #8C6E44",
"c  c #896D4C",
"v  c #856B48",
"b  c #936E41",
"n  c #8D724C",
"m  c #8F7243",
"M  c #957343",
"N  c #9A7542",
"B  c #9D7A44",
"V  c #94744B",
"C  c #9B764A",
"Z  c #9D7B4A",
"A  c #977A4E",
"S  c #8D7451",
"D  c #947B50",
"F  c #9B7D53",
"G  c #94795A",
"H  c #957751",
"J  c #A07741",
"K  c #A27C45",
"L  c #AA7E44",
"P  c #A37E4A",
"I  c #A97E4A",
"U  c #A47E52",
"Y  c #9C834E",
"T  c #9D825B",
"R  c #9C8154",
"E  c #A68145",
"W  c #AB8245",
"Q  c #A5814C",
"!  c #AB844C",
"~  c #AE894E",
"^  c #B58947",
"/  c #B1864D",
"(  c #B48B4D",
")  c #B98C4D",
"_  c #B18647",
"`  c #B7904F",
"'  c #A58352",
"]  c #AB8652",
"[  c #AD8954",
"{  c #A2855B",
"}  c #AC8659",
"|  c #A68B5E",
" . c #AD8B5A",
".. c #B38C54",
"X. c #B98E53",
"o. c #B38E5A",
"O. c #B68B56",
"+. c #AC915E",
"@. c #B69155",
"#. c #BB9255",
"$. c #B5915C",
"%. c #BA945C",
"&. c #BD995D",
"*. c #B7985F",
"=. c #A18563",
"-. c #A58A64",
";. c #AA8E63",
":. c #A98D6A",
">. c #A68C6C",
",. c #B18D61",
"<. c #AC9265",
"1. c #AD926B",
"2. c #A4906D",
"3. c #B59362",
"4. c #BB9662",
"5. c #BD9964",
"6. c #B2956C",
"7. c #BB9769",
"8. c #B49B6B",
"9. c #BD9B6A",
"0. c #A88F70",
"q. c #AC9474",
"w. c #B39573",
"e. c #B59D74",
"r. c #BB9D73",
"t. c #B89C7B",
"y. c #BEA06C",
"u. c #BCA27A",
"i. c #C29457",
"p. c #C2965B",
"a. c #C39A5D",
"s. c #CA9E5D",
"d. c #C89955",
"f. c #CDA05E",
"g. c #D2A35D",
"h. c #C09662",
"j. c #C39C64",
"k. c #C99E63",
"l. c #C29D6A",
"z. c #C89F69",
"x. c #C39D70",
"c. c #C5A165",
"v. c #CBA265",
"b. c #C5A26C",
"n. c #CAA46C",
"m. c #CEA96D",
"M. c #D2A464",
"N. c #D1A56A",
"B. c #D2AA6D",
"V. c #DAAB6B",
"C. c #D8A965",
"Z. c #DCB06B",
"A. c #C5A372",
"S. c #CAA672",
"D. c #CDA974",
"F. c #C4A77B",
"G. c #CBA779",
"H. c #CDAC7A",
"J. c #C3AD7E",
"K. c #D0A773",
"L. c #D2AC74",
"P. c #D9AE73",
"I. c #D2AE7A",
"U. c #D8AF79",
"Y. c #CFB07A",
"T. c #D4B175",
"R. c #DBB275",
"E. c #D5B27C",
"W. c #DAB47C",
"Q. c #DDB97E",
"!. c #E1B26D",
"~. c #E2B374",
"^. c #E2B67C",
"/. c #E2BA7C",
"(. c #E7BA78",
"). c #BB9D81",
"_. c #BCA283",
"`. c #C2A687",
"'. c #C3AA85",
"]. c #C4A889",
"[. c #D2AD80",
"{. c #D5B382",
"}. c #DAB582",
"|. c #DAB682",
" X c #DDBA84",
".X c #DAB689",
"XX c #DDBB89",
"oX c #D3B883",
"OX c #CEB691",
"+X c #D4BB96",
"@X c #DFBF90",
"#X c #D5B99A",
"$X c #CBB38F",
"%X c #E0B782",
"&X c #E2BC84",
"*X c #E8BF84",
"=X c #E2BE8A",
"-X c #E2BD90",
";X c #DEC084",
":X c #E5C086",
">X c #EAC284",
",X c #E5C18C",
"<X c #EBC48B",
"1X c #EDC98F",
"2X c #F0C68D",
"3X c #F1CA8D",
"4X c #F7D08F",
"5X c #E5C392",
"6X c #EAC592",
"7X c #EDC994",
"8X c #EBC899",
"9X c #F3CD94",
"0X c #F5CE9A",
"qX c #F0C793",
"wX c #FAD195",
"eX c #F3D19B",
"rX c #FBD39B",
"tX c #F6D092",
"yX c #EFCDA0",
"uX c #FBD8A2",
"iX c #EBD1AC",
"pX c #FFE6AC",
/* pixels */
"G.9.l.9. .t f o. .3.] } M 4.5.7.N o.[ o.] ..4.[ Q o.5.S.[ W [ d b.%.5.b.&.! m...o.j.B o.l.j.[ E.S.I.B D.*.;XD.5.I.=Xi P <XE.T.j.h.N |.=X5X' 3.oX,X}.n.E l.l.[ b.&.o.! B.j.n.%...k.n.,X,X|.4.9.l.5...k.",
"Z ' |.H.b.A.o.' }.l.< 5.E.l.7.o.5.[ Q l.E ] b.S.5.l.K.g g l.a...[ ..[ T.D.:XL.n.%.$.$.S.b.$.K.n.l.4.[ $.b.N B ! ] A.K 4.[ [ E @.I W I f Z ' <. .Q Q [ K l.$.[ I g ! a.v.c.L ..a.W %.Q.%.Q $.N Q l.%.k.",
"B e b.N w 5.3.4.|.I.w S. X|.o.$.S.9.[ W.n.j.E.|.S.D.0X4.W.&X&.&.5. X[ E.&XL.L.$.5.[ l.S. Xb.D.I.l.5.l.9.Y.B 5.S.] &XK.0XO.&XT.Q.L.Q.%.C ' 9.b.n.f [ D.5.L.S.I.4.%./.v.V./.( >X9XR.R.<XK l. XB n.R.P.P.",
"b.B 3.$. .$.Q Z  X X] [ |.E.o.] S.I.%.&Xm.[ E.W.I.E.,X%.&XQ.j.j.4.o.Q D.pX=XW.D.o.|.K. X|.K j.9X|.D.|.A.}.Z  Xl.u <XW.&XJ /.1X<XS.k.4.$.9.A.l.,XB ~ Q.&.L.=X Xh.#.>X/.R./.W P.&X/./.rXo.%.l.e &.U.N.v.",
"Z M A. . .4.e f 5.D.N f [ B B B [ g K c.@.E B.n.5.%.5.K c.T.n.n.%.4.4...D.&.$.W o.l.[ ! o.E ! l.%.B P $.5.Q 4.N u /.v.W 7 a.h.%...! I ] %.l.5.k.6 L j./ ! ..[ u W R.v.N.>X8 B.B.&.B.&.W %.L.g %.v.a.j.",
"q 9.o.$.$.Z G.XX|.A.A.,Xw K l.$.[ g n.c.j.c.v.n.g K l...%.E.j.n.[ P  XI.E.[ W n.S.S. XN $.=Xj.n.W.%.P A.b.5Xo.g :XB.s.s.^.N.J 4.%.Q.S.l.P d %...#.N.B.v.O.g b.h.P.V.W W N.d W n.P.Q.n.P.h.h.&.n.%.&.W.",
"M  .M 9.{.C 3.{.}.E.E.G.' Q  .] P [ ,Xb.c.m.n.:X..k.|.%...Q.m.|.l.o.|.n.,X[ D.E.b.=X,XI l. Xj.@.D.5.Q 4.7.=X9.g &X~.(.M.(./.! %.%.I.l.b.n...&XP.R.B.k.N.%.! rX1X&X3Xl p./.a.! :X/.rXrX9X=X$.4.D.$.$.,X",
"'  .Z C 3.} C  . .3.' 9.} Z 4.f 4.$.XX XI.B.L.E.k.4.4.[ ] %.[ I.b.P I.o.W.%.5.W.4.S.E...l.L.[ K ! %.Q G.M 3.h.g R.!.Z.g.v.N.] %.o.l.n.h.L.l L.B.~.s.C.M.( W 0X&X/.tX( &.<XR.g W.b.<X1X=Xn...%.4.$.' H.",
"' 9.'  .A.Z M 7. . .} =XZ o.{.5.3.Q 6X7X=XE. XW.K.o.o.j.] I.l.n.A.4.D.o.=Xb.j.I.b.4.l.! 5.l.B u s ..o.o.t 4.j.( ~.Z.!.M.v.v.L l.K.D.$...L.g a.v.~.~.C.N.N.L &XQ.W.T.E c.<X:XE E.=X=X1X XQ o.D.o.N  .5.",
"M  .x Z U 2 Z  . . . .A.# C 3.P Z t 3.5.b.l.n.b.P n.l.S.P S.o.D.4.P E.%.n.5.g b.N N Q f [ I.4...~ B 4 o.' K I L ~.f.g.C.s.i.J j.n.l.b.5.K.3 U.k.M.N.) i.X.d Q.W.T.j.3 j.=X7Xf 4.n.l.$.[ N [ l.b.] P ] ",
"Z i 3.} o.o.} A.4.C A.3.A.H.M P  .7.I.%.N K l.4.K.l.K 7.} o.f ] Q o.4.Q P [ 4.l.S.4.e D.[ E E B 5.$.5.|.K g %.W ^ ^ 0 d.v.i.%.K ..%.B u ! g k.j.L i.#.#.i.a.h.W %.b.K b.b.$.w b.N C 3.$.4.3.o.w ..h.%.",
"] N f i B i [ l.4.N 9.3.l.3.M  .' b.H.l.! 4.1X&X}.S.h.=X9.7.4.4.A.$.E.$.K j.[ b.o.b.l.A.$...$.u l.B 9.E.P ..P...^ s.z s./.U.<X! L. X X$.5.4.n.L.d P.>XN.k.R.B.n.:XrX=XE.,X3. .,XZ 3.{.A.E.l.} B h.2X*X",
"[ N 4.! o.o.! 4.K B {.$.4.} i 5.P  .$.4.K W Q.U.qXK.] I.P o.] N ] N l.] K 4.[ 5.I.D.$.$.S.S.l.Q 4.P %...e ! V.#.i.i._ a.R.L.W.%...~ S.5.Q N o.4.o.L.U.N.B././.&.P.T.W.n.1XS.o.6Xo.N o.G.n.n.4.! %.^.^.",
"E J n.%.$.j.o.$.e e =X[ E.H.N 3.' ' $.9.e E rX2X9Xj.! U.S.7.Z Z D.! b.B E W.5.I.8XA.f 4.o.l.%.e G.P B ..h E R.a.s.i.( ^.wXwXqXn.n.~ W.P Q o.$ 4.n.K.U.n.k.P.&XX.R.m.W.Q.=X=X] 6Xl.P ] $.I.K.S.h.O./.&X",
"..o.n.&.%.%.! ..5.o.n.4.Q ] B N e C ] [ u ( wXN.^.%.I K $.%.E B j.f K I ..l.] S.[ e } 4.} $.o.N o.Z P ~ 8 l v.9 k k 7 v.h.n.K.E n.5.l.# Z f r 9.B o.&.#.k.v.p.l ( ..a.B...%.[  XQ K j.o.o.I l...I c.n.",
"&.%.%.! &.$.u 5.5.b.I.l.5.n.E.D.N }.|.W.Q.n.k.W N.v.n.[ K b.5.b.o.n.%.&X&XK. X,X[ D.A.4.4.l.l.$.P K %.n.v.N.v._ ^.V.B.2XJ o.b.n.h.6 I.D.5.G.P $.b.7X! %.<XP.N.V.R.j.W #.#.@.k.g [ 4.4.l.[ ! %.n.j.I Q ",
"@.$. .' G.A.C D.l.l.L.5.] XXS.D.l.XXS. X=XQ.&Xc.R.&Xk.b.h.Q.&X<XL.W.j.<X:X&X<XwX! %.I i N K g ..] g 5.%.n.! @.@.<X:X&X9X..I.D.n.4.J L.j.&.<X..@.z.W.h.K.^.R./.^.>X/.( n.P.n.n.! o.E ! $.5.|.D.4.l.o.S.",
"9.Q 3.3.{.' t ' o.[ o.&.i %.l.$.Q XXI.I.W.:XQ.~ n.<X&X&.( L.R.v.K.R.W /.>X3X/.:Xg ..4...! I [ B B u I.Q.$.~ %.d 9X:XT.<Xk.S.rX%.l.g K.n.j.R.k ( &XW.! h.<XP.>XR.R.>XL i.B.k.N.O.! z.I.S.5.b.$.$.D.h.n.",
"o.@.7.w  .7.G.....K.p.Q.L.D.o.K K b.l.K @.K.v.#.B.l ( ..#.k.#.u B.j.#.T.#.W m.j.! g ] [ o.5.P e B ] W.n.$.! %...n.@...[ S.o.] 7.j.i 5.J L &.l j.k.n.g o.k.&.#.#.V.s.W ( k W ! 5 l %.k...E ] ! ~ a.i.a.",
"Z e Z C A.9.l.I.b.3X/.3X<X9XD.P E.c.T.K n.3XB.R.>X&.R.B.&X&XN.! P.c.B.v.&.s Q.D.W.K l.S.4.b.n.[ b.5.o.|.b.%.5.W.j.h n.$.%.j.< h.S.S.l...P.n.R.n.u %.n.I.n.R.W #.R.R././.( #.#.p.l a.:XW.L.:X1Xh.f.M.g.",
"} Z $.Z 3.S.c.n.B.2X*XP.K.&X4.! L.j.R.W p.>Xn./.>X( <XtXR.&.a...&XB.L.n.( h T.%.I.4.[ l.b.5.D.] S.I.4.D.|.$.%.%.D.! 4.I.%.o.i %.< B D.4.W.&.&.L.g b.<XK.k.P...v.3XZ.B.4Xv.a.v.N.W a.3X&XP.B.<XR.C.V.C.",
"P N b.Z ] b.j...a.R.*Xa.#.U.%.I Q.R.v.#.l ( W ` W ( /./.v.#.! 6 n.@.&.%.E E T.[ %.B o.$.D.] b.N o.8XD.D.5...5.b.I.B I o.j.n.e h.o.M Q e l.I.5.c.w h.n.L.j.j.#.v.>X/./.>X( v.B.v.L ( n.R.:XQ./.n.a.M.!.",
"I.3.b.] ] K h l k.a.a.s.R.%.] <X>Xv.~ v.a.a.&.W k.N.B.a.g k.<Xn.L.E.j.E L.m.E.n.u 5.4.I.[ ..u l.S.[ N o.D.n.&Xn.L.n.K 4.K.K.S.7.e 4.o.9.o.$.&XB...n.I v.X.( i.p.N.( k #.#.#.7 k.l a.v.&.W &.j.( X...N.",
"l.4.} i P B h ( i.s.N.k.i.L z.<X3Xc.#.N.P.v.V.#.k.V.&.a.E K.rX<X&X9XK.! L.W.W.W.P D.5.%.4.%.W %.$.5.$.l.6X,X&X XL.W...l.S.z.j.4.P b.l.S.f ..<XQ.*XQ.W v.P.N./.B.v.a.g j.R.n./ U.R.n.#.j.l j.&X&XW.&.b.",
"4.P A.] f K E W N.s.V.N.X./ L.=X9XQ.W R.R.j.R.a.n.P.W.U...W.uX1X7X9XQ.W h.n.n.$.4 6XS.l.I.j.J n.%.o.o.$.1XQ.1Xm.%.&X%.k.k.b.%.h.K b.%.! ..! W./ #.B.^ ) V.a.P.v.v.&.L P.h.X.p.b.h.o.X.O.g k.N.n.I.4.4.",
"I.P I.B Q $.( l #.) ) L W O.K.S.D.j.! h.o.b.j.%.h.! %.! K S.=XK.U.&X&Xu K.L.I.i f 5.o.$.n.j.5 k.@.%.u ! rXE.W.%.o.&XE k.L.( ..k., %.K ! 6 W <XB.N.N.9 a.X.M.P.k.B.%.7 L.z.%.I E.4.j.h.o.O.k.N.K.K.I. X",
"4.S.l.B D.W.k.v.W k.( L b.b.E.l.] o.S.d %.S...l.[ u %.k.o.I e ! [ L ! W.E &.%.4.=XB g K.O.O.X.v.( m...%.@.E %.g ! L.%.%.@.%.E %.%.! $.o.[ %.L j.a.a.#.) ( ) k.k.l ! &.o.! N l.j.4.o.M ! ! U.W.j.o.b.n.",
"A.A.o.i b.b.n.E ..R.X.! E.n.D.l.P l.I.K K.&Xj.b.! I j.L.b.o.w n.K.K.U.=X&.n.K.D.9Xl.S.%X%X<X^.wXL.W.T.T.g %.&.g I.j.$.! l.I.K D.W.o...|.I.I.J N.k.v.B.#.` R.P.&XL.R.D.1XI [ E.K.n.l.K.K n.K.%XI ! z.h.",
"o.P o.N  .] 5...I W ....b.%.[ $.f } o.[ l.I.S...&.h.&.W E k.! $.K.%.o.4...o.[ f o.B %.4.o.L #.N.o.l 8 W K h.W K [ w K P Q N Q o.o.g $.o.i K N k.( W #...l n.j.j.&.n.k.%.Q o.b.[ o.7.l.f I.|.b.I %.U.U.",
"[ ] I.,X$.Z b.l.$.g |.Q.b.l.' 3.7.4. Xb.4. Xh.k.L.K.Q.j.j.:X&XK.S.%.&XE.|. X6XP l.3.I 4.k., l N.n.v...L.<X&XW.1X6 5.K.S.P Q l.S.n.$.l.e } h.I.b.g ! a.@.#.E I ..#.j.a.! u $.Q Q o.N I [ l.o.N I j.n.j.",
"K 5.I.E.H.' l.4.Q i S.S.4.n.$.H.{.E.5XA.B |.E n.L.n.Q.m.v.Q.&X:XK.l.,X=XeX5X,XB b.b.$.%.K.W g R.B.W.&.&XqX X&X7XI D.|.=XP 5.XXXXXXE.5Xt 4.5Xl.E.4.E.W.L.,XE.$.=X/.R.v.n.i E.XXXX<X..] uX X1Xj...K.j.o.",
"N ] 4. .N ' 3.P i B B Q $.5.C ' } } Q N w o.n.$.j.n.b.~ ..:XP.&XS.! E.=X|.|.XXt 9.A.o.l.b.J l B.&.n.J K.=X=XK.,Xi S.|.|.l.$.,X|.,XE.E.$ 9.{.I.b.[ b.&XI.W.=XP I.Q.R.v.:Xg l.7X6X|.5.S.=X|.=X=X[ ,XK.I.",
"N < B Q $.S.Z P D.4.5.b.} ' I.l.E.b.< $.l.D.I.4.4 o.4.o...[ [ w w ! o.P $.[ t 4. .b.4.Q [ j.....Q ' 9.b.b.o.Z 9.Z b 3.I.[ Q D.o.] Z 5.] l.5.$.] ] o.l.l.4.o.$ G.b.S.l.[ i l.E.|.b.Q ..E.|.|.K.%.&XW.&X",
"b.N D.S.l.S.o.B S.E.S.I.g o.<XI.E.E.4 4.E.I.D.|.<  XE.l.3.G.l.i 4.<X X8X5XS.M XXG.H.D.n.4.U.U.l.B ' 0X}.XX9.3.7. .M x. XU.n.h.S.S.' S.0Xb.] 4.%.S.I.n.S.i = G.S.P A.[ o.S.S.P 9.D.o.%.] [ 4.%.j...K ] ",
"7.M 9.H.4.{.b.$.E.E.b.=Xw 5.8XK.I.D.4 $. XE.E.I.w I.6Xb.4.4.G.i l.K.I.|.E.A.q 7.7.4.S.P i j.o.j.#  .,XH.|.A.3.b.l.[.o.5X X|.D.|.I.' 9.|.P ] b.j.D.E.}.I.P Z 5XH.4.XX|.S.9.}.' }.XXXX,X[ ..,Xl.K.A.Z t ",
"H.Z ,.XX,.A.l.K =Xb.l.=Xe %. Xn.b.|.e i l.[ o.4.$ o.S.} Z }  .% P l.o.Q [ o.N } M M l.] Q %.K N = M ' [ [ f A.A.o.9.e C P Z o.[ o.P 9.i M 7.4.[ B f ] M w = H.3.i ] ' P [ Z = ' ' 4.b.Q i ,XI.G.[.9.r ",
"3.r & t b = i i [ e i g u 5.j.%.] $.4 [ 3. .5.$.9.9.3.e ' 5.3.l.I.l.I.4.M |.{.{.4.e 8XD.l.W.b.I.=Xt ' H.A.}.B b.x.A.3.7. .t A.l.S.S.XX< $.|.n.K.D.l.} t l.7.3.7.7.Z 5XH.|.9.Q Z Q S.$.[ $ B l.} ; { * ",
"7.q M 9.,.t [ } e u N $ l.7XK.D.E.}.f  X|.E.G.XXXX|.,Xt 3.;X5XXXl.l.S.A.4.G.G.l. .C =XS.b.D.D.5.l.t 3.5.H.H.[ E.E.S.7.H.A.' [.3.l.G.I.N S. XI.I.|.6X9.Z @XA.7.A.l.3.5X}.{.b.9.' C uXH.H.9.] 6XG.q F.' ",
".XZ 7.}.3.q M ] < f [ , b.=Xb.D.b.D.C eXE.E.H.|.5XH.XX} ' XX5X|.G.5. Xl.3.A.H.XX .Q S.o.4.n.5.] l.t o.E.H.b.B S.b.5.}.9.r.A A.7.S.S.4.] 4.D.|.E.I.{.S.o @XA.3.XXA.q } o.' ' N t e H.H.E.A. .XXb.] |.l.",
"}.= H.}.} $ M M i < i $ 7.E.b.l.S. XZ {.A.I.G.l.9.Q 9.w C 3.3.C M Q P i Z $.Z $.' Z } 4.K N b.5.Z ' N B $.4.f Q Z  .t '  .t  .M } K N K f i N K N o. .M ' C m Z M # q & 7. .$.3.9.t G.H.= # ' i e ..o.",
"9.= Q $.Q P < K [ ] P C } U i N M ' N C Q Z f = 3.Q 9.H.3.H.H.= A.E.S.b.|.$.Q 6X}.E.=X|.K.i ,Xl.3.=Xb.Q D.I.b.n.H.9.q 9.F.A.A.' B n.4.n.5.4.5.$.B XX{.}.q q C q t b t w |.H.H.H.}.Z Z $.= Z {.9.l.%.o.",
"B E.b.b.n.I.i l.XXI.{.G.H.I.A.Z |.A.H.b.E.,XY N 7XE.G.9.G.5XXX' }.S.3.E.|.] 3.eXS.D.E.|.I.i I.S.o.S.D.] D.I.c.E.5.7.C A.A.H.H.C ] E.b.%.S.4.S.$.P 6X X,X3.x 7. .} x.A.w XX{.A.H.}.o.$.E.t 7.F.7.S.b.b.",
"5.XX5.m.S.l.B S.A.A.A.h..X{.A.b H.H.S.$.S.H.t  .|.|.G.$.}.5X|.C S.I.n.S.n.[ 4. XD. XE.=X|.! I.I.h. Xo.B W.c.b.E.S.' M S.H.A.I. .o.,Xl.D.&Xn.K.S.N =XXX7X9.= o.|.}.{.I.w {. X X X=X] t 5XN H.9.A.b.b.S.",
"c. Xb.E.E.b.o.D.I.S.S.I.H.[.H.q b.9.n.D.E.|. .b.|.XXI.S.|.XX6XQ 5.D.I.S.I.$.! ,Xb.D.E.,X..E  Xb.S.=Xg B =Xn.E.|.I.4.} G.XXE.{.[ N 6X5.4.l.S.n.i $ b.S.$.Q Z Q M C  .} e o.$.P N i o N H.C o.{.{.XX|.XX",
"b.,XT.W.l.$.E %.5.b.b.I.S.S.A.< ] $.9.b.4.$.4 @.n.l.l.5.4.$.4.e $.9...5.n.W 6 l.! ..B E g K 5.! ..K f g ~ ....%.] B i i N w e % w ..4.o...O o.o...%.o.4.S.S.4.M i {.D.l.$.5.w ] I.9.5.o.9.' o q t q C ",
"Q Q e N $.! I %.] [ w N ] N [ Z ..K 4 $.] $.o...[ Q Q 4 N $.o.$.l.S.B n.W.E.D.E.K.E.E ..W.&XQ.Q.E.4.D.n.5.D.$.I.S.}.A.N Q o.4.$.6 4 j.4.b.1 D.n.h.b.D.S.E.K. X] N 9.A.I.%.|.i n.=Xl.S.D.9.S.+ M H.N $.",
"B Q 4 e =XI.n.K.E.b.Q 4.D.[ E.b.m.W.u I.E.D.W.E.D.E.E.] S.E.b.I.E.n.u E.W.W.Q.W.m.j.! &.n.n.Q.W.E.j.D.m.I.I.4. X=XG.l.5.E.I.L. X%.f S.%.&.w K.W.k.L.*XQ.&XW.&X[ i N o.I.S.7XJ h.E.E.=XI.|.=X& Q 8XB 5.",
"..I e $.b.l.K.n.D.E.B w n.%.7X,X=X Xg I.I.I.I.D.I.D.S.$.I.$.5.D.S.b.f E.D.E.n.L.L.I...$.W.K.S.D.W...L.E.W.W.l.|.}.l.4.4.E.W.E.=XW.f D.l.D.u o.o.h...%...W o...P f ] P i P 4.u [ o.$.Q } I.I.% $.l.6 W.",
"%.h.K 4.}.l.l.I.S.=XB N 7.o.P.v.D.W.] n.S.I.D.E.E.b.E.[ D.n.b.n.n.%., I. XI.b.I.D.b.B t G.G.A.S.D.Q n.T.m.n... Xj.l.o.} I.H.$.o.Q Z P Q 5.B [ $.%...! < ! %.I.5.b.E.9.V Z I. . .9.} b M W.&.[ O.W u $.",
"u K u o.6X Xb.l.E.4.[ E..., *X>X:X X%.I.E.Q.I.W.XXI.XXB |.o.9.S.l.[ J [ g $...o.K f B $.Z ' M 3.$.$.l.K l.L.%.4 ! o.9.S.4.o 5.A. .H.t ' W.n.o.S.E.D.4.< b. XI.c.T.b.A. . .9.H.7.H.A.U e >Xa._ / ] k.J ",
"u g 6 g %.E i K w i < g g , #./ B [ Q ..Q B e i f Q P B 9.b.N n.W.W.T.~ K 1XE.L...Q n. XE.H.M E.b.|.D.B E.I.%.6 n. XE.I.5Xq }.G.3.G.[ f ,Xn.S.o.b.I.7.O %.L.L.T.n.c.S.@. .E.b.l.n.n.z.g R.^ ) #./ k.N ",
"P l.b.( @.5.5.9.< ' Q 4.b.j.j.L K XXl.b.E.[ f =XI. .] 1XD.E. .n.W.Q.5.&.K uXI.Q.n.[ D.E.,XXXf |.E.S.D.B &XW.n.K E.5.S.=XH.C $.}.l.l.] < 1XE.G.4.j.K.} , %.n.R.m.R.T.b.! E :X%.D.c.Q.I./ v.V.M.k.b.o.! ",
"[ ..j.&.&.%.4.l.2 9...%...j.n.I W 9XI.E.|.4.Q E. Xb.Q =XE.H.3.C ,XW.:X&.E <XW.m.! c. XI.7X,X4 ,X6X=XE.% E.W.|.n. XXXS.5X{.=  .E.D.I.] < n.n.G.S.$.] b i %.a.P.v.&.o.o.! [ 9.} A.c.m.K.J N.a.B.N.n.o...",
"N [ m.v.c.&.b.l.w S.Q n.R.n.L.[ ! rXI.D.|.b.5. X,XQ N ,XE.5X9.M  XQ. X@.6 Q.@.&...E D.D.n.$.w S.l.[ B e 4...E ] K 4.o.} 4.w Z o...j.P % Q 4 q C Z w Z l.n.a.#.j.g K l.$.S.o.2 7.5.&.o.I , , i J u u w ",
"u J %.a.j.E ! [ i l.P [ h.v.W.[ l.E.E. XE.o.$.b.XXt M A. .' Z  .b.[ E f d [ e I ! ..4.K g 5.S.I.&X$ B E.5.D.D.l.S.] i {.5.S.9.w S.K.[ [ XX .  { A. .' A.I.N.j.%X] l.6XA.E.A.; H.E.m.U.[.p U |.4.[ ] N ",
"E ! h u @.%.5.o.[ P 4 u O.J J ..$.S.l.P [ I ] Q Z ' 3.A.# q XX}.5.! K i ] [ [ u j.5.$.I.u ..n.E.S.<  XE.l.&X=XS. Xo.} 5XS.S.I.f E.n.I. .Y.H.. V Z 3.V r.{.I.n.|.C ,.-XI.|.A.F .XXXb.{.8X} C .XE.E.G.$.",
"l.%...! :XT.b.m.j.5.} 4.<X%.I L.l.S.I.$.|.l.4.l.Q 4.A.3.' q .XS.o.$.o.f $.$.o.%  X5.e $.P l.6XE.4.N E.L.I.$.4.I. X] P XX XS.b.$ l.b.A.} y.{   @ n <.- w.9.E.l.b. .V [.E.H. .x A.T.c.H.5X .t 5X|.A.H.}.",
"c.@.[ I E.7Xm.T.T.b.l.7..Xl.&.W.n.D.E.4.4.b.3.l.w 5.l.XX} o }.o.9.S.I g h.h.M % 9.o.[ ] i [ l.b.4.N [ N ! K l.%.i N 4.} i [ $.[ w 3.H.3.' R n v 1.1.T c <. .t {  .M y t ' m * V a j q t x & * q A Z C ",
"%.B ] B ] %.@.h ! $.U G.l.5.%.&.D.S.b.N o.D.3.P w D.4.l.N q  X} 9.o.< B N i i ' l.A.o.P K }.l.S.%.U.o.4 E.l.l.l.w Q 6XI.K 5.j.W.q N 8X{.+.8.:.S u.T G c V r.: { ;.T R @ 8.F - : Y Y A x -.e.& & R Z m ",
"n.l.f |.|.$.~ m.~ [ l.7.A.4 %.%.w 3.] P 4.Q 3.] w $.o.Q P } o.4.P $.l.S.K [ o.{.h.l.o.o.K S.l.I.K.n.4.I =XD.D.I.P P =X=X[ 5.m.I.o.t 8X}.3.<.1.: 1.1.q.0.-.1.: <.'.6.-.H u.e.n =.<.<.=.1.1.-.x T <.;.{ ",
",X|.B ,X6X..%.D.b.! S.A.|.] s s + Q 9.' Z o. .] ] 5. XI.=X X$.I.4.n.I.4.Q l.N =XS.h.n.[ w ..n.j.j.I.S.[ ,XI.D.=X$.o. X|.] 5.m.$.[ = yX}.5.H.1.v { F.#X_.$X-.v ].OXOX_.c iXt.`.`.+XOX_.).].u.c =.6.|  .",
"Q ] $.$.$.e %.! K i [ [ n.! E [ Q 3.A.,X3.N }.H.E.5.5.4.4.%.o.l.I [ b.B l.w N I.o.7.h.N 1 K [ ..%.&.I J L.I.5.] i N 5.[ K @.o.! e q ' 3.C N V - r -.#X`._.S - q.e.'.q.S +Xe.t._.].q.G w.r.n @ c T y A ",
"Z S.Q.T.B.! ..D.S.l.%.c.W.@.5.$.G.' 9.H.l. .7Xb.|.N [ I.l.o.N N ! &.g l.n.b.I.}.] $.N ..K.z.I g o.g g W E K u ..E.D.I.l.n.j.%.b.,X|.} [ B f Z 6.: n `.>.=.> 2.+XJ.F G q.;.;.1.t.1.w.@ -.;.M { H T * F ",
"U S.T.m.R.~ E 4.A.$.j.m.W...[ [ 3.[ E.Y.$.3.}.4.E.f D.|.S.&X! J m.h.~ W.D.I.D. X[ b.[ 4.%XK.^.u ] g I J h ..4 .. XI.S.D.|.%.a.m.I.6X' } $.u C 9.r D :.=.>.n q.e.6.<.S T 6.| 6.T :.1.c r.+.+.| e.;.& | "
};
