/* XPM */
static char *result[] = {
/* columns rows colors chars-per-pixel */
"64 42 20 1 ",
"  c #0D0D0D",
". c #161616",
"X c #1B1B1B",
"o c #242424",
"O c #2C2C2C",
"+ c #333333",
"@ c #3B3B3B",
"# c #434343",
"$ c #4B4B4B",
"% c #535353",
"& c #5C5C5C",
"* c #636363",
"= c #6C6C6B",
"- c #737373",
"; c #7B7B7B",
": c #848484",
"> c #8C8C8C",
", c #949494",
"< c #A2A2A2",
"1 c gray69",
/* pixels */
"O#++@===O*+$@%,@@##&;+#Oo=+=&=##$$#$#@@*&##OO++@@#&*=$@*=$@#@+@O",
"O#@#@%*#+@@$@@*#@#%&$&$#O+#&*@@@&%@%+$*;**&#++#&+O#;-@#$-$@&&+@O",
"++OOoO@oO+&@O@%%+#%*$@##;%OO%@#%$*=#@*=-;;;&@%O@&$=&@O$=%&&@@&++",
"@+%o+%%@$&#$@$$*=%&$#@#$%-*;%%=-%;>%%=;=:=*-@@+O@#&###-#%%-%$*+O",
"#$@+#+@$@O$#O@@%&*%$%&*:$=---=;;*>>>@&**==&;=++o+##-$&&@$=**%%$$",
"O#@+@$@#@@##+$##%$#%#@**;>=&&&:--:-:X@$*&-##*%%#+$@:>-*%+*==#%%$",
"++@@#=##+@+$#*%&$%$$&#$=;:----%*=*--%@#%**&&#$$$oo%*;%==+O$##@@$",
"O++O$&@++#X$#%##+#=&&@@%;-&**=;*;;%*##@$=#*=$%#%Oo%&>--%&&+@@X+-",
"$+@+.$O%*$#+++#$$@#&%o=o&==*=*=-=&@#&$+$&*-#@%##@$O*=&%%%&+#-$@+",
"O&$#;$##=@$%@$*;O&O+@@=;&=;=1::-@$@&&*%#&@$$:-@%@+o@&@&$$*#=;@##",
"%$+@#@%&#+%@$$%=%@$#@%-#*&$-,*$&%@&$&#+++&&;*&#$#Oo@#$+@-@@#%&#%",
"+o@=#@o@%O+@%+$&;&O#%@@%*#$==#*O@&+O##O@@#&%$=--%*:$&$@#%@&%@OO@",
"+O#%@@#@$@@%+$&&=&+$&%%&;--&*O%%%#@%&#@+&$O+@$%@@-%=*-%$%%+##&&$",
"#-$@Xo#+##&$$+@&*-$$#&*&*$*+#+$#-$Oo*%@#$$%#$+$%>=#=#*O@&+#$&=@%",
"O%&#oo#o#+##@#%++@$%$@%$##&@%+$&&#%O#@$&#&#*&+#%%=-;*+@#=;$%$%*O",
"@$O$#o%#O+@X O+%@%$O&%+$o@O##@&#@@&%@##&&&#&-O%+$$-@%$@&&#%@$@#+",
"-%+&+@+#&$#.@+##@#=#O%@*@#O+$O#$%+$@O#@=#$%&%o%=oX&+*@+#*%%%@&#@",
"-@o@+@$$%&@$$@+$#@&OO#@O+@@$@#@+@+##oo@$$.#*@@@-%&$;*O+*=&#$@&O@",
"+++#@+#*##$&*$+$$+&+O+#++@+@#=%O..@++%@*%$o#-#+%-%&%$%$%*-@&*O@$",
"O++OO+++%&+@@$#&$@&@$@O+&#+#o*%#+$$$#+##$*@$$#@$#&&#$%%Oo*-%#@=O",
"+++OoOOX%@O&+%@@O#*Oo+#@++O#$&@##@#&X+@##@+@%@O&*%#%:&$%%=$$#%X+",
"++O@+O$=#@O$OOoO++#+O++#OO##%###@##O@+##@@#%#+@%*&+@###<%&&&-;X+",
"+@o+@O=*##O#:$@%++@.$#+$@o+@#%%$@#+o$*&%X+#;##o#@%#@$@#+*@==;OXo",
"+O#OO$$%$@O@#+%+###@@#+#O+@%#%$%#$@@&$$@+@&&&#@O+@@$$$$%#%:=%@o@",
"@O+@O$*$OO@+%o#+#$&+;$&#++$&*&#&@$$$-@#*+$@#*@%X#$@+#oX&+@>$+oX#",
"%$+oO#++oOO&O+&@=*&#%%%$#+o@$O%%#$#$%%%O$#$*%$@#$*%$&+o+@+&%+O@+",
"%O+@&$=o.%&&;%=%#$--$&o%++++-$o##+##$#$+&@%$%#$%%$@*Oo++@$O#OO%@",
"@@@@+%$&$#&-=-%==-=%&=@o@+&#%@##$#$@$@%%%$@#$$*@%@@##o$$+#@%$@+$",
"$%=%&=*%o&*#$--@$,*&%%*$-=$@&+#o@#&@*+#$@#o@+O+#*%O@O$-=*$;$&;O+",
"%#+&=&%-.###%==%=-$%##%##&#$&$$$++#+@%O#%OO+@O+$$@$#;#%%$#&&**#X",
"$$-+%####@O$=%%*&$%#@=O$%&+%#+&+++#+@O+OoX+O@OO+#@*#$%&=&%&@%$&.",
"$$&&&#$#&%&*&##=--=oXo#+#%%+@++oXooO+O@$O+@@$#O+++$#o#*-%$@%&&$X",
"%@#$@@%$-:$*=&:@;=@==: +$++o$@O@OXoOOX#@+@@+$#@+%+;@#.#;-*@@$$=+",
"oO$O@@+@***%*#&--#%#%oOO@+@$O@OooO++@oO$#+@#$$#@O#@*@+@%#@@%%.$O",
"O+$+*;&##*==,&@+&O@$@@+$#*+O+o+X..OOOoO+O@$$@@@@#O#O#*=#&#$*@@*-",
"+$#%&%==&&#*;-%#++oOO###ooO+&@@@++o++OO#O@##@++$@$*&*$&#$=%*&$$$",
"++#$%%&*=#$=-=*&Xo o%%%+@#+$%#$%$+O#+@+%+O@.O=*@X@=%$#%O=*$=&*$+",
"#@$+$*==#@%=&*&$OX++@#O#@#+@@+$%$%#&#+#@@+OXO##$Oo+$@=-+;&;=**&=",
"OOO#@#*++#=-$$###OO@$*+##$@O+%+@$%&$*&=#@@X++&+@$$+O&&@@@#*$%%==",
"OO+@O@%&@%&=&$%@&O@&$&=*&%%$@-,$%=$$$$%&#&o+$$%+%$+$$@@$=%=&-$%&",
"@o++oO@@$@O@%$@%$O+%#@@=@@#@#=*=+@%#%%@$$=O*@-**%$*@$@&+O$&$$$@@",
"XO+OO+$$$+O@=#$;##XX@%%&++@XX@oOOo@+@%%&#$+###*$%%&@=#&oO$@$*###"
};
