/* XPM */
static char *_42f055e97d64ce58741e75ca96d59caan1pO2ohWMNXH4Eh[] = {
/* columns rows colors chars-per-pixel */
"64 64 152 2 ",
"   c #010713",
".  c #050914",
"X  c #0C0D15",
"o  c #37221B",
"O  c #3D251D",
"+  c #0F0523",
"@  c #110524",
"#  c #190727",
"$  c #160428",
"%  c #1B042C",
"&  c #1D0828",
"*  c #1F0430",
"=  c #21052E",
"-  c #240334",
";  c #290435",
":  c #2C023B",
">  c #300736",
",  c #31033E",
"<  c #39083B",
"1  c #43281D",
"2  c #542F21",
"3  c #553120",
"4  c #5B3323",
"5  c #613524",
"6  c #693727",
"7  c #6D3A27",
"8  c #723D27",
"9  c #733D29",
"0  c #783F29",
"q  c #340142",
"w  c #3A0245",
"e  c #3D004A",
"r  c #400346",
"t  c #430840",
"y  c #4D0D46",
"u  c #42004E",
"i  c #4B024D",
"p  c #53054D",
"a  c #5E0C4F",
"s  c #460050",
"d  c #4C0053",
"f  c #530155",
"g  c #5B0355",
"h  c #5D0955",
"j  c #560059",
"k  c #5C005B",
"l  c #62114C",
"z  c #6D144E",
"x  c #66184D",
"c  c #7B1C4F",
"v  c #670F51",
"b  c #62015E",
"n  c #6B045E",
"m  c #700F55",
"M  c #760E5B",
"N  c #6C1052",
"B  c #701252",
"V  c #7C1D51",
"C  c #7A1259",
"Z  c #6E2540",
"A  c #702541",
"S  c #782447",
"D  c #7A204B",
"F  c #650061",
"G  c #6C0064",
"H  c #710167",
"J  c #770A62",
"K  c #750069",
"L  c #7B006D",
"P  c #963F3D",
"I  c #87452D",
"U  c #8A462E",
"Y  c #8E492E",
"T  c #90492F",
"R  c #924733",
"E  c #954833",
"W  c #984935",
"Q  c #97423C",
"!  c #A8483F",
"~  c #8A1D59",
"^  c #81224E",
"/  c #8A284E",
"(  c #9B3B45",
")  c #842151",
"_  c #8E2553",
"`  c #982657",
"'  c #922159",
"]  c #A73B4D",
"[  c #A32A5B",
"{  c #B43E51",
"}  c #82036E",
"|  c #86096B",
" . c #8A0B6C",
".. c #8B1363",
"X. c #840072",
"o. c #8C0076",
"O. c #920376",
"+. c #950C71",
"@. c #9D0B76",
"#. c #94007A",
"$. c #9B057A",
"%. c #AF1E6F",
"&. c #A20E76",
"*. c #A0077A",
"=. c #A3097A",
"-. c #AB0E7B",
";. c #AF117B",
":. c #B61B76",
">. c #B1127B",
",. c #B4137B",
"<. c #B3177B",
"1. c #B6147B",
"2. c #B9177B",
"3. c #B5187B",
"4. c #BC1B79",
"5. c #BD197B",
"6. c #A72660",
"7. c #C01B7B",
"8. c #C21C7B",
"9. c #C51E7B",
"0. c #C31C7C",
"q. c #C9207B",
"w. c #CC247A",
"e. c #CA217C",
"r. c #CD237C",
"t. c #CF247C",
"y. c #D3267C",
"u. c #D4277C",
"i. c #D2287A",
"p. c #D72A7B",
"a. c #D7287C",
"s. c #D82A7B",
"d. c #D8297C",
"f. c #DC2B7C",
"g. c #E02E7C",
"h. c #E3307C",
"j. c #E6327C",
"k. c #E9337C",
"l. c #EB347C",
"z. c #EE377D",
"x. c #F1387D",
"c. c #F43A7D",
"v. c #F73C7D",
"b. c #F93D7D",
"n. c #FB3E7D",
"m. c #9F4341",
"M. c #A34540",
"N. c #AA4544",
"B. c #A84840",
"V. c #A74048",
"C. c #FF417D",
"Z. c #FF427D",
/* pixels */
"C.v.l.9.8.z.C.b.j.t.8.8.1.#.X.L | :.l.x.>.o.G G } o.L b d d d k K H b F G L -.z.a.,.$.$.#.#.-.d.y.-.7.x.C.C.C.C.C.C.b.l.d.z.C.C.",
"l.y.7.$.$.9.z.x.9.$.$.<.$.o.G f d b %.w.O.L j b k H k u u u u u d u u f G } 7.s.&.X.o.#.#.o.o.-.*.#.-.h.C.z.v.C.C.z.9.,.4.u.z.C.",
"a.7.$.#.#.=.r.j.,.#.#.*.#.L d u u s h J G d u j d f d s u u d u u s u s H o.-.} k k H o.o.G G o.#.#.#.p.s.*.d.C.b.4.#.#.$.2.9.k.",
"d.;.#.#.#.#.2.4.O.o.#.$.#.L d u u u u d j u e w u u u u u u u u u u u d L #.X.f u u d L X.d f L #.o.K  .| $.j.C.b.>.#.#.#.#.$.>.",
"u.*.#.#.#.L +.| G H o.#.#.X.j u s u u u e q : ; : e u u u w q w e u d G o.X.G d u u d b j u j L #.K F b G | i.b.b.4.#.$.3.#.#.#.",
"k.2.3.*.o.G k f d f H #.$.o.b u j d w q - % * % % ; , w e ; % * : f G X.#.H j u u u s s u d K #.o.G d u d G @.0.a.q.$.#.$.#.#.#.",
"C.d.=.#.K k u u u u k o.#.#.F u f d : % @ @ @ @ @ @ $ - ; % @ @ % j H X.L b u e u u u u u b X.#.L d u u f K o.#.$.=.#.#.#.#.*.8.",
"C.f.=.#.F u u u u u j o.#.#.G s u w - @ @ @ @ @ @ @ @ @ $ @ @ @ % u f f d q % % - i u u u k K #.H u u u j K X.o.o.o.L H H O.r.f.",
"y.4.$.o.j u u s u u k o.#.L j u u w - @ @ @ @ @ @ @ @ @ @ @ @ @ - u e w w , @ @ @ q w : q s F X.F u s u f K X.L G b G k G | s.v.",
"O.#.#.#.F u u u u k K o.K j q q e q - $ @ @ @ @ @ @ @ @ @ @ @ $ q e : - - - @ @ @ % - - ; w k b s u d u d H K F d d d u j G @.4.",
"G X.#.#.G s u d k G G b e - % ; q w ; $ @ @ @ @ @ @ @ $ @ @ @ % w u q - @ @ @ @ @ @ @ @ * q f d u u d u d F j d u u u s u k o.#.",
"G K #.#.K f u d d d s q - @ @ $ * : ; $ @ @ @ % - @ @ @ @ @ $ - e f q - @ @ @ @ @ @ @ @ % w d u d b u u u u u u u u u s u s G #.",
"j G o.$.X.d u u u u u w % @ @ @ % ; % @ @ @ @ @ % t $ @ @ @ % ; q u : % @ @ @ @ $ @ @ $ - w d u u w q u u u s u u u s u u u s G ",
"u j X.#.L d s u q q u e - @ @ @ $ % @ @ @ @ @ @ @ % @ @ % $ - ; , u ; - $ @ @ @ @ @ % - q u u u q : : e u u u u u u s u u u u k ",
"u k o.#.K d d q - , u u , - $ @ @ @ @ @ @ @ @ @ @ @ @ @ @ @ $ - : u y ; $ @ @ @ @ @ - , e u u : % % - q u u u u u d j d u u d G ",
"u b o.o.F s u % $ : u u q - @ @ @ @ @ @ @ @ @ @ @ @ @ @ @ @ % ; ; w x ; % @ @ @ @ @ - ; w e , * $ @ % w u w q q u d H K k d F o.",
"u F o.L j q : $ @ * i i - % @ $ @ @ @ @ @ $ @ @ @ @ @ @ @ @ - - - ; - % @ @ @ @ @ $ % ; : , % @ @ % q u w ; ; : e s b K X.L o.#.",
"u F K G u - % @ @ % : : - % $ @ @ @ # $ @ @ @ $ @ @ @ @ @ @ @ @ $ : - @ @ @ @ @ $ - $ * % % $ @ $ ; u w - $ % q u u j G L o.#.#.",
"u k G j q % @ @ @ % - - @ < ; @ @ @ & $ @ @ @ @ @ @ @ @ @ @ @ @ % r w $ @ @ $ @ @ @ @ @ @ @ @ @ % : w : % @ - e u u d j k G L #.",
"u f j u q % @ @ @ @ $ @ @ $ @ @ @ @ @ @ @ @ @ @ @ @ @ @ @ % - @ * i d % % : ; $ @ @ @ @ @ @ @ @ @ * ; ; % $ ; e u u u u u d F o.",
"u u u u e q - @ @ @ @ @ @ $ @ @ @ @ @ @ @ @ @ @ @ % - % % r : $ - f k : % u u % @ @ @ @ @ @ @ @ @ % % * @ $ - , : , q u u u d G ",
"u u e e e w ; % @ % $ @ @ @ @ @ @ @ @ @ @ @ @ @ % , q % % d i ; e j d u % i j - $ % @ @ $ @ @ @ @ @ @ @ @ @ @ % % $ - : e u u d ",
"u q - - - - * $ $ - % @ @ @ @ @ @ @ @ @ @ @ @ $ - u i % - p C ^ / / S l f b i : - w - @ @ @ @ @ @ @ @ $ @ @ @ @ @ @ - ; , e u d ",
"w ; $ @ @ @ @ @ @ @ @ @ @ @ @ @ @ @ @ @ @ @ @ @ : j i p ^ N.E 8 4 4 8 E m.~ g : w i - $ @ @ @ @ @ @ @ @ @ @ @ $ % @ @ % : : e u ",
"e : % @ @ @ @ @ @ @ @ @ @ @ @ @ @ @ @ @ @ , r w u g m { Y o X       . X O T ] a d k , % @ @ @ @ @ $ @ @ @ @ @ - ; - $ % q ; w u ",
"u e ; $ @ @ @ @ @ @ @ @ @ @ @ @ @ @ @ @ % j b k b M ! 3 X   . . . . . .   X 4 N.M k i w - - @ @ $ $ @ @ @ @ @ % ; w q : : w d u ",
"u u q - $ @ @ @ @ @ @ @ @ @ @ @ @ @ @ @ - r , i G { 3   . . . . . . . . . .   5 ( i , ; ; q % @ @ @ @ @ @ @ @ @ - w u e w f f u ",
"e q : - % $ % @ @ @ @ @ @ $ @ @ @ @ @ @ % - ; f ' U X . . . . . . . . . . . . X E c r % $ % * @ @ @ $ @ @ @ @ @ % w u u u u s u ",
"; % % @ @ @ @ @ @ @ @ @ @ @ @ @ @ @ @ $ ; f f h N.o   . . . . . . . . . . . .   1 Q r w q $ @ @ @ @ @ @ @ @ @ @ $ ; ; ; - % : e ",
"@ @ @ @ @ @ @ @ @ @ @ @ @ % $ @ @ @ @ $ ; u g z U X . . . . . . . . . . . . . . X R v b u % $ < $ @ @ @ @ @ @ @ @ @ @ @ @ @ @ % ",
"@ @ @ @ @ $ @ @ @ @ @ @ @ @ @ @ @ @ $ $ ; u j ` 4   . . . . . . . . . . . . . .   6 D r : @ $ ; $ @ @ @ @ @ @ @ @ @ @ @ @ @ @ @ ",
"@ @ $ $ @ @ @ % & ; > @ @ @ @ @ @ @ - ; w i k [ 2   . . . . . . . . . . . . . .   5 A - - $ $ @ @ @ @ @ @ @ @ $ @ @ $ @ @ - $ @ ",
"- - - - @ @ @ @ @ % = @ @ @ @ @ @ @ % : u d H [ 2   . . . . . . . . . . . . . .   5 Z ; u ; % % $ @ @ @ @ @ @ @ @ @ @ @ @ % $ @ ",
"q w : % @ @ @ @ @ @ @ @ @ @ @ @ @ @ @ $ - : b 6.7   . . . . . . . . . . . . . . . 0 ^ k u ; % @ @ @ @ @ @ @ @ @ @ @ @ @ @ @ @ @ ",
"q u q % @ @ @ @ @ $ % ; ; - $ @ $ @ @ @ + , b ..R X . . . . . . . . . . . . . . X W v u : - @ @ @ @ @ @ @ @ @ - % @ * % % @ @ @ ",
"e w - @ $ $ @ @ % : w u e w ; @ @ @ @ @ $ i b n N.o   . . . . . . . . . . . .   O m.r : * @ @ @ @ @ @ @ @ @ @ $ $ @ q u , % @ @ ",
"u w - @ $ $ @ - q e e q - * % @ @ @ @ @ : f r j ^ U X . . . . . . . . . . . . X I ^ w ; $ @ @ @ @ @ @ @ @ & @ @ @ @ - u w ; $ @ ",
"e w - @ @ $ - w u q - $ @ @ @ @ @ $ % $ : , : i g V.3   . . . . . . . . . .   4 ( n b e = @ @ @ @ @ @ @ @ # @ @ @ @ $ q s q - % ",
"w , - @ @ - w d q - @ @ @ @ @ @ @ @ @ % % * e G b N B.3 X   . . . . . .   X 4 P y , w e - @ @ @ @ @ @ @ @ @ @ @ @ @ @ % q u e q ",
"u w ; - - : u r - $ @ @ @ @ @ @ @ @ @ @ @ % : f k j M { U o X         X O Y ( a w $ - - @ @ $ @ @ @ @ @ @ @ @ @ @ @ @ @ ; - : , ",
"u w : q e r u : % @ @ @ @ @ @ @ @ @ @ @ @ - % : : , g n ) M.E 8 4 4 9 E N.V j r i % $ $ @ % - @ @ @ @ @ @ @ @ @ @ @ @ @ $ @ @ @ ",
"u u f F b d w - $ @ @ @ @ @ $ @ @ @ @ @ @ % $ @ @ q b f i p B _ _ _ _ M b f w w u $ @ $ @ @ @ @ @ @ @ @ @ @ @ @ @ @ @ @ @ @ @ @ ",
"u u k K H b q - @ @ @ @ @ $ @ @ @ @ @ @ @ @ $ @ @ : k e - : g k d e F f f q % - - - - @ @ @ @ @ $ $ @ @ @ @ @ @ @ @ @ $ @ @ $ @ ",
"u u b X.o.G u ; ; * @ @ @ - $ @ @ @ @ @ @ @ @ @ @ - w - @ % d k , ; j r q e ; % % : q - $ @ @ @ $ $ @ @ @ @ @ @ @ @ @ @ @ @ @ @ ",
"u u G #.#.L j e w % @ @ @ @ @ @ @ @ @ @ @ @ @ @ @ @ % % $ @ % ; - $ ; * : u q - $ % : q > $ @ @ @ @ @ @ @ @ @ @ @ @ @ @ @ @ @ @ ",
"u d K #.#.#.G s , @ @ @ @ % - @ @ @ @ @ @ @ % @ @ @ @ % % @ @ $ % @ - , w u u : $ @ - w w % @ @ $ @ @ @ @ @ @ @ @ @ @ @ @ @ @ @ ",
"j G X.#.#.X.G d q $ @ @ $ ; q * @ @ @ @ @ @ $ @ @ @ @ @ @ @ @ @ @ @ , r e u e - @ $ ; e e - @ @ @ @ @ @ @ @ % $ @ @ @ $ @ @ @ @ ",
"K o.#.X.G k j u w - * % - w q - @ @ @ @ @ @ @ @ @ @ @ @ @ @ @ @ @ @ ; w e u w % @ - q u u : $ @ @ @ @ @ @ @ - % @ - q , $ @ @ @ ",
"o.#.o.G k u u u r , : q e e : % @ @ @ @ @ @ @ $ ; $ @ @ @ @ @ @ @ @ % % * w u : % ; e u u : $ @ @ @ @ @ @ @ @ @ % e s u - @ @ $ ",
"#.#.K f u s u u d u u u u w ; % @ @ @ @ @ @ @ $ < $ @ @ @ @ @ @ @ @ @ @ @ : u u r e u e q - @ @ @ $ @ @ @ @ @ @ @ * w u : @ @ @ ",
"#.o.G d u u u u u u u u f e - @ @ @ @ @ @ @ @ @ @ @ @ @ @ @ @ @ @ @ @ @ @ ; u u d u u w ; % @ $ % - % @ @ # % @ @ @ - u w - @ @ ",
"#.#.L f d d d d s u u u j u - $ @ @ @ @ @ @ $ @ @ @ @ @ @ @ @ @ @ @ % % % ; e u u u e q - @ $ - , , ; % @ # $ @ @ @ - e e : - - ",
"*.#.#.X.K K X.X.K j d u u q : - $ $ % ; - @ @ @ @ @ @ @ $ @ @ @ @ @ - w : q e j f u e : - % - q u u q % @ @ % ; % % ; w u e q ; ",
"j.>.#.#.#.#.#.#.#.X.j u u u e u f j d u ; % @ @ @ - % @ @ @ @ @ @ @ % e u u u j f s d f u w w e u u q % @ @ % w u q , e j j u w ",
"z.2.#.$.$.3.$.X.G G j u u u u j L o.L G d % @ $ - q : % @ @ @ @ @ @ @ q u u u u j G K X.X.K F j d w ; = < @ @ - s s f G X.G u u ",
">.$.#.#.#.$.L j s u u u u u u d K X.o.o.H , % ; w u e ; $ @ @ @ @ @ % e u u u j L o.#.#.#.#.#.X.H f : % ; @ @ - u j L o.o.b u u ",
"#.#.#.#.#.L b u u u u s u u s u f K } O.o.k q w u u u , $ @ $ % @ @ - u u s d K #.#.o.X.#.$.#.#.$.X.j ; % $ % w s H #.o.H d u u ",
"#.#.$.1.-.L G j u s f F d u u u u F K K #.L f s b u u q $ @ @ @ @ @ - e u u j o.#.X.k k H K L #.<.*.X.j , ; q u s K #.X.b j f u ",
"#.#.#.y.g.&.H K H G H H j u u u s H K L #.#.H d d u u q % @ @ @ $ @ @ ; u u F #.X.F s u d F G L #.#.#.X.j e e u d } #.X.G d d s ",
"#.#.#.7.c.i.@.o.#.#.#.o.F u u u d X.o.#.#.#.} d u u e , - $ @ @ : - $ - e d K o.G d u u u d k H o.$.$.#.K d u u f X.#.X.K b d d ",
"#.#.#.-.j.h.4.$.#.#.#.#.L f f d G #.#.#.$.#.K d u u u q : - - ; e u q q u b L H d u u u d u d G X.#.4.-.o.H d d F X.#.O.X.L K K ",
"$.$.*.4.k.b.u.*.$.$.$.;. .G G H X.-.1.1.$.#.L f u u F G u q q u j k u u u j j d u u u u u u s F L #.9.z.*.X.G G L #.-.d.7.$.#.#.",
"f.y.d.l.b.C.b.y.8.9.8.e.8.+.o.#.#.$.q.x.4.#.o.K b G o.#.F u u u s d u u u u u u u u s u u s k G X.$.a.C.4.O.X.X.#.*.r.b.C.k.4.-.",
"C.C.C.C.C.C.C.b.l.k.k.j.y.-.#.#.#.#.2.j.j.$.#.#.o.#.#.#.K d u u u u u u u u u u u u u u u j G G | 2.z.C.j.>.*.-.>.8.j.C.C.C.g.a."
};
