/* XPM */
static char *_cb32f559e354bba8bc1e75455959e86WLldisGa5UM73sOe[] = {
/* columns rows colors chars-per-pixel */
"49 50 250 2 ",
"   c None",
".  c #0E0E0E",
"X  c #0F0E0E",
"o  c #1B1A1B",
"O  c #1A1B1B",
"+  c #1B1B1B",
"@  c #1F1E1F",
"#  c gray12",
"$  c #2B1E0D",
"%  c #2A1F0E",
"&  c #2B1F0E",
"*  c #2F1F0E",
"=  c #31220E",
"-  c #31220F",
";  c #31230F",
":  c #34210F",
">  c #342410",
",  c #352410",
"<  c #352411",
"1  c #352511",
"2  c #362410",
"3  c #362411",
"4  c #352712",
"5  c #372812",
"6  c #372913",
"7  c #3E2812",
"8  c #3F2812",
"9  c #3F2912",
"0  c #3F2813",
"q  c #3B2A14",
"w  c #3B2B14",
"e  c #3C2B14",
"r  c #3C2C14",
"t  c #3D2C14",
"y  c #3D2D14",
"u  c #3D2C15",
"i  c #3F2E15",
"p  c #3E2D16",
"a  c #3F2D16",
"s  c #3F2E16",
"d  c #282828",
"f  c #392E20",
"g  c #412714",
"h  c #402813",
"j  c #402A13",
"k  c #442913",
"l  c #452913",
"z  c #452814",
"x  c #442914",
"c  c #452914",
"v  c #452915",
"b  c #412D14",
"n  c #432C16",
"m  c #402F16",
"M  c #412F16",
"N  c #402F17",
"B  c #422F17",
"V  c #452F15",
"C  c #422F18",
"Z  c #423116",
"A  c #433117",
"S  c #453017",
"D  c #473116",
"F  c #473017",
"G  c #463117",
"H  c #473117",
"J  c #463217",
"K  c #493016",
"L  c #4D3316",
"P  c #4D3317",
"I  c #433019",
"U  c #433119",
"Y  c #443318",
"T  c #453318",
"R  c #453418",
"E  c #453518",
"W  c #463418",
"Q  c #473418",
"!  c #463518",
"~  c #473518",
"^  c #463419",
"/  c #46351B",
"(  c #493318",
")  c #4A3318",
"_  c #493519",
"`  c #4A3518",
"'  c #4B3419",
"]  c #4A3519",
"[  c #4B3519",
"{  c #483618",
"}  c #483619",
"|  c #493619",
" . c #483719",
".. c #493719",
"X. c #49371A",
"o. c #4A371B",
"O. c #4B371B",
"+. c #4C3418",
"@. c #4C3419",
"#. c #4C3519",
"$. c #4D341A",
"%. c #4C351A",
"&. c #4D351A",
"*. c #4D351B",
"=. c #4C371A",
"-. c #4D371A",
";. c #4E361B",
":. c #4E371B",
">. c #4F371B",
",. c #4A381A",
"<. c #4B391A",
"1. c #4E381A",
"2. c #4E381B",
"3. c #4F381B",
"4. c #4D3A1B",
"5. c #4A381C",
"6. c #4C381C",
"7. c #4D391C",
"8. c #4E381C",
"9. c #4F381C",
"0. c #4F391C",
"q. c #4F3A1C",
"w. c #4E3B1C",
"e. c #4F3B1C",
"r. c #4F3D1D",
"t. c #503419",
"y. c #503519",
"u. c #543418",
"i. c #543518",
"p. c #54361A",
"a. c #5C361B",
"s. c #50381A",
"d. c #53381B",
"f. c #53391B",
"g. c #513A1B",
"h. c #50381C",
"j. c #50391C",
"k. c #503A1C",
"l. c #513B1C",
"z. c #503B1D",
"x. c #513B1D",
"c. c #553B1C",
"v. c #573B1D",
"b. c #503D1C",
"n. c #503C1D",
"m. c #513C1D",
"M. c #503D1D",
"N. c #523D1C",
"B. c #523C1D",
"V. c #523D1D",
"C. c #523E1D",
"Z. c #513D1F",
"A. c #533D1E",
"S. c #503E1E",
"D. c #513E1E",
"F. c #513F1E",
"G. c #513E1F",
"H. c #523F1F",
"J. c #533F1F",
"K. c #553F1E",
"L. c #543E1F",
"P. c #553E1F",
"I. c #543F1F",
"U. c #553F1F",
"Y. c #593F1D",
"T. c #5A3D1E",
"R. c #543E20",
"E. c #543F20",
"W. c #53401E",
"Q. c #53411E",
"!. c #52401F",
"~. c #53401F",
"^. c #53411F",
"/. c #55401F",
"(. c #54411F",
"). c #55411F",
"_. c #5F421F",
"`. c #554020",
"'. c #554121",
"]. c #564020",
"[. c #564120",
"{. c #564021",
"}. c #574021",
"|. c #564121",
" X c #574121",
".X c #574320",
"XX c #564321",
"oX c #564222",
"OX c #574222",
"+X c #574322",
"@X c #554522",
"#X c #5A4321",
"$X c #584420",
"%X c #584421",
"&X c #594421",
"*X c #584521",
"=X c #584522",
"-X c #5C4623",
";X c #5C4723",
":X c #5D4723",
">X c #5C4825",
",X c #5E4A24",
"<X c #5E4A25",
"1X c #5C4926",
"2X c #5C4927",
"3X c #5D4C27",
"4X c #5E4E26",
"5X c #5F4E26",
"6X c #5F4F26",
"7X c #5F4E27",
"8X c #4A4135",
"9X c #634421",
"0X c #654521",
"qX c #674623",
"wX c #664D25",
"eX c #665027",
"rX c #615029",
"tX c #625128",
"yX c #625029",
"uX c #625129",
"iX c #635129",
"pX c #62512A",
"aX c #63522A",
"sX c #63522B",
"dX c #63532B",
"fX c #64552A",
"gX c #65552A",
"hX c #65552B",
"jX c #66572D",
"kX c #6B552C",
"lX c #6B552D",
"zX c #68582E",
"xX c #68592F",
"cX c #72562A",
"vX c #755B2C",
"bX c #685A30",
"nX c #695A30",
"mX c #685B30",
"MX c #685A31",
"NX c #7B6432",
"BX c #7E6733",
"VX c #7E6833",
"CX c gray26",
"ZX c #806935",
"AX c #806936",
"SX c #816B37",
"DX c #826C37",
"FX c #826C38",
"GX c #836C3A",
"HX c #846D3A",
/* pixels */
"bXgXgXgXgXgXgXgXbXbXbXzXgXgXbXbXbXbXbXbXbXbXbXM.M.M.bXbXbXbXbXbXbXbXbXjXgXzXzXbXbXjXgXgXgXgXgXgXbX",
"bXOXOXOXM.<.OXOXOX~.~.~.~.~.~.~.~.OX~.~.OXOXOXj j j OXOXOX~.~.OX~.~.~.~.~.~.~.~.OXOXOX<.M.OXOXOXbX",
"bXOXOXI.e.} I.I.I.M.M.M.M.M.M.M.M.I.M.M.I.I.OX8 8 8 OXI.I.M.M.I.M.M.M.M.M.M.M.M.I.I.I.} e.I.OXOXbX",
"bXOXOXH H H H H H &.&.I.&.&.&.&.&.&.t t OXOXOX8 8 8 OXOXOXt t &.&.&.&.&.&.I.&.&.H H H H H H OXOXbX",
"bXOXOXH H H H H H &.&.I.&.&.&.&.&.&.t t OXOXOX8 8 8 OXOXOXt t &.&.&.&.&.&.I.&.&.H H H H H H OXOXbX",
";XW W q #XU U 4 M M t %XM t U C t M 5 5 ).).} 4 4 4 } ).).t t M 5 5 V M t %XM % * : : wXH q W W ;X",
"# H H H f 1.          7Xe.&.            uXuXI.c c c I.uXuX        cXK i.&.7X          vXc.H H H # ",
"# H H H f _.          7Xe.&.            uXuXI.c c c I.uXuX        SXa.i.&.7X          VXc.H H H # ",
"CXM.M.t 8XY.          7X1.&.            7X7XM.8 8 8 M.7X7X        SXi.y.&.7X          VXg.t M.M.CX",
"CXM.M.t 8Xg.          7X1.&.            7X7XM.8 8 8 M.7X7X        BXi.y.&.7X          VXg.t M.M.CX",
"bXOXOXOXOXOXuXuXuXuXuX7X~.M.M.7X7X%XuXuXuXuXOXc c c OXuXuXuXuX%X7X7XM.M.M.7XuXuXuXuXuXOXOXOXOXOXbX",
",X} } q q q q q q q q } t t t t t q q q W W } 4 4 4 } W W q q q t t t t t } t q q q q q q q } } ,X",
",X} } q q q q q q q q } t t t t t q q q W W } 4 4 4 } W W q q q t t t t t } t q q q q q q q } } ,X",
"bXOXOX&.lXqX          uXj.&.            uXuXOX8 8 8 OXuXuX        FXi.y.&.uX          HXY.&.OXOXbX",
"gXM.M.H eX9X          uX} H             7X7XM.8 8 8 M.7X7X        SXi.P H uX          FXg.H M.M.gX",
"gXM.M.H eX_.          uX} H             7X7XM.8 8 8 M.7X7X        BXi.P H uX          DXg.H M.M.gX",
"bXI.I.&.lXqX          7X} H             uXuXI.8 8 8 I.uXuX        SXi.P H 7X          NXc.&.I.I.bX",
",XW W } M.%X).).).).).%X<.} %X%X%X%X).).).).W 4 4 4 W ).).).).%X%X%X%Xr.} %X%X).).).).%XM.} W W ,X",
",XW W } M.%X).).).).).%X<.} %X%X%X%X).).).).W 4 4 4 W ).).).).%X%X%X%Xr.} %X%X).).).).%XM.} W W ,X",
"bXOXOXOX,XuXuXuX7XuXuX7X~.M.7X7X7X7XuXuX%X%XOXc c c OX%X%XuXuX7X7X7X7X%XM.7X7XuX7XuXuXuX,XOXOXOXbX",
"zXM.M.T e.R.R.R.M.R.R.OXe.1.M.M.M.e.M.M.~.~.M.k k k M.~.~.M.M.e.M.M.M.j.1.OXOXR.M.I.R.R.e.T M.M.zX",
"zXM.M.t H &.&.&.&.&.&.M.&.&.&.&.&.H H H M.M.M.k k k M.M.M.H H H &.&.&.&.&.M.M.&.&.&.&.&.H t M.M.zX",
"bXOXOXH &.M.M.M.OXOXOX7Xe.&.OXM.M.d + + . . c c c c c g . + + d M.M.OXj.&.7X7XOXOXM.M.M.&.H OXOXbX",
"bXOXOXH &.M.M.M.OXOXOX7Xe.&.OXM.M.d + + . . c c c c c g . + + d M.M.OXj.&.7X7XOXOXM.M.M.&.H OXOXbX",
"# } } t A } W W W } } ).M t } } } . - - ).).- 4 4 4 - 4 ).- - . } } } A t ).).} W W W } A t } } # ",
"CXM.M.H &.M.M.M.OXOXOXuX} H OXOXOXOXOXOXuXuXOX8 8 8 OXOXuXOXOXOXOXOXOXe.H uXuXOXOXM.M.M.&.H M.M.CX",
"CXM.M.H &.M.M.M.OXOXOXuX} H OXOXOXOXOXOXuXuXOX8 8 8 OXOXuXOXOXOXOXOXOXe.H uXuXOXOXM.M.M.&.H M.M.CX",
"bXOXOXI.OX%XuXuXuX7X7X7X~.M.7X7X7XuX7X7XuXuXOX8 8 8 OXOXuX7X7XuX7X7X7X%XM.7X7X7XuXuXuX%XOXI.OXOXbX",
"bXOXOXM.M.M.M.M.M.I.I.I.OXOXOXOXOXI.} } OXOXOX8 8 8 OXOXOX} } I.OXOXOXOXOXI.I.I.M.M.M.M.M.M.OXOXbX",
"bXOXOXM.M.M.M.M.M.I.I.I.OXOXOXOXOXI.} } OXOXOX8 8 8 OXOXOX} } I.OXOXOXOXOXI.I.I.M.M.M.M.M.M.OXOXbX",
";XW W q e t t t t t t } t t t q q q q q W W } 4 4 4 } } W q q q q q t t t } } t t t t t e q W W ;X",
"bXM.M.H &.M.M.M.OXOXOX7Xe.&.M.M.M.} I.I.uXuXI.c c c I.OXuXI.I.} M.M.M.e.&.7X7XOXOXM.M.M.e.H M.M.bX",
"bXM.M.H &.M.M.M.OXOXOX7Xe.&.M.M.M.} I.I.uXuXI.c c c I.OXuXI.I.} M.M.M.e.&.7X7XOXOXM.M.M.e.H M.M.bX",
"gXM.M.t } I.I.I.I.OXOX7X1.&.I.I.I.I.M.M.7X7XM.8 8 8 M.M.7XM.M.I.I.I.I.j.&.7X7XOXI.I.I.I.j.t M.M.gX",
"gXM.M.t } I.I.I.I.OXOX7X1.&.I.I.I.I.M.M.7X7XM.8 8 8 M.M.7XM.M.I.I.I.I.j.&.7X7XOXI.I.I.I.j.t M.M.gX",
"bXOXOX&.j.I.OXOXOXOXOX7X} H M.} } OXOXOXuXuXOXc c c OXOXuXOXOXOX} } M.&.H 7X7XOXOXOXOXI.M.&.OXOXbX",
",X} } W 1.).).).).).).%X<.} %X).).).).).).).} 4 4 4 } } ).).).).).).%Xr.} %X%X).).).).).M.W } } ,X",
",X} } W 1.).).).).).).%X<.} %X).).).).).).).} 4 4 4 } } ).).).).).).%Xr.} %X%X).).).).).M.W } } ,X",
"bXOXOXOXOXOXOXOX} M.M.OXOXOXI.I.I.I.OXOXOXOXOX8 8 8 OXOXOXOXOXI.I.I.I.OXOXOXOXM.} M.OXOXOXOXOXOXbX",
"gXM.M.H H H H H &.&.&.I.( H H H H t &.&.M.M.M.8 8 8 M.M.M.&.&.t H H H H H I.I.&.&.( H H H H M.M.gX",
"gXM.M.H H H H H &.&.&.I.( H H H H t &.&.M.M.M.8 8 8 M.M.M.&.&.t H H H H H I.I.&.&.( H H H H M.M.gX",
"# M.I.&.j.I.OXOXOXM.M.7X} H M.I.I.I.I.I.uXuXI.8 8 8 I.OXuXI.I.I.I.I.M.&.H 7X7XM.OXOXOXI.M.&.I.I.# ",
"CXW W t A } W W W W W %XM t } } } } W W ).).W 4 4 4 W W ).W W } } } } A t %X%XW W W W } W t W W CX",
"CXW W t A } W W W W W %XM t } } } } W W ).).W 4 4 4 W W ).W W } } } } A t %X%XW W W W } W t W W CX",
"bXOXOX&.j.OXOXOXM.OXOX7X} H M.M.M.M.I.I.%X%XOXc c c OXOX%XI.I.M.M.M.M.&.H 7X7XOXM.M.OXOXI.&.OXOXbX",
"bXOXOX&.j.OXOXOXM.OXOX7X} H M.M.M.M.I.I.%X%XOXc c c OXOX%XI.I.M.M.M.M.&.H 7X7XOXM.M.OXOXI.&.OXOXbX",
"zX~.M.} @XuXuXuXuXuXuX7XOXOXuXuXuX7X7X7X7X7XM.k k k M.M.7X7X7X7XuXuXuX,XOX7X7XuXuXuXuXuX7X} M.M.zX",
"bXOXOXM.M.M.M.M.OXOXOXM.OXOXOXM.M.I.OXOXOXOXOXc c c OXOXOXOXOXI.M.M.OXOXOXM.M.OXOXOXM.M.M.M.OXOXbX",
"bXOXOXM.M.M.M.M.OXOXOXM.OXOXOXM.M.I.OXOXOXOXOXc c j e.6.6.5.o.} } } OXOXOXM.M.OXOXOXM.M.M.M.OXOXbX",
"} 4 4 4 4 4 - - - 4 4 - 4 4 4 4 > - % % - - - 4 4 4 - - - % % - 4 4 4 4 4 - - 4 - - - 4 4 4 4 4 } "
};
