/* XPM */
static char *f55eb290cab642399cf1c9fe33c6b2a5Ztrpy0C2O5RlPFOP[] = {
/* columns rows colors chars-per-pixel */
"64 63 35 1 ",
"  c gray21",
". c #373737",
"X c #3A3A3A",
"o c #3C3C3C",
"O c #3F3F3F",
"+ c gray26",
"@ c gray27",
"# c #474647",
"$ c #484848",
"% c gray31",
"& c #505050",
"* c #525353",
"= c gray33",
"- c gray34",
"; c #585858",
": c gray35",
"> c #5B5B5B",
", c gray36",
"< c #5F5F5F",
"1 c #606060",
"2 c gray39",
"3 c #646464",
"4 c #676767",
"5 c #6B6A6B",
"6 c gray42",
"7 c #6C6C6C",
"8 c #6F6F6F",
"9 c #727272",
"0 c gray45",
"q c #747474",
"w c #757574",
"e c #797979",
"r c #7B7B7B",
"t c gray50",
"y c #808080",
/* pixels */
"yyye5555,,,-   +5wwweyyyyyytewww95544411,,,1555eyyyy855555555555",
"yyye5555,,,-   +5wwweyyyyyytewww95544441,,11555eyyyy855555555555",
"yyte5555,,,-   +5wwweyyyyyytewww955444411111555eyyyy855555555555",
"www95555:::-XXX@8eeetyyyew999888888888855555999wwwww999999988888",
",,,15555---*ooo$wyyyyyyt8:::,1115wweyyyyyyyyyyy51111eyyyyytwwwww",
",,,15555---*ooo$wyyyyyyt8:::,1115wweyyyyyyyyyyy51111eyyyyytwwwww",
",,,15554---*ooo$9tttttte8:::,,,,599etttttttteet4,,,,wttttttw9999",
"----::::,,,:@@@$:,,,::::::::-***-:::,,,:----::::::::::::------*-",
"----::::,,,:@@@$:,,,::::::::-***-:::,,,:----::,:::::::::-------*",
"----::::,,,:@@@$:,,,::::::::-***-:::,,,:----:,,:::::::::--------",
"----::::,,,:@@@$:,,,::::::::-***-:::,,,:----::::::::::::--------",
"****--------@@@$-:::-****--*%%%%***-:::-****-::-***********%%%%%",
"oooo@@@@XXXo@@@@@@@@+XXXXooX    XXX+@@@@@@@@$$$X        XooXXXXX",
"oooo@@@@XXXo@@@@@@@@+XXXXooX    XXX+@@@@@@@@$$$X        XXoXXXXX",
"oooo@@@@XXXo@@@@@@@@+XXXXooXX   XXX+@@@@@@@@$$$X        XooXXXXX",
"@@@$%%%%+++@%%%%$$$$@+++++++oXXXo++$%%$$$$$$%%%@++++++++@@@@@@@@",
"44448888,,,,1111,,,:::::---*$@@@%:::,,,,,,,,:::11111114414444444",
"5558www94444444411111111,::-%@@@*11,11111111,,,45555558555555555",
"555588884444111111441111,::-$+++*1111111111144455555545444455555",
"111111115555,,,155854111,::*+   *554,,,455559ww855551,11,,,45555",
"111111115555,,,155554111,::*+   *554,,,455559ww855581,11,,,45555",
"111111115555,,,155554111,::*+   *854,,,455559ww855551,11,,,45555",
"111111115555,,,155554111,::*+   *884,,,455859ww855551,,,,,,45555",
",,,,,,,,1111,,,,11111,,,:::-@ooo*441,,,1111155541111,,,,:::14444",
"-------------------------::-%@@@*,,::::-****-::-****-------:::::",
"-------------------------::-%@@@*,,::::-****-::-****-------:::::",
"----**-------------------::-%@@@*,,::::-****-::-****-------:::::",
"$$$$%%%%@@@@$$$$$$$$$$$$$%%$+ooo@%%$$$$@@@@@$$$$@@@@%***$$$$$$$$",
"XXXo@@@+    XXXX        XooXX               XXXXXXXX$$$$oXXXXXXX",
"XXXo@@@+    XXXX        XooXX               XXXXXXXX$$$$oXXXXXXX",
"XXXo@@@@    XXXX        XooXX               XXXXXXXX$$$$oXXXXXXX",
"XXXo@@@@    XXXX        XooXX               XXXXXXXX$$$$oXXXXXXX",
"***-1141********:,,:-%%%$%%%****%%%$$$$$$$$$oXX$%%%%::::-******%",
"4448ttyt55554445tyyt9111,,,145554111111,::::@oo-1111555555544444",
"1448yyyt55551145tyyt9111,,,145554111111,::::@oo-1111555555544444",
"1448yyyt44448889tyyt9111,,,,111144489991::::@oo:4444555555555555",
"1148yyyt1114wwwwtyyt91,,111,::::155wyyy5::::@oo,5555555555555555",
"1148yyyt1114wwwwtyyt9,,,1111::::155wyyy5::::@oo,5555555555555555",
"1148yyyt1114wwwwtyyt91111111::::155wyyy5::::@oo,5555555555555555",
",,,14444:::,111444441,,,:::::---,114444,::::@oo-1111,,,,,::,1111",
"::::----::::::::-----::::-------:,,:::::::::$++*::::--::***-::::",
"::::----::::::::-----::::-------:,,:::::::::$++*::::--::***-::::",
"----********---******----*******------------@+o%----****%%%*----",
"---*%%%%*******%%%%%%****%%%%%%%************@oo$****%***$$$%****",
"%%%$++o++++++++oooooo++++@@@++++ooo+@@@+++++oXXo++++++++ooo+++++",
"$$$@XXXXooooXXXX    Xoooo+++oXXXX  o+++oooooXXXXXXXXXXXX   Xoooo",
":::----*****:::-%%%%-:::-**%$$$$*--:,,,-*****%%-::::$$$$@@@ooooo",
"555588884445eeew54448eee811,::::5eeeeee84444444weeee,------+oooo",
"5558www95558yyyt8558wyytw441,:::8yyyyyy95555555eyyyy1::::::+oooo",
"5558wwww5558yyyt8558wyytw441,:::8yyyyyy95555555eyyyy1::::::+oooo",
"5558wwww5558yyyt8558wyytw441,:::8yyyyyy95555555eyyyy1::::::+oooo",
"tttw4445555888884444111145555555wyy911155555wtttyyyy1:::***+oooo",
"yyyw4444555555554441,:::15555555wyy8,,,45555eyyyyyyy1:::*%%+oooo",
"yyyw4444555555554441,:::15555555wyy8,,,45555eyyyyyyy1:::*%%+oooo",
"yytw1144555555554441,:::15555555wyy8,,,45555eyyyyyyy1:::*%%+oooo",
"yytw1444555555554441,:::15555555wyy8,,,45555eyyyyyyy1:::*%%+oooo",
"1111,,,,:::::::::::::,,,::::::::,,,,,,,:::::,11,,,,,,,,,:::+oooo",
",,,,,,,,:::::::::::::,,,:---:::::::,,,,::::::,,:::::,,,,:::@oooo",
"--------****----*****---********-------*****--------::::***+oooo",
"@@@@@@@+ooo+%%%%@++++ooo++++++++@$$@+++++++++@@+++++%***+++ooooo",
"oooooooo   X$$$$oXXXX   XXXXoooo+@@+XXXXXXXXoooXXXXX$$$$oXXooooo",
"oooooooX   X$$$$oXXXX   XXXXXooo+@@oXXXXXXXXXooXXXXX$$$$oXXooooo",
"oooooooX   X$$$$oXXXX   XXXXXooo+@@oXXXXXXXXXooXXXXX$$$$oXXooooo"
};
