/* XPM */
static char *_d56b0a404b84b168f5bb3c57a9832bb3qoEpg1jT9SBp4KY[] = {
/* columns rows colors chars-per-pixel */
"64 64 18 1 ",
"  c gray21",
". c #3A3A3A",
"X c #3C3C3C",
"o c gray25",
"O c #464646",
"+ c #4B4B4B",
"@ c #4C4C4C",
"# c gray32",
"$ c #565656",
"% c gray35",
"& c #5D5D5D",
"* c #606060",
"= c #646464",
"- c gray42",
"; c #6C6C6C",
": c gray44",
"> c gray46",
", c #808080",
/* pixels */
",,,,----=&&&    >>>>,,,,,,,,>>>>----===*****----,,,,------------",
",,,,----=&&&    >>>>,,,,,,,,>>>>----===*****----,,,,------------",
",,,,----=&&&    >>>>,,,,,,,,>>>>----===*****----,,,,------------",
",,,,----=&&&    >>>>,,,,,,,,>>>>----===*****----,,,,------------",
"&&&&----*$$$XXXX,,,,,,,,;%%%****>>>>,,,,,,,,,,,,****,,,,,,,,>>>>",
"&&&&----*$$$XXXX,,,,,,,,;%%%****>>>>,,,,,,,,,,,,****,,,,,,,,>>>>",
"&&&&----*$$$XXXX,,,,,,,,;%%%****>>>>,,,,,,,,,,,,****,,,,,,,,>>>>",
"&&&&----*$$$XXXX,,,,,,,,;%%%****>>>>,,,,,,,,,,,,****,,,,,,,,>>>>",
"$$$$%%%%%&&&OOOO&&&&%%%%%%%%####%%%%&&&%$$$$%%%%%%%%%%%$$$$$$$$#",
"$$$$%%%%%&&&OOOO&&&&%%%%%%%%####%%%%&&&%$$$$%%%%%%%%%%%$$$$$$$$$",
"$$$$%%%%%&&&OOOO&&&&%%%%%%%%####%%%%&&&%$$$$%%%%%%%%%%%$$$$$$$$$",
"$$$$%%%%%&&&OOOO&&&&%%%%%%%%####%%%%&&&%$$$$&%%%%%%%%%%$$$$$$$$$",
"XXXXOOOOo...OOOOOOOO.....XXX    ....OOOOOOOO++++       .XXXX....",
"XXXXOOOOo...OOOOOOOO.....XXX    ....OOOOOOOO++++       .XXXX....",
"XXXXOOOOo...OOOOOOOO.....XXX    ....OOOOOOOO++++       .XXXX....",
"XXXXOOOOo...OOOOOOOO.....XXX    ....OOOOOOOO++++       .XXXX....",
"---->>>>;=======********&%%%OOOO************&&&&-----;;;--------",
"---->>>>;=======********&%%%OOOO************&&&&-----;;;--------",
"---->>>>;=======********&%%%OOOO************&&&&------;;--------",
"---->>>>;=======********&%%%OOOO************&&&&------;;--------",
"********=---&&&*----****&%%%    ----&&&=---->>>>----&&&&&&&&----",
"********=---&&&&----****&%%%    ;;--&&&=---->>>>----&&&&&&&&----",
"********=---&&&&----****&%%%    ;;;;&&&=---->>>>----&&&&&&&&----",
"********=---&&&&----****&%%%    ;;;;&&&=---->>>>----&&&&&&&&----",
"$$$$$$$$$$$#$$$$$$$$$$$$$%%%OOOO&&&&%%%$####%%%%####$$$$$$$$%%%%",
"$$$$$$$$$$$$$$$$$$$$$$$$$%%%OOOO&&&&%%%$####%%%%####$$$$$$$$%%%%",
"$$$$$$$$$$$$$$$$$$$$$$$$$%%%OOOO&&&&%%%$####%%%%####$$$$$$$$%%%%",
"$$$$#$$$$$$$$$$$$$$$$$$$$%%%OOOO&&&&%%%$####%%%%####$$$$$$$$%%%%",
"....OOOOX   ....        .XXX                ........+++o........",
"....OOOOX   ....        .XXX                ........+++o........",
"....OOOOX   ....        .XXX                ........+++o........",
"....OOOOX   ....        .XXX                ........+++o........",
"@@@@&&&&$@@@@@@@$$$$++++++++@@@@++++OOOOOOOO....++++%%%$@@@@@@@@",
"====,,,,>---====,,,,****&&&&----*******&%%%%XXXX****--------====",
"====,,,,>---====,,,,****&&&&----*******&%%%%XXXX****--------====",
"====,,,,>---====,,,,****&&&&----*******&%%%%XXXX****--------====",
"====,,,,:***>>>>,,,,********%%%%----,,,;%%%%XXXX----------------",
"====,,,,:***>>>>,,,,********%%%%----,,,;%%%%XXXX----------------",
"====,,,,:***>>>>,,,,********%%%%----,,,;%%%%XXXX----------------",
"====,,,,:***>>>>,,,,********%%%%----,,,;%%%%XXXX----------------",
"%%%%$$$$$%%%%%%%$$$$%%%%$$$$$$$$&&&&%%%%%%%%oooo%%%%%%%$####%%%%",
"%%%%$$$$$%%%%%%%$$$$%%%%$$$$$$$$&&&&%%%%%%%%oooo%%%%%%%$####%%%%",
"%%%%$$$$$%%%%%%%$$$$%%%%$$$$$$$$&&&&%%%%%%%%oooo%%%%%%%$####%%%%",
"%%%%$$$$$%%%%%%%$$$$%%%%$$$$$$$$&&&&%%%%%%%%oooo%%%%%%%$####%%%%",
"++++.....XXX....    XXXXXooo....    oooXXXXX............    XXXX",
"++++.....XXX....    XXXXXooo....    oooXXXXX............    XXXX",
"++++.....XXX....    XXXXXooo....    oooXXXXX............    XXXX",
"++++.....XXX....    XXXXXooo....    oooXXXXX............    XXXX",
"---->>>>:---,,,,----,,,,:===%%&&,,,,,,,>--------,,,,%%%%%%%%XXXX",
"---->>>>:---,,,,----,,,,:===%%%%,,,,,,,>--------,,,,%%%%%%%%XXXX",
"---->>>>:---,,,,----,,,,:===%%%%,,,,,,,>--------,,,,%%%%%%%%XXXX",
"---->>>>:---,,,,----,,,,:===%%%%,,,,,,,>--------,,,,%%%%%%%%XXXX",
",,,,=====-------====%%%%*-------,,,,&&&=----,,,,,,,,%%%$@@@#XXXX",
",,,,=====-------====%%%%*-------,,,,&&&=----,,,,,,,,%%%$@@##XXXX",
",,,,=====-------====%%%%*-------,,,,&&&=----,,,,,,,,%%%$@@@@XXXX",
",,,,=====-------====%%%%*-------,,,,&&&=----,,,,,,,,%%%$@@@@XXXX",
"&&&&&&&&%%%%%%%%%%%%&&&&%$$$%%%%&&&&&&&%%%%%&&&&&&&&&&&%%%%%XXXX",
"&&&&&&&&%%%%%%%%%%%%&&&&%$$$%%%%%%%%&&&%%%%%&&&&%%%%&&&%%%%%XXXX",
"&&&&&&&&%%%%%%%%%%%%&&&&%$$$%%%%%%%%&&&%%%%%&&&&%%%%&&&%%%%%XXXX",
"&&&&&&&&%%%%%%%%%%%%&&&&%$$$%%%%%%%%&&&%%%%%&&&&%%%%&&&%%%%%XXXX",
"XXXXXXXX.   ++++....    ....XXXXOOOO........XXXX....+++o....XXXX",
"XXXXXXXX.   ++++....    ....XXXXOOOO........XXXX....+++o....XXXX",
"XXXXXXXX.   ++++....    ....XXXXOOOO........XXXX....+++o....XXXX",
"XXXXXXXX.   ++++....    ....XXXXOOOO........XXXX....+++o....XXXX"
};
