/* XPM */
static char *cebed03b6e1b4ddbe115140a68d8674dN6jv3j4NasJoP9tX[] = {
/* columns rows colors chars-per-pixel */
"64 64 69 1 ",
"  c #5E3527",
". c #643727",
"X c #623629",
"o c #67392A",
"O c #6D3C2E",
"+ c #73372A",
"@ c #713B2C",
"# c #633C30",
"$ c #6B3D30",
"% c #733F31",
"& c #74422E",
"* c #6A4132",
"= c #764331",
"- c #7C4536",
"; c #70443A",
": c #7E4638",
"> c #744838",
", c #814636",
"< c #834A37",
"1 c #8B4A37",
"2 c #864B39",
"3 c #8B4D3A",
"4 c #914A3E",
"5 c #8F503E",
"6 c #93513F",
"7 c #A0523E",
"8 c #944D41",
"9 c #8F5444",
"0 c #945442",
"q c #9A5543",
"w c #965944",
"e c #9F5846",
"r c #9A564B",
"t c #9D5A48",
"y c #9E5C48",
"u c #A35140",
"i c #A55441",
"p c #A25044",
"a c #A55346",
"s c #A35444",
"d c #A65B46",
"f c #A55C44",
"g c #AF5A47",
"h c #A15748",
"j c #A15B4A",
"k c #A35E4A",
"l c #A65D49",
"z c #AA5D49",
"x c #B25D4A",
"c c #AB604B",
"v c #AF654E",
"b c #B0624A",
"n c #B7604B",
"m c #B1634E",
"M c #B6604C",
"N c #AF6550",
"B c #9B8F86",
"V c #9E8F85",
"C c #9E8F88",
"Z c #999186",
"A c #9D9087",
"S c #9E9188",
"D c #A28D86",
"F c #A48E88",
"G c #AE9D97",
"H c #AF9D98",
"J c #B29D93",
"K c #B09D96",
"L c #B29E99",
/* pixels */
"qq66666qqqqKKKKqqqqqqqqq5555dddfqqqqzzzzl3333KKKKqqqqqddddqqqqqq",
"qq66666qqqqKKKKqqqqqqqqq6655dddfqqqqzzzzl3333KKKKqqqqqddddqqqqqq",
"------,2222KKKHbbbb-----OOOOoooo----&&&&-<<<<KKKKqqqqq---,------",
"-------2222KKKKbbbb-----OOOOoooo----====-<<<<KKKKqqqqq----------",
"-------2222KKKKbbbb-----OOOOoooo----====-<<<<KKKKqqqqq----------",
"-------2222KKKKbbbb-----OOOOoooo----====-<<<<KKKKqqqqq----------",
"------,2221KKKHbbbb-----OOOOoooo----====-<<<<KKKKqqqqq,,,,------",
"--33333OOOOKKKKqqqq---------%%%&-------------KKKK<<<<<5556----33",
"--33333OOOOKKKKqqqq,,-------%%%&-------------KKKK<<<<<5555----33",
"--33333OOOOKKKKqqqq,--------%%%&-------------KKKK<<<<<5555----33",
"--44443$$$OKKKKqqqq:::::----%%%=-------------KKKK<<<<<8888----44",
"VVVVVVVVVVVVVVVVVVDDDDVVVVVVVVVVVVVVVVVVVVVVVVVVVVVVVVVVVVVVVVVV",
"VVVVVVVVVVVVVVVVVVVVVVVVVVVVVVVVVVVVVVVVVVVVVVVVVVVVVVVVVVVVVVVV",
"VVVVVVVVVVVVVVVVVVVVVVVVVVVVVVVVVVVVVVVVVVVVVVVVVVVVVVVVVVVVVVVV",
"VVVVVVVVVVVVVVVVVVVVVVVVVVVVVVVVVVVVVVVVVVVVVVVVVVVVVVVVVVVVVVVV",
"11uuuuuuuuuuuuuuuuuuuuuuuuupKKKLggggggggggggggggggggggggggggggZV",
"33qqqqqqqqqqqqqqqqqqqqqqqqqqKKKKddddddddddddddddddddddddddddddDV",
"33qqqqqqqqqqqqqqqqqqqqqqqqqqKKKKddddddddddddddddddddddddddddddDV",
"33qqqqqqqqqqqqqqqqqqqqqqqqqqKKKKddddddddddddddddddddddddddddddDV",
"1<qqqqtqqqqqqqwwwwwqqqqqqqqqKKKKddddkkkkjyyyykkkkyyyyykkkkkkkkBV",
"qq----,qqqq----XXXX---------KKKKdddd-----OOOO----OOOOO--------CV",
"qq----,qqqq----XXXX---------KKKKdddd-----OOOO----OOOOO--------CV",
"qq----,qqqq----XXXX---------KKKKdddd-----OOOO----OOOOO--------VV",
"qq----,qqqq----XXXX---------KKKKdddd-----OOOO----OOOOO--------CV",
"qqXXXo+qqqqXXX.----XXXX.----KKKKddddOOOO@----OOOO-------------CV",
"qqXXXX+qqqqXXX.----XXXX.----KKKKddddOOOO@----OOOO-------------CV",
"qqXXXX+qqqqXXX.----XXXX.----KKKKddddOOOO@----OOOO-------------CV",
"qqXXXX+qqqqXXXX----XXXXo----KKKJkkkkOOOO@----OOOO-------------BV",
"VVVVVVVVVVVVVVVVVVVVVVVVVVVVVVVVVVVVVDVDVVVVVVVVVVVVVVVVVVVVVVVV",
"VVVVVVVVVVVVVVVVVVVVDVVVVVVVVVVVVVVVVVVVVVVVVVVVVVVVVVVVVVVDVVVV",
"VVVVVVVVVVVVVVVVVVVVVVVVVVVVVVVVVVVVVVVVVVVAVVVVVVVVVVVVVVVVVVVV",
"VVVVVVVVVDVVVVVVVVVVVVVVVVVVVVVVVVVVVVDVVVVAVVVVDVVVVVVVVVVVVVVV",
"siiiiiiiiiaKKKL777777777777unnnM7777777777777KKKK777777777nnnn11",
"heeeeeeeeetKKKKqqqqqqqqqqqqqmmmmqqqqqqqqqqqqqKKKKqqqqqqqqqmmmm22",
"heeeeeeeeetKKKKqqqqqqqqqqqqqmmmmqqqqqqqqqqqqqKKKKqqqqqqqqqmmmm22",
"heeeeeeeeetKKKKqqqqqqqqqqqqqmmmmqqqqqqqqqqqqqKKKKqqqqqqqqqmmmm22",
"ettttttttteKKKKqqqqttttttttqNNNvttttqqqqqqqqqKKKKqqqqqqqqqNNNN22",
"-----------KKKKqqqq-----------------qqqq9OOOOKKKKqqqqq2222----22",
"-----------KKKKqqqq-----------------qqqq9OOOOKKKKqqqqq2222----22",
"-----------KKKKqqqq-----------------qqqq9OOOOKKKKqqqqq2222----22",
"-----------KKKKqqqq-----------------qqqq0OOOOKKKKqqqqq2222----22",
"33----,3331KKKKqqqq----=    ----OOOOqqqqqqqqqKKKKqqqqq----2222--",
"33----,3331KKKKqqqq----=    ----OOOOqqqqqqqqqKKKKqqqqq----2222--",
"33----,3331KKKKqqqq----=    ----OOOOqqqqqqqqqKKKKqqqqq----2222--",
"33----,3331KKKKqqqq----=    ----OOOOqqqqqqqqqKKKKqqqqq----2222--",
"VVVVVVVVVVVVVVVVVVVVVVVVVVVVVVVVVVVVVVVVVVVVVVVVVVVVVVDVVVVVVVVV",
"VVVVVVVVVVVVVVVVVVVVVVVVVVVVVVVVVVVVVVVVVVVVVVVVVVVVVVVVVVVVVVVV",
"VVVVVVVVVVVVVVVVVVVVVVVVVVVVVVVVVVVVVVVVVVVVVVVVVVVVVVVVVVVVVVVV",
"VVVVVVVVVVVVVVVVVVVVVVVVVVVVVVVVVVVVVVVVVVVVVVVVVVVVVVVVVVVVVVVV",
"777777ugggg7777777777777777uKKKKqqqqnxnnx777777777777777777777ZV",
"qqqqqqqzzzzqqqqqqqqqqqqqqqqqKKKG0000mmmmcqqqqqqqqqqqqqqqqqqqqqDV",
"qqqqqqqzzzzqqqqqqqqqqqqqqqqqKKKG0000mbbmcqqqqqqqqqqqqqqqqqqqqqDV",
"qqqqqqqzzzzqqqqqqqqqqqqqqqqqKKKG0000mmmmzqqqqqqqqqqqqqqqqqqqqqFV",
"qqqqqqqzzzzqqqqqqqqqqqqqqqqqKKKG0000mmbmzqqqqqqqqqqqqqqqqqqqqqDV",
"qq----------------------OOOOKKKKqqqq--------------------------SV",
"qq----------------------OOOOKKKKqqqq--------------------------BV",
"qq----------------------OOOOKKKKqqqq--------------------------SV",
"qq----------------------OOOOKKKKqqqq--------------------------VV",
"qqOOOOO---------------------KKKKqqqq--------------------------AV",
"qqOOOOO---------------------KKKKqqqq--------------------------AV",
"qqOOOOO---------------------KKKKqqqq--------------------------BV",
"qqOOOOO---------------------KKKKqqqq--------------------------VV",
"rr####*>>>>>>>>>>>>>>>>>>>>>KKKKrrrr;;;;;;;;;;;;;;;;;;;;;;;;;;VV",
"VVVVVVVVVVVVVVVVVVVVVVVVVVVVVVDDVVVVVVVVVVVVVVVVVVVVVVVVVVVVVVVV"
};
