/* XPM */
static char *result[] = {
/* columns rows colors chars-per-pixel */
"80 80 68 1 ",
"  c #1E5652",
". c #1F5652",
"X c #1E5752",
"o c #1F5752",
"O c #1E5653",
"+ c #1F5753",
"@ c #2E5E50",
"# c #2F5E50",
"$ c #2E5F50",
"% c #2F5F50",
"& c #2E5E51",
"* c #2F5E51",
"= c #2E5F51",
"- c #2F5F51",
"; c #287066",
": c #297066",
"> c #287166",
", c #297166",
"< c #287067",
"1 c #297067",
"2 c #287167",
"3 c #297167",
"4 c #388282",
"5 c #398282",
"6 c #388382",
"7 c #398382",
"8 c #388283",
"9 c #398283",
"0 c #388383",
"q c #398383",
"w c #308C8C",
"e c #318C8C",
"r c #308D8C",
"t c #318D8C",
"y c #308C8D",
"u c #318C8D",
"i c #308D8D",
"p c #318D8D",
"a c #3A8E8C",
"s c #3B8E8C",
"d c #3A8F8C",
"f c #3B8F8C",
"g c #3A8E8D",
"h c #3B8E8D",
"j c #3A8F8D",
"k c #3B8F8D",
"l c #36948E",
"z c #37948E",
"x c #36958E",
"c c #37958E",
"v c #36948F",
"b c #37948F",
"n c #37958F",
"m c #369C90",
"M c #369D90",
"N c #379D90",
"B c #369C91",
"V c #379C91",
"C c #369D91",
"Z c #379D91",
"A c #3A9896",
"S c #3B9896",
"D c #3A9996",
"F c #3B9996",
"G c #3A9897",
"H c #3B9897",
"J c #3A9997",
"K c #3B9997",
/* pixels */
"trtttKKKKKHKKHKeweeelllllttttttttrttttttllzllzzzzzlllllDJJJJHHHHASFSSSrrrrrlxlll",
"tttttKKKKHKKHJKeeewelllllttttttrttrtttttclvllzzzczlllllJJJJJHKKHHSSHSSrrrrrzllll",
"tttttKKJKKKKHJKeeeeelxllztttrtttttttttttlllllzzzzzlllllJJJJJHKGHHSSSSSrrrrrvllxl",
"wttttKKKKKKKKKKeeeeelllllttttttttttttttevllllzzzzclllvvDJJJJHHHHHSSSSSrrrrrlllll",
"tttteKKKKKKKKKHweeeellllzrtttttttttttrttllllzzzzzzllxllJGJJGHHHHHHSSSSrrrrivlvll",
"ttttpsssssgggggaaahaggggg55555aaaaa66666ZZNZZ7777775757hhhhhggggggggggdadddttttt",
"tttttsssssggaggadaahggggg55555addaa06666ZZNCZq775777777hhhhhgaggggggggdfdddttttt",
"tttttssssshggggdaaaaggggg85555adaaa66666ZZZZZ7777776777hhhhkjgjgggggggfddfdttett",
"tttttsssssjgggdaaaasjgggg55555daaaa66466NNZZZ7777677777hghhhgghgggggggdddddttttt",
"tttrtfsgshggjggaaaaaggggg45555aaaaa46660ZZZZZ7777777777hhhhhggggggggggdsddfttttt",
"tttttgggdg+++++oooXo$$$$$#*-**13113@$%$$,:,,,;;;>;<<21<;;;>:-----==$$=BBBBBJKKKK",
"tttttgahgg++X++ooooo$$$=$*****11111$$$$$,,,,,;;;;><<<<<;;;;;-=---=====BBBBmKKSKK",
"rttttggggg+++++o+ooo$$$$=*****11111@$$&$,,,,,;;;;<<<<<<;;;;;--=--$====BCBBBKKKKK",
"tttptgghgh+++++ooooo$$$$$***&*11111$=$$$,,,,,;;;:;<<<<<;;;;;---=======VBmBBKKKKK",
"ttuttgghga+++++ooooo$$$$$*****1111:$$$$$,,,,,;;;;;<<<<<><;;;--=--==&=$BBBBBKKKKK",
"tetttsssssoooooCCCCCBBBVBaaaaajjgjjfffffaagaa55555aaaaaaaaaajjjjj=====shssseeeee",
"tttttsssssoo.ooCCCCCBBBBBaaaaajjjjjffksfsadaa55555asaaaagaaajkjjj=-===ssssseeeee",
"ttttthssssoo.ooCCCMCBBBBBaaaaagjjjjfffffagaaa55555aaadaaddaajjjjj=====ssssseeeeu",
"ettttsssssoooo.CCCCZBBBmBaaaaajjjjgsffdfaaaga55555asaaaaaaagjjjjj=====shssseeeee",
"tttttshsssoooooCCCCBBBBBBaaaaajjjjjfffffaaaaa55555aaaagaaaaajjgdk=====sssaseeeee",
"ttttrq7777$----kffkk777778888077767666667777746844qqqqq77977sssss>>>>;7qq77uuueu",
"ttttt67777---%-kkkkk576774888877777676665777754444qq7qq77577ssahs>>>>>74777uuuuu",
"ttttt57777=----fkjkh777770888877777666667767644444qqqqq77777sasss,>>>>77777uuuuu",
"ttttt57777--%-%kkkkk777779888877777676667777744444q0qqq77777sssss>>>;>77777uuuuu",
"trttt7777q---*-kkkkk777778888877q7766666q777744446qqq0q77777sssss>>>>277777uyuuu",
"lzlllaaaaa1<111daaaa77777=====&&&&&22222111>1====-&&@&&77777aagda&$&&=77777KKKKK",
"lllllaaaas11111aaaaa77757=====&&=&*<222211111=====&&&&&77477aaaaa&&&&&77q77KKKKK",
"lllllaaaaa11111sasaa77777=====&&&&&22>2213111==$=&@&&&&55777aaaaa@&&&&77777KKKKK",
"lllllaaaaa31111saaaa77777=====&&&&*2222211111=====&&&&&77677aaaaa&&&&&77777KKKKK",
"lllllaasaa11111aaaad77777-$$==&@&-&2222211111=====&&&&&77777aaaaa&&&&*77777KKKKK",
"rtttw66666#####9999977777ooooX77776qqqqq74677qqqqq=====6666600000=====assssGGGGG",
"ttttt66666#####9999977777ooooo77777qqqqq77777qqqqq=====6666600080=====sssssGGGGG",
"ttutt66666#*#*#999996q776ooooo77777qqqqq77777qqqqq=====6666600000$=-==sssssGGGGG",
"ttttt66666#####9999977576ooooo77q70qqqqq77777qqqq9=====6666600000=====sssasJAGGG",
"tettp66066#####9999977777oooXo77777qqqq077757q0qqq=====7066660000$====fssssGGAGG",
"ttett7777711111ssfss55555$$$$$q79qq;<;;;1111144444<1<<<76777saasa2313377777FFFFF",
"rtttt7777711111ssssh55555$$$$@q6qqq;;;;;1111148444<<<<<77757aadaa3333367777FFFFF",
"ttttt7767711111ssssa55545$$$$$qqqqq;;:;>1131164448<<<<<77777aagsa333,377577FDFKK",
"ttttt7777711:11assss55555$$$$$qqqqq;>;;<11111644442;<<<77777aasaa3333377777FDFFF",
"ttttt777771111:sssss55555$$=$=qqqqq;;;;;1111144444<<<<<77775aaaaa133,<77777DFFFF",
"rtrtt77777<;;;;aasaa77777====$64444<<<<<-----qqqqq@&&&&45555daaaa=====74777uuuuu",
"ttttt7q777;;;;;aaaaa77777==$==44444<<<<1%----qq5qq&&&&&55555aaaaa$====77777uuupu",
"ttttt67777;;;;;aaaaa77777==$=&44444<<<<<-----qqqqq&&*&&55555aaaaa=====77767uuuuu",
"rtttt77767;;;;;daaaa77777=====444441<<<<-----qq7qq&&=&&55555gasaa=====77777puuuu",
"ttttt77077;;;;;aaada7777q=-===444441<<<;-#-&*qq7qq&&*&&55555aagaa=====77777yuuuu",
"ttttt7774722<22ggaga95555=====66666777775559564666222226666666666=====00000ccccc",
"ttttt777q522222aaaaa55557&====66666777775575566666222226666666676=====00000cnncc",
"tttrt7777722222aaaaa95795==$==66666777775545566666222226766666666$====00000ccccc",
"ttttt77q7722222aaaaa55555===-=66667777775555566666222325666646060===-=00000zcccc",
"tettt7777732222aaaaa55555==$==66666577775555566666222226666466666=====00000ccccc",
"KKKKK55555&&&&&aaaaa77757&=&$&$$$$$ O  O=====222221111177777saaaa<2<<<64666xxxxx",
"KKKKK55455&&&&&aaaaa77577&&&&&$$%%@   . =&===22>3;1111177777aaaaa<<<<<66666xxxxx",
"KKKKK57555&&*&&aaaaa77777&&&&*$$$$$     =====22>231111177777aaaaa;<<<<66766xxxxx",
"KKKKJ55555&@=&&aaaaa76777&&&@&$$$$$XOX  =====222221111177775aaaag<<1<<66646xxxxx",
"KKKKK55555&&&@&aaaaa77777&&&*&@$$$$O    =====22222111117777qaaaaa<<<<<66606xxlxx",
"puuuu99999<<<<;dffddq7qqq66606607665777777777777777777777777ggggg=====77777llzll",
"uuuuu99999<<<<<dddddqqqqq6666646466777777776777777775q777777ggggg==$==77677lzlll",
"uupuu999991<<<<dddddqqqqq6660666666777777777q777776777657777ggggg====$77677vllll",
"uuyuu99999<<<<<sddddqqqqq66666666667777777777577777777777767ggggg=====77777lllzb",
"euuue99995;;<<<dddddqqqqq6664666660q7777777777777777q7777777ggggg===$=77q77lllll",
"ettttsssds<<<<<dddddsssss77777aaaaaaggggaasgadaaaaadaagCCCCCgaaaa====-q7577rrrrt",
"ttrttassss<<<<<dddddsssss77777aaaaagghggaaaadasgasaaaaaCCCCCaaaaa=====77777rrrrr",
"tttwtssssf<<<<<ddfddsssss77779aaaaagggagaaaaaaasaaaaaaaCCCCCaaafa&====77777rrrrr",
"tttttsssss<<1<<dddddssssf77777aasaagggjgaaaaaagaaaaaaaaCCCZCaaaaa-===-77777rrrir",
"tttttsssss<<<<<dddddsssss77q77agaaagggggaaaaaaaaaaaaadaCCCCCaaaaa=====77777rrrrr",
"tppttaaaad<;<<<=====33333====-=====#*&**=====------=-=*&=&&========-==sssfsppppi",
"tttttagaas;<<<2=====31313=-========*****=====---*------&&&&&=====-====ssssspippp",
"tttttaaaga<<<<<=====33333===&======*****=====-----%--=-&&&&&=&-====-==sahssppppp",
"tttttaaaad<<<<;=====33333=$========*-***=====-----=----&&=-@=======$==hssssipppp",
"tttttaaaaa<<<<<=====33333=====&==@=****-=====----=-----&&@&&=========$sssssppppp",
"tttptgghggaaadadddddqqqqq76666sssss58998qqqqqCCCCC9999999999hhhhhaaaaaaaadaHHHHH",
"ttptpggghgaaaaaadddjqqqqq60666assss99999qqqqqCCCCC9999999999hhhhhgaaaaaaaaaHHHHS",
"trtttgggggaaaaaddfddqqqqq66666sssss999599q9qqBCCCCq999999999hhkhhaaaaaaagaaHHHHH",
"ttttwgggggagaaadddddqqqqq66666sssss99999qqqqqZCCCC9995999999hhhhhaaaadaaagaGHHHH",
"tttttgggjgaaaaafddddqqqqq76666sssss99q99qqqqqCCCCC9999999998hhhhhaaadaagaaaHHHHH",
"ttttttttttKKKKKeeeetuuuuuiiiiipppupttttttttpetetttrrrrrutppptertrpppppppppptttte",
"ttttttttttKKKKKeeteeyueuuyiiiipppputttptttttttttttrrrrrppppptttttpppptpppeptetpt",
"ttttttttttKKJKKeeeeeueuuuyiiiippuppettptttrpttttttrrrrrpptpptrtttppppipppipttttt",
"ttttttttptKKKKKeeeeuuuuuuiiyiippppptptttttttttttttrrrrippppttttttpppuppppppttttt",
"ttttptttttKKKKKeeeeeuuuuuiiiiippppttttttttttttttttrrrrippppptttttpppppuppppttttt"
};
