/* XPM */
static char *result[] = {
/* columns rows colors chars-per-pixel */
"80 80 77 1 ",
"  c #113834",
". c #103835",
"X c #113835",
"o c #103935",
"O c #113935",
"+ c #483F50",
"@ c #493F50",
"# c #483F51",
"$ c #493F51",
"% c #1E5652",
"& c #1F5652",
"* c #1E5752",
"= c #1F5752",
"- c #1E5653",
"; c #1F5653",
": c #1E5753",
"> c #1F5753",
", c #2E5E50",
"< c #2F5E50",
"1 c #2E5F50",
"2 c #2F5F50",
"3 c #2E5E51",
"4 c #2F5E51",
"5 c #2E5F51",
"6 c #2F5F51",
"7 c #287066",
"8 c #297066",
"9 c #287166",
"0 c #297166",
"q c #287067",
"w c #297067",
"e c #287167",
"r c #297167",
"t c #5F586A",
"y c #5E596A",
"u c #5F596A",
"i c #5F596B",
"p c #388282",
"a c #398282",
"s c #388382",
"d c #398382",
"f c #388283",
"g c #398283",
"h c #388383",
"j c #398383",
"k c #3A8E8C",
"l c #3B8E8C",
"z c #3A8F8C",
"x c #3B8F8C",
"c c #3A8E8D",
"v c #3B8E8D",
"b c #3A8F8D",
"n c #3B8F8D",
"m c #269894",
"M c #279894",
"N c #269994",
"B c #279994",
"V c #269895",
"C c #279895",
"Z c #269995",
"A c #279995",
"S c #22B49E",
"D c #23B49E",
"F c #22B59E",
"G c #23B59E",
"H c #22B49F",
"J c #23B49F",
"K c #22B59F",
"L c #23B59F",
"P c #24A6AC",
"I c #25A6AC",
"U c #24A7AC",
"Y c #25A7AC",
"T c #24A6AD",
"R c #25A6AD",
"E c #24A7AD",
"W c #25A7AD",
/* pixels */
"$$$$$sssssDDDDSWWWWW;;-;;77777BBBBB22222qqqqqeeeee=====X XXXXXXXXOO OX53555=&===",
"$$$$$dssssDDDDDWWWRW;;;;;77977BBBMB22122qqqqqqeeee==*=*XXXXXXXXXXOXOOO55565====>",
"$$$$$sshshSDDDDYWWRW;;-;;79777BBBBB22222qqqqqeeeee===>*XXXXXXXXXXOOOOO55555====&",
"#$$$$sspdsDDDJDWWWWW;;;;>777q7BBBBB22622qqqqq99eee=&===XXXXO.XXXXOOOOo51555>==&=",
"$@$$$sssssJSDDDWWWWW;;;;;77777BBBBB622<2wqqqq9eeee====*XXXXXX.XXXOOOOO55515=====",
"kkklkFKKKKqqqqqw88w8CCCCCABAAB6666633333dddddaaaaaqqqqq====>&&&&&wwwwwaddds===*=",
"kkckkKKKKK7qqqq88888CCCCCAAACZ6666633333ddddsaaaagq7qqq==&==;&&&&rwwwwddddd&====",
"kkkkkKKKKHqqqqq88888CCCMCAAZCB6666533343addjdaaaaaqqqqq====>&&&=&wwwwwddddd=====",
"kkkkkKKKKKqqqqq87888CCCVCAAAAA6666633333dddddaaaaaqq7qq=====&&&&&wwwwwjddds==>==",
"xkkkkKKKKKqqqqq98888CCCCCAAAAA6666634333dddddaaaaaqqqqq=====&&&&&wwqwwdsddd=====",
"FFFFFwrwwwqqqqqwwwwr=====55555hssss66666lllllzkkkk0r800=====eeqeeccccckkkkk==;*=",
"FFFFFwwwwweqqqqwwwww=====55565spsss65666llxllkkkkk00000=&===e9eeeccccckkkkc=====",
"FFFFFwwwwwqwqqqwwwww>====55555psdhs66666lllllkkkkk90000=*===eeeeecbcbckkkkc=====",
"FFGKFwwwwwqqqqqwwqww=====55551sssss66666lkllvkkklk08000=====eeeeebcccckckkk=====",
"FFFFFwwwwwqqqqwrwwww==&&=55555ssssh66666lllllkkkkk00000====&eeeeeccccckkckk=====",
"HHHHHr0rrrdsppsjjdjj=====aaaaaddddd66622lllllkkkkk7eqqq&&&&&rrrrrklkkklllll15555",
"HHJHHrrrrrsssssjjjjj=&===paaaadddsd66666lllllkkkkkwqqqe&&&&&rrrrrkkkkklllll55355",
"HHHHHwrrrrsspssjjjhj=====daaaaddddd66666lllllkckkkqqqqq&&&&&rrrrrkkkkllllll55555",
"HHHHHrwrrrpssssjjjjj=%===adpaaddddd66666lllllkkkkkqqqqq&&=&&rwrrrkzkkklllll55555",
"HHHHHrrrr0shdssjjjjg====>aaagaddddd66626lllllckkkkqqqqq&&&&&rrrrrkkckklllll55555",
"FFFFFddddakkkkkbbbbc====>qqq7qeeeee66266kkkckkkkkk99999****%eeeeepppppaaaaa,,,,,",
"FFFFFdddddkkkkkbbbcb=&:==9qqq7eeeee66666kzkkkkkklk99999*****ereeeppfppaaaaa,,,,,",
"FFFFFdddddlkkkkbbbbb=====qqqqqe9wee66666kkkkkkklkk99999*%***eeeeeppsppaaapa,,,<,",
"FFFFFdddddkkkzcbnbbb==>==qqqweeeree66626kkkkkkkkkke0999*****eeeewpppapaaaaa,,,,,",
"FFSFKdddsdkkkkkbbbbb=====qqqqqreeee66666kkkkkkkkkk99999****=eeeeeappppaaaaa,,,,,",
"PPPPPdddddccckvxzzzz*****sssssddddd11111sssssjjdfjqrqqq;:>:>KKKHKFFFSFsssssqwwqq",
"PPPPPdddddvcccczzzzz**=**sssssddddd,1111sssssjjjjjqqqeq>>>>>HKKKKGFFFFpssssqqqqq",
"PPPPPdddjdccckczzxzz=*%:*ssshsjdddd,1111shsssjjjjjqqqqq>>>>>KKKHKFKFFFsssssqqw7q",
"PPPPIddddsbkccczbkzz*****sssssdjdjd12111ssssdjjjjjqqqqq>>>>>KLKKFFFFFFsssssqqqqw",
"PPPPPddddsccccvzzzzz**:**sdsssddddd11111sshssjjjjjqqeqq>=>>;SKKKKFFFFFsssssqqqqq",
"EEEEEddddddddddwwwww====*zzzzzbnbbb11111daaaaddddd11111SSSSS88888wwwwwEEEEEhshfh",
"EEEUEdddddddaddwww8w==*==zzzzzbbbbb1,,11apadaddddd11131SSSSS88888wwwwwUEEEEhhhhh",
"EEEEEddddddjdddwwwrw==*==zzzzzbbbbb51111aaaaaddddd11111SSSSS08880wwwwwEEEEEhhhhh",
"EEETEdhsdjdadddwwwqw=====zxzzzbbbnb11111aaaaddddjd111,2SSDSS888888wwwwEEEEEhhhhh",
"EEEEEddddddddddwwwww=====bzzzzcbbbb11111aaaaaddddd11111SHSSS88888wwwwwEEEEEhhhhh",
"klkkzqq7qqEEEEEEETEE*****zzzzzkkkkk4446499990rrrrrFFFFF&&&&&56555&====*****22221",
"kkkckqqqqqEEEEEEEEET*****zzzzzkkkkk4444399e09rrrrrFFFFK%&&&%55356=====*****22222",
"kkkkkqqq7qUTEEEEEEEE*****zzzzzkkckk4464499999rrrrrFFFFF&&&&&55553>====%****22222",
"kkkkkqqqqqEEEEEEEEWE***=%zzbkbkckkk4444499999rrr8rFFFFF&-;&&55555=====*****22222",
"zzkkkqqeqqEEEEEEETWE*****zzzzzkkkkk4444499999rrerrFGGFF=&&&%55555======****22622",
"UUUUUDGDGLjjjjjeeeeeGGGGGqqqqqddddd66662qqqqq55615YYYYY&;&;&99999qqqqqdddddwww8w",
"UUUUPGGGGGhajjje9eeeGDGGGqqqqqddddd66662qeqqe55555YYYYY&&&&&97999qqqqqdddsdwwwwq",
"UUUUUGGGGGjjjjjeeeeeGFGGGqqqqqddddd66666qqqqq55355YYYYY&&&&&99999qqqqqddddswwwww",
"UUUUUGGGGGjhjhjeqeeeGDLGGwqwqqddjdj66666qqqqq55555YYYUW&&&&&90799qqqqqdddddwwwww",
"UYUUUGGGDDjjjdjeeeeeGGGGGqqqqqddadd66666qqqqq55155YYYYY&&&%&99997qqqqqdddddwwwww",
"jjjjjqqqqq5555565555FFFFFqeeeeeereeqqqqe5555555355NNNNN:>>>>77778fffgfadddjeeeee",
"jjjgjqe7qq5555155555GFFFFeeeeeeeeeeqqqqq5555555565NNNNN>;>>>77779fffffddjddreeee",
"jjjjjeqqqq5555555556FFSFFeqeeeeeeeeqqqqq5,55555535NNNNN>;>>>77777fffffdddddeeeee",
"jjjjjwqqqq5565555555FFFFFeereeeeeeeqqwqq5555535655ANNNN>>>>>77777fffffdddddeee9e",
"jjjjjeqqqq5555555555KFFFFe9e9eeeeeeqqqeq5555355555NNNNN>>>>>77777fffffdddddeeeee",
"uuuui22222w88wwqqqqq=====FFFFFGGGGG7977755555BBBBB%%%%%&&&&&11111FFFFFEEEEE33333",
"uyuuu22222wrwwwqeqqq==**=FFFGFFGGFG7877755555BBABB%%&%%&&;&&11111FFFFFEEEEE33333",
"uuuut222228wwwwqqqqq=====FKFFGDGGGG7777755555BBMBB%%%%%&%&&&11111FKFFFEEEEE33333",
"uuuuu62222wrw8wqqqqq=====FFFFFGGGGG7777755555BMABB%&%%%;&&;&11111FSFFFEEEEW53353",
"uuuuy22262wwwrwq7qqq=====FKFFFGGLGG7777756155BBBBB%-%%%&;&&&11111FFFKFWEEEE33333",
"+++++eeeeqqqqqqreeee===>===========TTTTRBBmBB==>==55555>>>:>JHHHHw8www33333IIIII",
"+++++ereeeqqqqqeeeer===&=========&=TTTTTBMBCM*====555,5;>>>>HHSHHwwwqw33533IIIII",
"+++++eeeeeqq8qweeeee=====&=========TTTTTNBBMB===;=55555>>>>:HHHHHwwwww33333IIIII",
"++@++eeeerqqqqqeeeee=======>=======ITTTTBBBBB===&=55515>>>>>HHHHHwwwww33433IIIII",
"+++@+eeeeeqqqq7eeeee======>======%=TTTTTBBMBB==*>=55555=>>>>HHHHHww7ww53333IIIII",
"bbbbcsdddajjjjjssdss&&&%&3333355555=====55555wwwwweeere=====EEEEE111118wwww97778",
"nbbbbdddddjjjjjsspss&&=&&3433355555==>==55555wwwwweeeee=:=>=EETEE11111wwwww77777",
"bbbbbddddajjjjjsssss&&&=&,333355655=====555558wwwweeeee=====WEEEE11211wwwww87777",
"bbbnbdjsddjjjjjsssss&&&&&3333355555=====55555wwwwweeeee=====EEEEE11111www8w77777",
"bczzbdddddjjjjjsssss&&>&&5333355155=====55555wwwwweeeee=====EEEEE11111wwwww77877",
"WWWWWcccccssssshhhhh&&&&&dddddddddd77777sddddqqqqqMMMMMEEEEE55555eeeeeddddd----;",
"WWWWWkvcccsssspjhfhh&&&-&dddaddjdsd77777ddaddqqqqqMMMMMEEETE55545eeqeedsadd---->",
"WWWWWvccccdsssshhhhh&&&&&dddjdddddd77777dddddqqwqqMBMMMEEWEE55655eeeeeddddd-----",
"WWWRWcccccssssshhhjh;&;&&ddjddddadd77797djdddqqqqqMMCMMEEEEE55556eeeeeddddd-%---",
"WWWWEccckcssssshhhhh&&&&&ddddddddad79777dddadwqqqqMMMMMUEEEE55565eeeeeddddd-----",
"WWWWYkkkkkccccckkkkk=====dddddaaddaqq7qraadaaMMMCM777q7=====qqqqqaaadajjjjj:::::",
"WWWWYkkkkkvkccckzkck=====sddsdaaaaaqqqqqaagadMMMMM77777=====qqqqqagaaadjjjj:::-:",
"WWWWWkckkkccccckckkk=>===ddddsaaaaaqqqqqaaaaamMMMM77777>====qqqqqaaaaajjjfj:::::",
"WWWWWkklkkcvkcvkklkk=====ddddsdpaaaqqqqqaaaaaMMMMM777q7====*qqqwqagapajjjjj::*::",
"WWWWWkkkkkckccckcckk=>===dddddaaaaaqqqqqaaaaaMMMMB77777*====qqqe7gaaaajjjjj:>:::",
"wwwww&&&&&*****qqqq7***=*qqqqq;&&&&**********qqqw733433***=*66656&&&&=;---->>>>>",
"8wwww&&&;&***=*qqqqq*****qqqqq&&&&&*=********qqqqq33333=****66666&&&&&----->>>>>",
"wwwww&&&&&***=*qwqeq**%**qeqqq&&&=;**********q7qqq35333*****66564&&%&&-----;>:>>",
"8www8&&&&&***>=qqqqq*****qqwqq=&&&&****=*****qqqqq34333***=*66666&&&&&-:---:>>>>",
"8wqww&&&&&***%*wqqqq%=%**wqqqq&&&&&**********qqqqq33333*****66666&&&&&---;->>>>>"
};
