/* XPM */
static char *result[] = {
/* columns rows colors chars-per-pixel */
"80 80 56 1 ",
"  c #103834",
". c #113834",
"X c #103934",
"o c #113934",
"O c #103835",
"+ c #113835",
"@ c #103935",
"# c #113935",
"$ c #1E4240",
"% c #1F4240",
"& c #1E4340",
"* c #1F4340",
"= c #1E4241",
"- c #1F4241",
"; c #1E4341",
": c #1F4341",
"> c #1E5652",
", c #1F5652",
"< c #1E5752",
"1 c #1F5752",
"2 c #1E5653",
"3 c #1F5653",
"4 c #1E5753",
"5 c #1F5753",
"6 c #2E5E50",
"7 c #2F5E50",
"8 c #2E5F50",
"9 c #2F5F50",
"0 c #2E5E51",
"q c #2F5E51",
"w c #2E5F51",
"e c #2F5F51",
"r c #287066",
"t c #297066",
"y c #287166",
"u c #297166",
"i c #287067",
"p c #297067",
"a c #287167",
"s c #297167",
"d c #388282",
"f c #398282",
"g c #388382",
"h c #398382",
"j c #388283",
"k c #398283",
"l c #388383",
"z c #398383",
"x c #3A8E8C",
"c c #3B8E8C",
"v c #3A8F8C",
"b c #3B8F8C",
"n c #3A8E8D",
"m c #3B8E8D",
"M c #3A8F8D",
"N c #3B8F8D",
/* pixels */
"hhhhhaaaaahhhhfbbbcvcccccxxxxxxxxxxccccxzzzzzvxxxxxxvxxmmmmmxxxxxmcmmmfffff,3,1,",
"hhhhhaaaaahzfhhbbbbbcccccxxxxvxxxxxccccczhkzzxxxxxxvxmxmmmmmxxxxnmmmmmffkfd,,,,,",
"hhhghaaaaahhhhfbbbvbcxcbxxxxxxxxcxxccccbzzzzzxxxvxvxxxxmmmmmxxxxxmmmmmdfffk,,,,,",
"hhhhhaaaaahhhhhbbbbbcccccxxxxxxxcxxmcmcczzzlzxxvnnxnncxmmmmmxxxxxmmmmmfffff,,,,,",
"hhghhaasaahhhhhbNbbbbccbcxxxxxxxvxxccccczzzzzxxxxxvxxxxmmmmmxxxxxnNmmmfdfff,,,>,",
"hhghhfhfffaaaaaiiiii1111188888yyryyfffffhfhhhzzzzzuuutuipppshhhhhgggghwwww888w88",
"hhhhhfffffaaaaariiia1<111w8886yyyyykffffhhhhhkzlzzuuuuuptppphhghhggggg8wwww88888",
"hhhhfkhfffaaaaariiii111,168896yyyyyhhkffhhhhzzzzlzuuuuuppppphhhhhgggggwewee88688",
"hhhhhfffffaaaaapiiii1<1,588888yyyyyfffffhzhhhzlzzzuutuuppisphhhfhgggggwwwww88888",
"ghhhhfkfffaaaaaipiii1511188888yyysyfffdfhhhhhzzzzzuuutuppppphhkhhgdgggwwwww8w888",
"iiiiifffffggdgggggggrrrrrgggdgyyyyywwwww00000ewwwwqqqqqiiiriiiiiiljlllkkkkz,1111",
"iiiiifffffggggggggggirryrgggggyuyyy8wwww00q00ww0wwqqqqqiaiiiiiiiigllllkkjkk11111",
"iiriihfhkfggggggggggrrrrrgggggyyyyywwwww00000wwwwwqqqeqiiiiiiiiiilllljkkkfk111<,",
"iiiiifffffgglgdgggggrrryrgggggyyyuywwwww66000wwww8qeqq6iiiriiiiitlllllkkkkk<1111",
"iiiiifffffgggggghgggrrrrrggglgytyrywwwww00000wwwwwqqqqqiipiiiiiiilllllkfkkk11111",
"11111&$&;&****:1115155551*****++++++++++&$&&&:*:::+++++*&***#+++++++++&&&&&+++++",
"11111&&&&&*****1111155555*****++++++++++&&&&&::::-++++.*****++++++++++&&&&&#++++",
"11111&&&&&*&**&1111155555%&:**++O+++++++&*&&&:::::+++++*****++++++++++&&&;&+++++",
"<1111&&&&&****%1111155555:****+.++#+++++;$&&&::*::++++#;****+++O++++++&&&&&+++++",
"11111*&*&&*****1111555555*****+++++.++++&&&&&:::;:+++++*****.+++++++++&;&$&+++++",
"hhhggcccxmeeeeeccccbxxxxxxxxxxccccceeeeevvxbvxxxxxNNNNNzlzzkaaaaaiiiiieqeeehhhgh",
"hhhhhcccccqeeeecccccxxxxxcxnvxccccceeeeevvvMvxxncxNNbNNzzzzzaaaaaiiiiiweeeehfhhh",
"hhhhhccccceeeeecccccxxxxxxcxxvccccceeeeevxvMvxxxxxNNNNNzfzzzaaiaaiiriieeeeehhghh",
"hhghfxcccceeeeemcccbxxxxxnxnxxccxcceeeeevvvvvMxcxxNNNNNzzzzzsaaiiiiiiieeeewhhhhh",
"hhghhcccmceeeewnmcxcxxxxxxxxcxccxcceeeeebvvbvvxxxxNcNNNlkzzzaasaaiiiiieeeeeghhzh",
"iiiiigggggfhfffiiiii00000iiiiieeeee1111199999iiiiissssshhhhhdddjdffhffhhhhhiiiir",
"iiiaihgghhfffhfiiiii00000aiiireeeee11111e9999ipiiissssshhhhhdddddfffffhhhhhiiiii",
"iaiiigggglfffffiiiii00000iiiiiee9ee11111e9999iiiiissssshhhhhdddddfhffhhhhhhiiiii",
"iiiipgggggfdhffiiiii06000iiiiieeqee<111199999ipiiissssshzhhfdddfdfffkfhhhhhapiii",
"iriiiggggggffffiiiii06000iiiaieeeee1111,79999riiiissssshhhhhddddghffffhfhzhiiiii",
"9eee9eeeeepppppggdggrrrrraaasaiiiii,,,,1zzzzzhhhhdhhhhhiiiiirrrri6666600000wwwww",
"eeeeeeeeeepppppgggggrrrrraaaaairaii3,,,,jzzzzhhhhhhhhhhiiiiirrrrr6660600000wweww",
"eeeeee9eeepppspgggggrrrrraaaaaiiiii,,,,,zzzzlhhhhhhhhhhiiiirrrrrr6660600000wwwww",
"eee9eeeeeepppppgggggrirrraaaaaiiaii,,,,,zzzzzhfhhhhhhhhiiiiirrrrr6666660000wwwww",
"eeee9ee9e9pppppgggggrrriraayaiiiiii,,,,,zzzzjhhhhhhhhhhiiiiirrrry6660660000wwwww",
".+O++     ;;;;;:::::11111;;;;;#####    O+++++#####;;;;;*****&&&&&55555*****ooooo",
"+++++     ;;;;;:::::11111;;;;;#####     ++O++#####;;;;;***&*&&;&&51355****:ooooo",
".++++     ;;;;::::::11111;;;;;++###     ++.++#####;;;;;*****&&&&&55555*****oooo.",
"+O+++  X  ;;;;;::::-11111;;;;;#####     +++++#####;;;;;%**%*&&&&$55555*****ooooo",
"+++++     ;;&;;:-:::11<11;;;;;#####    @.+.++##@+#;;;;;:****&&&&&55551*****o.ooo",
"hhhzhnnmnnxxxxxhfhhhrryrryyyyybbbbbcbcxcxxxxxxvxxnxxxxxccxccvxxxxxxvxxhhhghwwwww",
"hzhhznnmnnxxxxxhfhhhrrrrrytyyybbbvbbccxcxxxxxxxxxxxnxxxcccccxnxnxxxxxxhzhhzwwe8w",
"hhhhhnMnnmxxxxvhhhhhrurrryyyyybbbcccccccxxxxxmxxxxxxxxncxcccxxxxxxxxxxhhhhhw0www",
"hhhhhnnMnnxcvxnhhghzrrrtryyyyybbbbccccccxxxxxxxxxxxxxxxcccbcxxxxxxxxnxhhhhzewwww",
"hhhhhnnnnnxxxxxhhhhhrrriryryyybNbbmcccxcbxxnxxxxvxxxxxxcvccbxxxxxxxxxxhzhhhwwwww",
"hhhhhrrrrrjjjjjlllllgggggkkkkkrityr88888000q08888wiriii66666irrir000q08888633333",
"hhzhgrrrrrjjjkjlllllgggggkkkkkyrrrr888880000088888iaiii66666yrrrr006008808833333",
"hhhhhrrryrjjjjjlllllgggggkkkkkrrrtr886880q00088w98rryii66666irrir000ww8888833333",
"hhhhhrrrrrdjjjjlljllldgggkkfzkrtrrr889880000088688iiiri68q66tryrr000008888835333",
"hhhfhrrrrrjlljjllllllgglgkfkkkrtrrr888880000088888ipiii66666rrrrr00000898w933333",
"vvvvvgggggaiiiiiiiiiq00608988866666eeeeeiiiiituuuuppippsssps0000077777zzhzzwwwww",
"vvvvvgggggiiiiiiiiyi00000888w866666eeeeeiiiiiuttuupppppsssas006q077777zhzzzwww8w",
"vvbbvggfggiiiiiiiiiiw00008889866668eeeeeiipiiuuuuuipprssssss00000777q7zzzzzwwwww",
"vxvvvgggggiiiiiiiiii0000q8888866666eeweeiiiiauuuuyppippsssss6000077767zzzzzwwwww",
"vvvvvgggggiiiiiiiiii000008888866660eeeeeiriiiusuyspppppsssss0000097797zzzzzwqwww",
"X@@@@#####%%%%%5455511,11%%*%%..........##o##-----,,,,,&$$$$;;;;;O@OOO     ....o",
"@@@@@#####%%%%%5555511111*%%%%.+........#+o##-----,,,,,$$$$$;;;;;O O+OX    .....",
"@@#@O#####%%%%-5555511111%%*%%X..o......o#+##-----,,,,,$$&$$;;;;;OOOOO    X.....",
"@@@@@#####%%%%%5555511111%%%%*....+.....####@%----,,,,,$$$$$;;;;;OOOOO     .. .O",
"@@@@@#####%%%%%5555511111-%%%*.. +......o##@#----%,1,,,$$$&&;;;&:OO@OO     .....",
"ccccceeeeqhghhhxxxxxnnnnnzzzzzlllll06q00xxxcxxxxcxxxxxx99979mcxcclggggcxxxxvxxxn",
"ccccneeeeezghhhxnxvxnncnnzdzzzzllll00000xxxxxnxxxxxxxxx999q9cccccghgggxxxxxxxvxn",
"ccccceeeeehhhhhxxxxxmnnnnzzzzzlllll00000xxxxxxxxxxxxcxx97999cccxcdggggxvxxxxcxxx",
"cmccceeeeehhhhhcxxxxnnnnnzlzzzlllll00000xxxxxxxxxxxvxxx9w999cbcccgggggxxxxxxxxxx",
"ccccceeeeefhhhhxxxxxnnnnnzzzzzlllzl00q00xxxxxxxxxxxnxxx99999cccccgggggxxxxxxxxxx",
"pppppiiiiihhhhhgggggeeeeeeeeeessssswwwwwqq7qqkkkkkfffffasssslllzliiiiaprpppiaaaa",
"pppppiiiiihhhhhggglge9eeeeeeeesssssw8wwwqqqqqkkkkkfffffsssssllllziiiiipppppaiiaa",
"pppppiiiiifzfhhggggg0eeeeeeeeessssswwwewqqqq7kkkkkkdfffpsspsllglliiriipptppaaaaa",
"pppppiiiiihhhhhggggg9eeeeeeeeessssawwwwwqqqqqkhkkkfffffissssllglliiirrpppppaaaaa",
"pptppiiiaihhhhhgggggeeeeeeeeeessssswww8wqqqqqkkkkfffhffstsssglllliiiiippptpaaaaa",
"ppppp0w00qe8eweaaaaahhhhfppppp8688833333hhhghhhhhhiriii888w80000088988wwwww0000w",
"ppppp00600eeqeeaaaaahhhhhppppp89e8833333hhghhhhhhhiiiia888880000088888wwwww00060",
"ppppp00000eee9esaaaahzhhhpppppw888833333hhhhhhhhghpiiii888880000088888wew8ww0000",
"ppptp00000eeeeeaaaaahhhhhppppp8888933333hhhhhhhhhhaipii888880000088w88wwwww06000",
"ppppp00000eeeeeaaaaahhhhhppipt8888823333hhhhhhhhhhiiiii8888w06000888880wwww00000",
"+++OO&&&&&=====+++++O++++&&&&&555551111111111&&&&&+++++&****+++++.....+++++++.+.",
"+++++&&&&&=====#+++++++++&&&&&544551,11111111&&&&&+++++**&:*+++++.....++++++++++",
"+++++&&&&&=====++++++++++&&&&&515551111111111&&$&;+++++*****+++++.o . ++++++++++",
"+#+O+&&;&&=====++++++++++%&&&;555551111111111*&&&&+++++%**&*+++++....oo+++++++O+",
"+#+++&*&&&==%=;++.+++++++=&;&&555551111111111&&&&&#++.O*****+#+++o....++++++++++"
};
