/* XPM */
static char *result[] = {
/* columns rows colors chars-per-pixel */
"80 80 129 2 ",
"   c #323438",
".  c #333438",
"X  c #323538",
"o  c #333538",
"O  c #323439",
"+  c #323539",
"@  c #333539",
"#  c #36383C",
"$  c #37383C",
"%  c #36393C",
"&  c #37393C",
"*  c #36383D",
"=  c #37383D",
"-  c #36393D",
";  c #37393D",
":  c #3A3E42",
">  c #3B3E42",
",  c #3A3F42",
"<  c #3A3E43",
"1  c #3B3E43",
"2  c #3A3F43",
"3  c #3B3F43",
"4  c #3C4044",
"5  c #3D4044",
"6  c #3D4144",
"7  c #3C4045",
"8  c #3D4045",
"9  c #3D4145",
"0  c #126A78",
"q  c #136A78",
"w  c #126B78",
"e  c #136B78",
"r  c #126A79",
"t  c #136A79",
"y  c #126B79",
"u  c #136B79",
"i  c #464E52",
"p  c #474E52",
"a  c #464F52",
"s  c #474F52",
"d  c #464E53",
"f  c #474E53",
"g  c #464F53",
"h  c #474F53",
"j  c #147180",
"k  c #147181",
"l  c #157181",
"z  c #147688",
"x  c #157688",
"c  c #147788",
"v  c #157788",
"b  c #147689",
"n  c #157689",
"m  c #147789",
"M  c #157789",
"N  c #147A8C",
"B  c #157A8C",
"V  c #157B8C",
"C  c #147A8D",
"Z  c #157A8D",
"A  c #147E90",
"S  c #157E90",
"D  c #147F90",
"F  c #157F90",
"G  c #147E91",
"H  c #157E91",
"J  c #147F91",
"K  c #157F91",
"L  c #169C9C",
"P  c #179C9C",
"I  c #169D9C",
"U  c #179D9C",
"Y  c #169C9D",
"T  c #179C9D",
"R  c #169D9D",
"E  c #179D9D",
"W  c #16A2A2",
"Q  c #17A2A2",
"!  c #16A3A2",
"~  c #17A3A2",
"^  c #16A2A3",
"/  c #17A2A3",
"(  c #16A3A3",
")  c #17A3A3",
"_  c #16A8A8",
"`  c #17A8A8",
"'  c #17A9A8",
"]  c #16A8A9",
"[  c #17A8A9",
"{  c #16A9A9",
"}  c #17A9A9",
"|  c #16ACAC",
" . c #17ACAC",
".. c #16ADAC",
"X. c #17ACAD",
"o. c #16ADAD",
"O. c #18AAAA",
"+. c #18ABAA",
"@. c #19ABAA",
"#. c #18AAAB",
"$. c #19AAAB",
"%. c #18ABAB",
"&. c #1ABABA",
"*. c #1BBABA",
"=. c #1ABBBA",
"-. c #1BBBBA",
";. c #1ABABB",
":. c #1BBABB",
">. c #1ABBBB",
",. c #CACED0",
"<. c #CBCED0",
"1. c #CACFD0",
"2. c #CBCFD0",
"3. c #CACED1",
"4. c #CBCED1",
"5. c #CACFD1",
"6. c #CBCFD1",
"7. c #CCD0D2",
"8. c #CDD0D2",
"9. c #CCD1D2",
"0. c #CCD0D3",
"q. c #D0D6D6",
"w. c #D1D6D6",
"e. c #D0D7D6",
"r. c #D1D7D6",
"t. c #D0D6D7",
"y. c #D1D6D7",
"u. c #D0D7D7",
"i. c #D1D7D7",
/* pixels */
"v v v v v x x x x x L L L L L s s s s s s s s s s t.t.t.t.t.7.7.7.7.7.y.y.y.y.y.>.>.>.=.>.s s s s s s s s s s r r r r r t t t t t ` ` ` ` `  . . . . .r r r r r ",
"v v v v v x x x x x L I L L L s s s s s s s s s s t.t.t.t.t.7.7.7.7.7.y.y.y.y.y.>.>.>.>.>.s s s s s s p s s s r r r r r t t t t t ` ` ` ` `  . . . . .r r r r r ",
"v v v v v x x x x x L L L L L s s s s s s s s g s t.i.t.t.t.7.7.0.9.7.y.y.y.y.y.>.>.>.>.>.h s s s s s s s h s r r r t r t t t t t ` ` ` ` `  . . . . .r r r r r ",
"v v v v v x x x x x L L L L L s s s s s s s s s s y.t.t.t.t.7.7.8.7.7.y.y.y.y.y.>.>.>.=.>.s s s a s a s s s s 0 r r r r t t t t t ` ` ` ` _  . . . .| r r r r r ",
"M v v v v x x x x x L L L L L s s s a s s s s s s t.t.t.t.t.7.7.7.7.7.y.y.y.y.y.>.>.>.>.>.a h g s s s s s s s r r t r r q t t t t ` ` ` ` `  . . . .X.r r r r r ",
"< < < < < - - - - - I I I I I +.+.+.+.+.6.4.6.6.4.6.6.6.6.6.r.r.r.r.r.&.&.&.&.&.p p p p p s s s s s t t t t u v v v c v K K K K K ] [ ] ] ] ( ( ( ( ( ..........",
"< < < : < - ; - % - I I R I I +.+.+.%.+.5.6.2.6.6.6.6.6.6.6.r.r.r.r.r.&.&.&.&.&.p p p f p s s s s s t t t t t x v v v v K K K J H ] ] ] ] ] ( ( ( ( ( ..........",
"< < < < < - % - - - I I I I I +.O.+.@.+.6.5.6.6.6.4.6.6.6.6.r.r.r.r.r.&.&.;.&.&.p p p p p s s s s s t t t t t v M v v v K K K K K ] ] ] ] ] ( ! ( ( ( ..........",
"< < < < < - - - - - I L I I L +.+.+.+.+.6.6.6.6.6.6.6.6.6.6.r.r.r.r.r.&.&.&.&.&.p p p p p s s s s s t t t t t v v v v v K K K K K ] ] ] _ ] ( ( ( ( ( ....o.....",
"< < 1 2 < - - - - - I I I I R +.+.+.O.+.6.6.6.4.6.6.6.6.6.6.r.r.r.r.r.;.&.&.&.&.p p s p p s s s s p t t r u t v v v v v K K K K K ] ] ] ] ] ( ( ( ( ( ..........",
"- - - - ; - - - - - Y Y Y Y Y Y Y Y Y Y %.%.%.%.%.3.3.3.3.3.*.*.*.*.*.s s s s s a a g a a t t t t t m b m b m x x x x x H H H H H ) ( ! ( ( Y Y Y Y Y L L L L L ",
"- * * - - - - ; - - Y Y Y Y Y Y Y Y Y Y %.%.%.%.%.3.,.3.,.3.*.*.*.*.*.a s s s s a a a a a t t t t t m m c m m x x x x x H H H S H ( ( ( ( ( Y L Y Y Y P L P L L ",
"- - - - - - % - - - Y Y Y Y Y Y Y Y Y R %.%.%.%.%.3.3.3.4.3.*.*.*.*.&.s s s s s i a a i a t t t t t m m m m m x x x x x H H H H S ( ( ( ( ( Y Y Y Y L L L L L L ",
"- - - - - - - - % - Y Y Y Y Y Y Y Y Y Y %.%.%.%.%.3.3.3.3.3.&.*.*.*.*.h s s s s a g a g s t u t r t m m m m m x x v x x S H H K H ( ( ( ( ( Y Y Y Y Y L L I L L ",
"- - - - - - - * - - R Y T Y Y Y Y Y Y Y %.%.%.%.%.4.3.3.3.3.*.*.*.:.*.s s s s s a a a a a t t t t t m m m m m x x x x x H H H H H ( ( ( ( ( Y Y Y Y T L L L L L ",
"( ( ( ( ( ( ( ( ( ( x x n x x R R R R R R I I I I +.+.+.+.+.a a a a a s s s s s u u u u u v v v v v Z Z Z Z Z n n n x n x x x x x B B B B B v v v v v k l k l j ",
"( ( ( ) ( ( ( ( ( ( x x x x x R R R R R I I I I I +.+.+.+.+.a a a a a p s s s s u y u t u v v v v v Z B Z Z Z n n n n n n x z x x B B B V B v v v v x k k l k k ",
"( ( ( ( ! ) ( ( ( ( x x x n x R R R R R I I I I I %.+.+.+.+.a a a a a s s a s s u u u u u v v v v v Z Z Z Z Z n n n n n x x x x x B B B B Z v v v v v k k k k k ",
"( ( ( ( ( ( ( ( ( ( x x x x x I R R R R I U I I I +.+.+.+.+.a s s s a s p s s s u u u u y v v M v v Z Z Z Z Z M n n n n x x x x x B B B B B M x c v v l k k k k ",
"! ( ( ( ) ) ( ( ( ( x x x x x R R R R R I I I R R @.+.+.+.+.a s a a a s s s s s u u y t u v v v v v Z Z Z Z Z n n n n x x x x x x B B B V B v v v v v k k k k k ",
"L L L L L I I I I U - - - - - * - - - - < < < 2 : L L L L L s s s h s y y w y u < 3 < < < - - - - % 2 2 2 2 2 c c c m c M M M M M v v v v x v v v v v t q t t t ",
"L L L L L I I I I R - - - - - - - - - - < < 1 < < L L L L L s s s s s y y y y y < < < < < - - - % - 2 < 2 2 , c c c c z M M M M M v v v v v v v v v v t t t t t ",
"L L L L Y I I I I I - - - - * - - - - - < < < < < L L Y L L s s s s a y y y y y < < < < < - - - - - 2 2 2 2 2 c m c m c M M M M M v v v v c x v v c c t t t t t ",
"L L L L L I I I I I - - - - - - - - - - < < 1 < < L L L L L s s h s s y y y y y < < < < < - - * - - 2 < , 2 2 c c c c c M M M m M v v v v v x v v v x t t t t t ",
"L L L L L I I I I I - - - - - - - - - - < < < < 2 L L L L Y h s s s s y y y y y < < < : < - ; - - - 2 2 2 2 2 c c v c c M M M M M n v v v v v v v v v t t t t t ",
"T Y Y Y Y T P T L P - - - - - - - - - - + + + + X Y Y Y Y Y U U U U U T T Y T T % % % % % + + + + O - ; ; ; ; v v v v v C C C C C v v x v v t t t t t p p p p p ",
"Y Y Y Y Y P T P P P - - - - - - - - - - @ + + + + Y Y R Y Y U U U U U T T T T T - % % % % + + + + + ; = ; ; ; x v v v v C C C C C v v v v v q t t t t p p p p p ",
"Y Y Y Y Y L P U U P % - ; - - - * - - - + + + + + Y Y Y R T U U U U U T T T T P - % % % % + + X X + - ; ; ; ; v v v v v C C C C C v M v v v t t t t t a p p p p ",
"T Y Y Y Y P P P P P - * - - - - - - - - + + + O + Y Y Y Y Y U U U U U T E Y T T % % % % % + + + + + & ; ; ; ; v v v v v C N Z C C v v M v v t t t r t p p p p p ",
"Y Y I Y Y T P P P P - - - - - % - - - - + + + + + Y Y Y Y Y U U U U U T T T T T % % % % % + + + + + ; ; ; ; ; v x v v v C C C C C v v x v v t r t t t i p p p p ",
"[ ` [ ` _ ] ] ] ] ] - - - - - - - - - - < < < < < t u t t q ! ~ ) ) ~ L L L L L 9 9 9 9 9 * - - - - = * * * - H H H H H v n M M M u t t t t s s s s s f f f f f ",
"` ` ` ` ` ] ] ] ] ] * - = ; - - - - - - < < < < < t t t t t ~ ~ ~ ~ ~ L P L L L 8 9 9 9 9 ; - - - - * * * * * H H H H H M M M M M t u t t t s s p s s p f f f f ",
"_ [ ` ` ` ] { ] ] [ - - - - - - - - - - < < < < < t t t t t ~ ~ ~ ~ ~ L L L L L 9 9 9 9 9 - - * - - * * * * * H H H H H M M M M M t t t t t s s s h s f f f d f ",
"` ` ` _ ` ] [ ] ] ] - - - - * - - - - - < < < < < t q t t t Q ~ ~ ~ ~ Y L L L L 9 8 9 9 9 - - - - - - * * * * H H S H H M M M M M t t t t t s s s i s f f f f f ",
"` ` ` ` ` ] ] ] ] ] - - - - - - - - * - < 1 < < < t q t t t ~ ~ ~ ~ ~ L Y L L L 9 9 9 9 9 - - - - - * * * * * H H H H H M M M M M t r t t t s s s s s f f f f f ",
"4.6.6.6.6.u.u.u.u.u.v v v v v H H H S H N B B B B : : : : : % % % # % 8 8 8 8 8 U U U U U W ! ! W ! n M M M M v x v v v q q q q 0 s s s s s f f f f f ;.:.:.:.:.",
"6.6.4.2.4.i.u.u.u.u.v v v v v K H H H H B B B B N : : : : > % % % % % 8 8 8 8 8 U U U U U ! ! ~ ! ! M M M M m v v v v v q q q t q s p p s s h f f f f :.:.:.:.;.",
"6.6.6.6.6.u.u.u.u.i.v v v v M H S H A H B B B B B : : : : < & % % % % 8 5 8 8 9 U U U P U ! ! ! ! ! M M M M M v v v v x q q q q q s s s s s f d f f f :.:.:.:.:.",
"6.6.6.6.6.u.u.u.u.e.v M v x v H H H H S B B B B B : : : , : % % % % % 8 9 7 8 8 U U E U U ! ! W ! W M M M M M v v v v v e q q q q s s s s s f f f f f :.:.;.:.:.",
"4.6.6.6.6.u.u.e.u.u.c v v M M H H H H H B V N B N : : : : : % % % % & 8 8 8 5 8 U U I U I ! ! ! ! ! M M M M M v c v v v q q q q q s s h s s f f f p f :.:.:.:.:.",
"2.6.6.6.6.6.6.2.6.6.J J J J J H G H H H H G H H S X X X X X ; - - - - % % % % % ( ( ( ( ( I I I I I I I I I I t t t t t a a a a a a d a a a -.-.=.-.-.q.q.q.e.q.",
"6.6.6.6.6.6.6.6.6.6.J K J J J H H G H H H H G H H   X X X X - - - - - % % % % % ( ( ( ( ( I I I I I I I U I I t t t t t a a a a a a a i s a -.-.-.*.-.q.q.q.q.q.",
"6.6.6.6.6.4.6.6.6.6.J J J J J H H H H H H S H K H X X X o X - - - - ; % % % % % ( ( ( ( ( I I I I I I I U I I t t t q t a a a a a a a a a i =.-.-.-.-.q.q.q.q.q.",
"6.6.6.6.6.6.6.6.6.6.J F J D J H H H H H H H H H H X X o X X - ; - - - % % % % % ( ( ( ( ( I I I I I I R R I I t t t t t a g a a a a a a a a -.-.-.-.-.q.w.q.q.q.",
"6.6.6.6.6.6.6.4.6.4.J J J J J H H H H H H S H H H X X X X X - - - - % % % % % % ( ( ( ( ( I I I U I I R I I I t t t t t a a a a a a i a a a -.-.-.-.-.q.q.q.q.q.",
"6.5.6.6.6.s s s s s v v v v v < < < < < = = = = = X + X X X = = # = = % % % - % 2 , , , 2 5 5 6 5 5 R I I I I Y Y R Y Y s s s s s &.;.&.=.;.2.2.2.2.2.t.t.t.t.t.",
"6.6.4.6.6.s p s s s v v v v v 1 < < < < = = = = = o X X X X = = = = = % # % % % , , , , 2 5 5 5 5 5 I I I I I Y Y Y Y Y p a s s s &.&.&.&.&.2.6.2.2.2.t.t.q.q.t.",
"6.6.6.6.6.s s s s s v v c v v < < < : < = = = $ =   X X X + = = = = ; % % % % % , , , , , 5 6 5 5 4 L I I I I Y Y Y Y Y s s s s s &.&.&.&.&.2.2.2.2.2.t.t.t.t.t.",
"6.6.6.6.6.s s s s s v v v v v < < 2 < < * = = * = X X X X X = ; = = = % % % % % , , , , , 5 5 5 5 5 L I I I I Y Y Y Y Y s s s s s ;.&.&.&.&.2.2.2.2.2.t.t.t.t.t.",
"6.6.6.6.4.s s p s p v v v v v < < < < 2 = = = = = o X X X X = = = = = % % % % % , , , , , 5 5 5 5 5 I I I I I Y Y Y Y Y s s s s s &.&.&.&.&.2.2.2.2.2.t.t.t.t.t.",
"h a s s s g h h h h S H S S H o o o o o - % - - - - - - ; - - - - - - - - - - - & & $ & & 2 2 < 2 2 ( ( ( ( ( L L L L L +.+.+.+.+.6.6.6.6.6.y.y.y.y.y.1.1.1.1.1.",
"s s s s s h s h s h S S S F S o o o o o - - - - - - - - % * - - - - % - - ; - - & & & % & < < < < < ( ( ( ( ( Y T P L L +.O.+.+.+.6.6.6.6.6.y.t.y.y.y.1.1.1.1.1.",
"s s s s s h s h h h H S S S S @ . o o . - - - * ; - - - - - - - % - - - - - - - & & ; & & < < < < < ( ( ^ ( ( Y L L L L +.+.+.+.+.6.6.6.6.6.y.y.y.y.y.1.1.1.1.1.",
"s s p s s h h h h h S S S S S o o o o o % - ; - - - - % - - ; - - - - - - - - - & & & & & < 2 < < < ( ( ( ( ( L L L L L +.+.+.+.+.6.6.6.6.6.y.y.y.t.y.1.1.5.1.1.",
"p s s s s h f h h h S S S S S o X o o . - - - - * * - - - - - * - - - - - - - - & & & & & < < < < > ( ( ) ( ( L L L L L +.%.+.+.+.2.6.6.6.6.y.y.y.y.y.1.1.1.3.1.",
"h h h h h t t t t t c c c c c * * - - - * * * * - < < < < < 7 7 7 7 7 < < < < < * * * * * = = = = = v v v v v Y Y Y Y Y U R I I I %.%.%.%.%.,.6.2.6.6.s s s s s ",
"h h h h h t t t t t c c z c c - - - - ; # * = * * < < < < < 7 7 7 7 7 < < < < < * * * * * = = = = = v v v v v T Y Y Y Y I I I I I %.%.%.%.%.6.6.6.6.6.s h s h s ",
"h h h g h t t t t q c c c c c - - - - - * # * * * < < < < : 7 7 7 7 7 2 < < < < = * * * * = = = = = v v v v v R Y Y Y Y I I I R R %.%.%.%.%.6.6.4.6.6.s s s s s ",
"h h h h h t t t t t c c c c c - - - - - * * * = * < < < < < 7 7 7 7 7 1 < < < 1 * * * * * = = = = = v v v v v Y Y Y Y Y I I I I I %.%.%.%.%.4.6.6.6.6.s s s s s ",
"h f h h f t t t t t c c c c c - - - - - * * * * * < < 2 < < 7 7 7 7 7 < < < < < = * * * * * = = = = v v x v c Y Y L Y L I I I R I %.%.%.%.%.6.6.6.6.6.s p s a s ",
"t u t u t x x x x z c c c c c - - - ; ; - - - - - y y y y r Z Z Z Z Z x x v v v - % - - - * * * = * u e u u u v v v v v I I I I R P P P P P #.#.#.#.#.h h h h h ",
"t t t t t x x x x x c m z c c - - - - - - - - - - y y y y y Z Z Z Z Z v v v v v - - - - - * * * * * u u u u u v v c v v I I I I I P P P P P #.#.#.#.#.h h h h h ",
"t t t t u x n x x n c c c c c - - - - - - - - - - w y y y y Z Z Z Z B v v v v v - - - - - * * * * * u u u u y v v x v M R I I R I P P P P P #.#.%.#.#.h h h h h ",
"t t t t t x x x x x m c c c c - - - - - - - - - - y y y y y Z Z Z Z Z x v v v x - - - - - * * * * * u u u u u v v c v v I I I I U P P P P P #.#.$.#.#.h f h h s ",
"u t t t t x x x n n c v c c c - * - - - - - - - - y y y w y Z Z Z Z Z v v v v v - ; - - % * * * * * u u u u u v v v v v I I I I I P P P P P #.O.#.#.#.f h h h h ",
"x x x x x c c c c c v v v v v < < < < < 2 2 2 3 2 v v v v v H H H H H x x x x x % % % % % % % % % % N N N N N y y y y y M M M M M L L L I P T T T T T T Y Y T Y ",
"x x x x x c z c c c v v v v v < < < < < 2 2 2 2 2 v v v v v H H H H H x x x x x % % % % % % % % % % N N N N N y y y y y M M M M M L L L L L T P T T T Y T Y Y Y ",
"z x x z x c c c c c v v M v v < < 1 < < 2 2 2 2 2 v v v v M H H H H H x x n x z % % # % % % % % % % N N B N N y y y w y M M M M M L L L L L T T T T T Y Y Y Y R ",
"x x x x x c c z c c v v v v v < < < < 2 2 2 2 2 2 v v v v v H H H H H x x x x x % % % % % % % % % % B N N N N r y y y y M M M M M L L L L L T E P T T Y T Y Y Y ",
"x x x x x m c c c c v v v v v < < < < 1 2 2 2 2 2 v v v v v H H H H H x x x x x # % % % % % % % % % N N N N N y y y y y M M v M M I L L U L T T T T T Y Y Y Y Y ",
"M v M M M M M M M M M v v v v v v M v v r r r r y i i i i i i i i i i 3.3.3.3.3.5.6.5.5.5.^ ( ( ( ( R I I I I L L L L L ^ ^ ^ ^ ^ - - - ; ; X X X X X K K K K K ",
"M M M M x M M M M M v v v v v v v v v v r r y r r i i i d i i a i i i 3.3.3.3.3.1.5.5.5.1.^ ( ( ( ( R I I I I L L L L I ^ ^ ^ / ^ - - - - - X X   X X K H J K K ",
"M M M M M M M M m M v v v v v v v v v v r r r r r i i i i a p i i i i 3.3.3.3.3.5.5.5.5.5.( ( ( ( ) I I I R I L L L L L ^ ^ ^ ^ ^ - - - - - X X X X X K K K G K ",
"M M M M M m M M n M v v v v x v v v v v r r r r r i i i i i i i i i a 3.3.3.3.3.5.3.5.5.5.( ( ( ) ( I I L I U L L L Y P ^ ^ ^ ^ ^ - - - - - X X X X X K K K J K ",
"M M M x M M M M M M v v v v v v v v v v r r r r 0 d i i i i i i i i i 3.3.,.3.3.5.5.5.5.5.( ( ( ( ( I I I I I L L L L L / ^ ^ ^ ^ - - - - - X X + X X K K K K F ",
"H S H H H v c v v v m m M m m e w w w w s s s s s s s s s s 6.6.6.6.6.7.7.7.8.9.<.<.<.<.<.} ' } } } L L L L L L L L L L Y Y R Y Y < < < < < ; - ; ; ; n n n b n ",
"H G H H H v v v v v m m m m m w w w w w a s s s s s a s s s 6.6.6.6.6.7.7.7.7.9.<.<.<.<.2.} } } } } L L L L L L L Y L L Y Y Y Y Y < < < < < ; ; ; ; ; n n n M M ",
"H H H H H v x v v v m m b m m w w w w w s s s s s s s s s s 2.6.6.6.6.7.7.7.7.7.2.<.<.<.<.} } { } } L L L L L L L L I Y L Y Y Y Y < < 2 < < ; ; ; ; ; n n n n n ",
"A H H H H v v v v v m m m m m w w w w w s s s s s s s s s s 6.6.6.6.2.7.7.7.7.8.<.<.<.<.<.} } } [ } P L L I L L L L Y L Y Y L Y Y < < < < < ; ; ; ; & n n n n x ",
"H H G H H v v v v v m m m m m w w w w e s s s s s s s s s s 6.2.4.6.6.7.7.7.7.7.<.<.<.<.<.} } } } } L L L L L L L L L L L Y Y Y Y < < < < < ; ; ; ; ; n n n n n "
};
