/* XPM */
static char *result[] = {
/* columns rows colors chars-per-pixel */
"50 50 142 2 ",
"   c #241E1E",
".  c #251E1E",
"X  c #241F1E",
"o  c #241E1F",
"O  c #251E1F",
"+  c #241F1F",
"@  c #251F1F",
"#  c #1A2632",
"$  c #1B2632",
"%  c #1A2732",
"&  c #1B2732",
"*  c #1A2633",
"=  c #1B2633",
"-  c #1A2733",
";  c #1B2733",
":  c #2E2928",
">  c #2F2928",
",  c #2E2829",
"<  c #2F2829",
"1  c #2F2929",
"2  c #30282A",
"3  c #31282A",
"4  c #30292A",
"5  c #31292A",
"6  c #31282B",
"7  c #30292B",
"8  c #31292B",
"9  c #3C3232",
"0  c #3D3232",
"q  c #3C3332",
"w  c #3D3332",
"e  c #3C3233",
"r  c #3D3233",
"t  c #3C3333",
"y  c #32323C",
"u  c #33323C",
"i  c #32333C",
"p  c #33333C",
"a  c #32323D",
"s  c #33323D",
"d  c #32333D",
"f  c #33333D",
"g  c #3A383A",
"h  c #3A393A",
"j  c #3B393A",
"k  c #3A383B",
"l  c #3B383B",
"z  c #3A393B",
"x  c #3B393B",
"c  c #343640",
"v  c #353640",
"b  c #353740",
"n  c #343641",
"m  c #353641",
"M  c #343741",
"N  c #353741",
"B  c #3A3A48",
"V  c #3B3A48",
"C  c #3A3B48",
"Z  c #3B3B48",
"A  c #3A3A49",
"S  c #3B3A49",
"D  c #3A3B49",
"F  c #3B3B49",
"G  c #3C3E4C",
"H  c #3D3E4C",
"J  c #3C3F4C",
"K  c #3D3F4C",
"L  c #3C3E4D",
"P  c #3D3E4D",
"I  c #3C3F4D",
"U  c #3D3F4D",
"Y  c #424042",
"T  c #434042",
"R  c #424142",
"E  c #434142",
"W  c #424043",
"Q  c #434043",
"!  c #424143",
"~  c #434143",
"^  c #4D4042",
"/  c #4C4142",
"(  c #4D4142",
")  c #4C4043",
"_  c #4D4043",
"`  c #4C4143",
"'  c #4D4143",
"]  c #484448",
"[  c #494448",
"{  c #484548",
"}  c #494548",
"|  c #484449",
" . c #494449",
".. c #484549",
"X. c #494549",
"o. c #4C484C",
"O. c #4D484C",
"+. c #4C494C",
"@. c #4D494C",
"#. c #4C484D",
"$. c #4D484D",
"%. c #4C494D",
"&. c #4D494D",
"*. c #4E4A4E",
"=. c #4F4A4E",
"-. c #4E4B4E",
";. c #4F4B4E",
":. c #4E4A4F",
">. c #4F4A4F",
",. c #4E4B4F",
"<. c #4F4B4F",
"1. c #5A565A",
"2. c #5B565A",
"3. c #5A575A",
"4. c #5B575A",
"5. c #5A565B",
"6. c #5A575B",
"7. c #5B575B",
"8. c gray36",
"9. c #5D5C5C",
"0. c #5C5D5C",
"q. c #5D5D5C",
"w. c #5C5C5D",
"e. c #5D5C5D",
"r. c #5C5D5D",
"t. c #5D5D5D",
"y. c #747474",
"u. c #757474",
"i. c #747574",
"p. c #757574",
"a. c #747475",
"s. c #757475",
"d. c #747575",
"f. c gray46",
"g. c #888888",
"h. c #898888",
"j. c #888988",
"k. c #898988",
"l. c #888889",
"z. c #898889",
"x. c #888989",
"c. c #898989",
/* pixels */
"a P U ,.t.-.H 8.a.H G L <.<.H f i B F C f y $ % $ d d Z f d * $ i s H U ,.0.8.-.H 8.i.P H P >.H f d ",
"H y.8.d.8.8.p.t.c.e.l.8.8.8.a.f.H ;.:.<.-.C d d d a Z S C -.B Z A H y.w.a.8.8.8.p.w.j.9.l.8.8.a.u.H ",
"r.u.j.u.f.d.c.8.j.>.s.8.u.p.c.q.f.t.8.w.0.w.r.>.>.<.>.,.<.<.;.<.,.0.s.k.a.u.u.i.c.9.c.>.u.8.p.x.0.s.",
"y.x.z.0.<.;.:.>.<.<.w.:.*.<.a.e.s.s.y.u.i.r.d.f.y.<.8.t.r.y.i.y.s.s.x.g.e.<.<.;.*.<.<.,.9.>.<.u.w.a.",
"0.y.u.<.a.y.p.y.c.z.c.c.w.w.x.k.,.9.w.9.e.8.9.:.;.<.>.9.d.y.0.q.9.8.y.y.<.a.y.y.p.y.c.c.k.c.w.x.k.:.",
"r.r.<.<.u.w.8.,.=.<.e.j.<.<.i.8.<.9.p.a.p.i.y.y.i.y.y.a.d.d.u.y.e.r.t.<.<.u.y.e.8.-.<.<.t.k.,.y.8.>.",
"<.y.g.<.i.<.a.g.x.l.,.x.0.r.y.w.c <.<.<.=.9.8.w.w.y.a.0.r.a.0.;.-.<.a.k.<.p.i.>.a.z.x.x.-.x.r.i.r.b ",
"u.s.e.0.u.q.a.9.;.p.8.j.0.0.q.,.b y.d.y.y.y.u.y.y.y.s.d.y.a.a.a.y.u.s.9.0.y.y.q.d.8.-.u.8.j.0.q.<.N ",
"a.p.u.<.y.<.a.;.w.z.w.u.<.=.c.k.p.w.w.y.y.i.y.y.p.d.9.8.8.9.t.w.9.a.i.u.>.y.y.,.y.-.r.c.w.y.=.c.c.p.",
"i.x.z.w.c.=.y.y.p.d.<.s.<.,.a.9.y.u.s.y.y.d.i.a.8.:.>.y.a.y.y.p.w.i.x.c.w.k.x.>.y.y.p.d.>.s.<.s.w.a.",
"r.8.9.;.c.8.,.:.q.;.w.y.<.,.i.8.w.9.9.0.q.y.y.u.p.i.u.i.p.y.8.t.,.r.8.e.<.x.c.8.,.,.9.;.8.u.,.u.9.r.",
">.i.8.,.l.c.c.l.i.u.u.a.=.;.c.s.;.0.i.y.i.d.8.q.-.t.w.a.u.y.i.=.*.>.s.w.;.l.x.c.z.x.i.u.i.a.:.x.a.;.",
"9.9.i.>.<.;.t.>.>.t.;.<.<.>.u.>.n 8.9.w.<.t.t.d.a.8.8.w.9.9.<.-.t.9.9.i.<.<.<.*.t.;.>.t.=.<.>.y.>.m ",
"9.9.i.,.<.-.t.<.*.q.;.<.>.>.u.,.m 9.9.8.<.r.t.d.y.8.8.8.9.8.;.-.w.9.e.i.;.<.;.-.q.<.>.t.;.;.:.u.>.m ",
"s.u.y.k.u.u.j.j.a.x.y.<.y.a.w.8.;.0.>.>.;.>.<.>.;.-.:.-.,.w.0.w.0.u.y.u.k.p.y.u.k.h.y.c.i.>.a.w.8.<.",
"H 8.y.u.a.8.c.p.8.j.0.<.i.y.w.=.H >.<.<.D f a C C A B ;.<.B V C F H q.y.s.a.s.9.c.y.8.k.0.<.y.8.<.P ",
"a P J ;.J w.y.:.9.9.r.J <.<.w.G i C p i d $ $ $ d i f S B D C C d s U I <.K K 8.y.*.9.8.w.J ,.w.G u ",
"i C >.s.e.t.<.y.9.r.<.:.0.0.0.S a 5 5 4 6 9 7 q 9 9 e t q w 0 2 w d C <.a.9.9.t.,.d.8.r.<.:.r.0.F d ",
"$ Z <.y.8.y.;.y.0.p.t.>.-.-.w.C D o &.O.%.3.&.7.3.3.3.5.3.4.5.{ 5 $ F ,.y.8.8.y.=.i.9.p.e.>.-.w.C D ",
"* Z ;.y.0.y.0.a.t.y.8.i.<.,.0.Z B o ] j x @.O.#.{ { ~ ~ [ Q x 6.e - Z =.y.0.0.y.8.a.w.u.8.i.,.0.F B ",
"i ,.<.i.y.d.a.y.9.y.u.y.9.q.t.B Z O  .t { ^ &.$.&.Q R X.Q { { 3.9 d ,.;.p.y.i.d.a.y.9.y.u.y.8.r.Z C ",
"f C <.r.a.d.r.y.9.a.i.y.q.9.,.<.B @ { x { &./ 5.$.z T Q ) ` | 1.0 f D <.r.u.a.d.t.y.9.a.d.u.q.;.<.C ",
"Z F <.q.9.y.0.i.8.p.i.s.e.w.=.=.V 2 @.k X.` &.#.+.O. .` @.) &.7.q Z D -.q.e.9.i.r.p.8.y.i.a.9.-.;.Z ",
"d V :.8.=.y.y.s.8.<.u.w.8.9.:.C d 6 &.g Q ] Y W @.#.$.{ ` &.+.3.0 i Z =.8.=.:.y.d.s.9.*.p.0.8.:.C d ",
"d a >.>.<.y.y.a.f.,.i.q.8.9.;.D d O +.q x k Q T { &.o.@.$.O.#.1.9 d s >.<.<.<.i.u.i.d.>.y.0.8.-.A y ",
"$ d >.y.;.i.w.y.i.0.u.;.a.y.<.Z d   [ < z h W Q { @.&.2.@. .Q 5.9 $ d <.y.;.-.d.w.y.i.8.i.-.y.;.C d ",
"$ d >.f.,.i.w.u.y.y.s.q.d.d.>.C ; @ %.: T E Q ] $.&.3.&.&.%. .6.9 & d =.f.>.:.y.w.y.y.y.s.q.d.<.C = ",
"# d t.d.q.y.8.u.y.d.y.8.e.e.,.d & 5 #.> j h l ~ Q { ..#.+.#.' 7.9 $ s t.d.9.8.i.8.p.y.a.y.8.t.<.a & ",
"d C 8.w.8.i.q.y.y.i.y.d.r.r.>.s ; 5 O.< 0 x x Y ..~ ..$.{ ( _ &.5 i Z 0.w.8.8.d.q.y.i.p.y.d.e.>.s & ",
"d :.0.i.9.i.<.y.y.y.q.y.<.<.=.D a o &.< 1 e t [ ! ..[ Y Q ~ { 2.e f <.0.i.9.q.y.,.y.a.y.9.f.<.;.D d ",
"C <.r.u.q.y.,.u.y.y.0.y.8.0.<.;.i O #.9 < , r h z x x 9 w h [ 3.9 C <.8.u.t.q.a.>.a.y.a.0.a.8.>.=.d ",
"C :.9.y.8.i.<.i.w.f.8.a.9.9.>.>.i O { &.O.&.&.} { +.] } X.%.&.%.4 C :.8.y.0.8.p.<.i.r.y.9.y.9.<.,.y ",
"B =.r.s.w.8.<.y.e.p.q.8.t.8.q.<.C   + 8 X O + 7 5 o . 3 O X O o o C ;.r.s.9.e.8.,.f.e.u.0.w.e.w.=.C ",
"d P U ,.8.-.H 0.i.H L P <.>.H f d V C C f i $ $ = d d Z f a # $ d s P I -.8.8.*.H 8.i.U G G <.H f f ",
"G u.8.a.8.r.p.r.x.9.l.w.8.8.s.s.H ;.>.<.<.C d d d f F D C ,.Z F C U y.8.a.8.8.9.p.r.x.9.l.w.8.a.s.H ",
"r.u.k.y.u.y.h.q.k.>.p.9.f.p.c.0.s.r.8.w.0.w.t.>.:.<.>.<.,.;.-.,.<.8.u.j.y.u.u.p.c.8.k.>.u.8.u.c.0.u.",
"y.x.h.9.<.;.:.<.<.<.8.>.<.<.u.0.a.s.y.u.i.8.d.d.y.<.8.q.r.i.u.y.a.y.g.z.e.>.<.;.,.,.<.<.q.>.<.y.w.a.",
"w.s.u.<.a.y.p.y.c.l.x.c.r.w.x.j.,.9.0.q.9.8.9.*.;.<.=.9.y.y.0.8.9.w.y.y.<.y.u.y.p.y.c.z.c.c.w.j.j.-.",
"w.y.u.<.y.u.p.p.c.z.c.c.r.w.x.k.,.e.0.q.q.8.9.:.;.<.>.8.a.i.0.9.e.w.y.u.<.y.p.y.p.i.c.z.z.c.w.x.k.,.",
"r.r.<.<.a.w.8.,.<.<.e.k.<.>.y.8.>.9.p.y.i.y.y.d.d.i.i.y.d.a.y.y.e.r.r.,.<.p.u.w.r.,.<.<.e.z.<.y.8.<.",
";.i.g.<.d.<.a.l.x.x.,.x.r.0.y.r.v ,.<.<.<.q.e.w.e.a.y.0.t.a.0.=.>.,.i.k.<.i.i.<.p.z.l.x.:.x.0.y.w.v ",
"u.s.w.q.y.e.a.8.;.y.8.j.0.0.q.<.b u.i.s.y.i.y.y.y.y.s.p.u.y.a.y.y.u.s.e.0.a.i.q.a.8.;.s.8.j.0.r.<.M ",
"a.i.u.<.y.,.y.-.r.c.8.y.>.*.x.c.u.e.w.s.a.i.y.y.i.d.w.8.9.9.e.8.9.a.f.u.<.i.a.:.y.-.r.x.8.y.>.c.c.s.",
"i.l.c.e.k.<.y.p.p.a.>.u.<.>.a.9.y.y.u.y.y.p.y.y.0.:.<.y.a.y.u.y.8.y.x.c.w.c.x.>.y.y.i.i.>.u.<.a.e.y.",
"0.8.q.,.c.0.;.,.q.<.9.a.,.,.s.9.w.8.8.9.9.u.i.s.p.i.p.i.d.y.9.e.>.r.8.e.;.c.x.9.<.<.9.;.w.a.,.f.8.w.",
">.u.8.<.x.c.c.l.i.y.i.f.;.-.x.u.;.8.y.a.d.f.8.q.-.q.0.a.y.y.i.>.:.>.y.8.<.x.x.c.c.l.i.s.u.a.;.x.s.;.",
"q.e.i.<.,.-.t.;.>.q.;.<.>.>.u.<.m q.8.8.<.8.t.d.y.8.8.w.9.8.:.,.r.9.q.d.<.<.<.-.t.<.<.t.;.<.>.u.>.n ",
"u.s.y.h.y.p.x.k.y.c.y.,.a.a.w.8.*.9.>.>.;.<.>.<.<.;.:.;.,.t.0.w.r.u.u.y.c.y.y.u.x.k.y.c.i.<.s.w.9.<.",
"H 8.y.a.d.8.c.d.8.k.0.>.i.y.9.>.U ,.:.;.C s s C B A C -.<.B C C F H 9.y.s.d.a.9.z.p.8.k.0.<.y.e.;.P ",
"a P L -.U w.y.:.9.8.w.J <.<.w.G y C y d d ; & = d p d C V C V Z s a P I ;.K K 8.y.:.9.9.t.G <.w.G i "
};
