/* XPM */
static char *result[] = {
/* columns rows colors chars-per-pixel */
"50 50 116 2 ",
"   c #1A2632",
".  c #1B2632",
"X  c #1A2732",
"o  c #1B2732",
"O  c #1A2633",
"+  c #1B2633",
"@  c #1A2733",
"#  c #32323C",
"$  c #32333C",
"%  c #33333C",
"&  c #32323D",
"*  c #33323D",
"=  c #32333D",
"-  c #33333D",
";  c #3E3E42",
":  c #3F3E42",
">  c #3E3F42",
",  c #3F3F42",
"<  c #3E3E43",
"1  c #3F3E43",
"2  c #3E3F43",
"3  c #3F3F43",
"4  c #3A3A48",
"5  c #3B3A48",
"6  c #3A3B48",
"7  c #3B3B48",
"8  c #3A3A49",
"9  c #3B3A49",
"0  c #3A3B49",
"q  c #3B3B49",
"w  c #484848",
"e  c #494848",
"r  c #484948",
"t  c #494948",
"y  c #484849",
"u  c #494849",
"i  c #484949",
"p  c #494949",
"a  c #4E4A4E",
"s  c #4F4A4E",
"d  c #4E4B4E",
"f  c #4F4B4E",
"g  c #4E4A4F",
"h  c #4F4A4F",
"j  c #4E4B4F",
"k  c #4F4B4F",
"l  c #4E4E4E",
"z  c #4F4E4E",
"x  c #4E4F4E",
"c  c #4F4F4E",
"v  c #4E4E4F",
"b  c #4F4E4F",
"n  c #4E4F4F",
"m  c gray31",
"M  c #585858",
"N  c #595858",
"B  c #585958",
"V  c #595958",
"C  c #585859",
"Z  c #595859",
"A  c #585959",
"S  c gray35",
"D  c gray36",
"F  c #5D5C5C",
"G  c #5C5D5C",
"H  c #5D5D5C",
"J  c #5C5C5D",
"K  c #5D5C5D",
"L  c #5C5D5D",
"P  c #5D5D5D",
"I  c #686868",
"U  c #696868",
"Y  c #686968",
"T  c #696968",
"R  c #686869",
"E  c #696869",
"W  c #686969",
"Q  c DimGray",
"!  c #747474",
"~  c #757474",
"^  c #747574",
"/  c #757574",
"(  c #747475",
")  c #757475",
"_  c #747575",
"`  c gray46",
"'  c #7E7E7E",
"]  c #7F7E7E",
"[  c #7E7F7E",
"{  c #7F7F7E",
"}  c #7E7E7F",
"|  c #7F7E7F",
" . c #7E7F7F",
".. c gray50",
"X. c #8F8E8E",
"o. c #8E8F8E",
"O. c #8F8F8E",
"+. c #8E8E8F",
"@. c #8F8E8F",
"#. c #8E8F8F",
"$. c gray56",
"%. c #A2A4AC",
"&. c #A3A4AC",
"*. c #A2A5AC",
"=. c #A3A5AC",
"-. c #A2A4AD",
";. c #A3A4AD",
":. c #A2A5AD",
">. c #AAB0B8",
",. c #ABB0B8",
"<. c #AAB1B8",
"1. c #ABB1B8",
"2. c #AAB0B9",
"3. c #ABB0B9",
"4. c #AAB1B9",
"5. c #ABB1B9",
/* pixels */
"I ! ! I I B N N M N Z I Y T ! ^ ^ = q 4 7 4 7 = $ = + o X = = # 6 I ! ~ Y I I M M C C V V I T ! ^ ^ ",
"! I e b p u , ; ; y t c n n t I W q 0 6 8 g f 6 8 6 6 & * 6 d j k / I w b e e u 3 ; ; r t x n u R W ",
"I w w m Z Z b w : 3 2 p x x u e ` G J G L j f d d k k k g f k h D I w e m S N Z b e : > 3 u x u e / ",
"/ , m w u 1 : : p u b v m m m n _ L d j F F L D D ^ _ P J f D F F ^ 3 m w e e 1 , , r u v v m m x ! ",
"R e m V Z u ; t b M N N n m e < Y j h ^ ! ~ ( H H a F D _ _ ( ! J R u m S Z Z y , t b B N N m i < Y ",
"N x e , : 3 3 , < : r u 3 : ; < I k K D ! _ ^ / ^ / ) ! ~ F L F D N n u , : : 3 2 , < 1 t u 1 ; ; I ",
"N v V c e : u b N N M Z N N v ; Z J ! ~ ! ! ( k a D ! ( / ! ~ ~ ~ V v V c u u : w v N M N N N l ; Z ",
"M w e : e y m A Z b n w u u e e S F D K F K D F _ _ ! ! _ ! ( J K N r e : e e y m A Z v n w u u t N ",
"N < : : e t 3 u : : , 1 t t : e N ! ^ ( ! ! ^ ) / ( ~ ~ ! ^ _ ^ ~ N < : : y t t 2 e : : > , t ; e Z ",
"C e c m < b m y x m N Z C C n n Z j s G ` P L ( ! J J F H d k k j C e l m < < b m r c b Z Z A n x C ",
"V r w m S C v m z i e m m m z y N K ^ ^ _ _ ! ! ! _ _ ! ! ^ ! / F V p w z Z Z S v b v i w b n z y Z ",
"U x n c u t : > 3 e > u t e < > C F D G ^ ( D h f s g F D G F F K U l n m u e w : , , u > u t ; ; N ",
"! : 1 i u t u p ; e M N v x y 1 _ ! ! ! ^ L H D k ! ) ` J ^ ~ ! ) ! < : u e e t u p , e Z N n i : ) ",
"! 1 1 e r e u t : e Z M v n y : _ _ ! ! ^ L H D f ^ ` ^ J ^ / ! ) ! < 1 u e w e e p : e N M n i , ^ ",
"! i y x N m u n M Z n p < 2 t e ! k j f d k k k k h h P D H J D L ( i y c N N m y n M N n u 2 e y ! ",
") Y w n l e : w i b e : : : t E ^ 6 0 7 j 6 0 7 * & = - 6 k k g f ~ Y e m v v u : r i v i : : u E ` ",
"T ( I ^ U I M V N C Z B ^ ^ C ! Z = . @ = - 7 = =   o . = = 6 6 4 I ~ I ! U R Y M V M C Z M ^ M ^ N ",
"& 6 k ( H K f ! F J k g L G G 9 = 1.%.5.<.1.-.%.1.5.<.1.%.;.<.1.1.= 6 k ( F F K j ^ F K h g L G q = ",
". 7 f ! D ( f ! D / K h a d J 6 0 <. ...} R U { I {  .U R I ] [ <.. q j ! D D ! a ! D ! K h d J 6 7 ",
"O 5 f ! G ! G ( P / D ^ f k H 7 6 1...5.,.4.1.*.>.5.<.%.1.>.5.| *.O 7 d ! G G ! P ( K ~ D ! j G 7 4 ",
"= j k ~ ! _ ! ! F ! ! ! D J L 5 6 ,.] 1.&.;.+.%.O.%.#.-.+.*.4.T :.= j f ^ ! ^ ! ( ! F ! ! ! J L 4 4 ",
"* 6 k L ( _ L ! F ( ^ ~ F H j k 5 %.Y ,.*.#.} $.:.+.{ @.%.%.-.{ <.- 0 k L ( ( ) L ^ D _ _ ! F j h 6 ",
"7 0 k H F ! L ^ D ^ ^ ( K J f k 5 1.] :.#.$. . ...| +...+.$.,.Y -.7 0 f H F F ! J ^ D ! ^ ( J f s 7 ",
"= q h D h ^ ! ) G h ~ G D D g 4 = 1.U 2.#...X...' ........@.&...5.$ 0 h D s h ~ ~ ) D k / G G g 6 = ",
"= & k h k ! ! ~ _ g ^ H D D d 8 $ 5.I 1.@.X.| { | .. .{ ..%.-...3.= * j h k k ! ! ( ( j ! G D d 8 $ ",
". = h ! s _ J ! ^ G / d ( ! k 7 = -.] 5.$.| ....| | ..| O.$.1.Y 1.. - h ! f f _ J ! ^ D ^ j ! h 6 = ",
". = h ` g ^ J ! ! ^ ) P _ ( k 7 + %.} %.-.o...{ ....o. ...%.5.I ,.o = f ) g g _ J ! ( ^ ) H _ k 6 + ",
". $ P ^ F ! D ~ ! ! ~ D P K k = o <.T &.o.#.#.' @. . .$.#.$.<.W -.. - P _ F F ! D ~ ! ( ( D P k & o ",
"= 6 D J D ^ H ! ^ ^ ! _ P L h * o *.{ 1.%.X.=.$...[ O.%.$.*.%.] 1.$ 6 D J F G ! P ! ^ / ! _ J s * o ",
"- j G ~ F ^ k ! ! ! H ^ h k f 0 - >.I 1.*.-.X.$.$.$.&.$.%.%.<.E 3.- k G ^ H G ^ k ! ( ( F _ f f 7 $ ",
"6 k J ~ P ~ k ( ! ! G ( D D h s $ <.{ 5.5.5.>.%.%.<.<.%.1.5.1.' 5.6 h J / H H ! k ( ( ! H _ J h f = ",
"6 g D ! D ~ k ( J ) F ! F F h j $ 4.....I E R U | U W { U | ..{ >.0 g J ( G D / k ^ J / F ! F h h # ",
"4 a L ) F F j ~ K / G D H F D j 6 4.1.<.-.*.-.%.&.%.<.1.%.5.5.>.<.4 f L ( F J H j ~ F ~ D D F D k 6 ",
"I ! ! I I N N B B N V I T Y ) / ! = q 6 4 6 5 = $ = + o o = $ # 6 I ^ ! I I I M N M M N S I Y ! ^ / ",
"/ Y u z e u 2 : ; r t b n n t I W 9 4 7 4 k f 6 0 6 6 & * 0 h k k / Y u v r u u 3 ; ; r t c v p I Q ",
"I w e m N Z b e : 3 3 t n n u w ` G J G L j f a d k k k h f h h K I w w m N Z C v e : , 3 t x u e ` ",
"^ 3 m w t 1 : : t e z v m m m m ( L d k G F J D D ` ( K L k D D F ^ 3 m e u y 1 : : t u m l n m n ( ",
"R e m N S u : t b V N Z m m w ; I h h ^ ( ) ) G J d H F _ _ ( ~ D E e m N Z Z u : t b B Z N m w < Y ",
"E u c N Z u : t m B N N n m y < Y g h ^ ! ~ ( L H d P D _ ` ! ! D R e m M C Z u : t b B N Z n w < I ",
"N n e , : , : 3 < : t e 1 1 ; ; Y k G D ! ^ ^ ) ^ / ) ! ! P G F H N n e , : : , > , < : p e 1 ; ; U ",
"N v V c e : e b B N N N M N n ; Z J / ~ ! ) / s j D ! ( ^ ! ! ( / N m V z w e : t z N N N V Z v ; Z ",
"Z e e : w y m A Z b n w u p u w Z F D P F F D D ^ ^ ! ! _ ! ! J D V y r : w e y b A Z b n w u u e Z ",
"M 1 : : t p 2 e : : > 3 r t : u C ( ( ^ ! ! ^ ) ~ ! ! ~ ! ~ ) ^ ! B < : : e u t 3 e , : > 2 t , e N ",
"C e z m < v m r x m N N Z A n x C k s G ( L K ! ! J J G H k k k k Z e z m , < b m t x m N N C n m C ",
"B t r z Z S v m b i e m m m z y N K ( ! _ ^ ! ! ~ ^ ^ ! ! ^ ! ~ F V t w x S S S v m z i e m b b y N ",
"U v n m y e : 1 , e > p w t ; ; N F F G ( ( F s k k g H D F H D F T l n m u u e , : > y > p w ; ; N ",
"( 1 : w e w u p , e C N n n y : ( ` ^ ! ^ L H D g ! ` _ J ^ ~ _ ) ~ 3 1 e e e e y p 1 e Z M x y : ` ",
"! p y c N m u n V Z v e < < y y ~ k h f k h k h k h k P D G J D P ! u w x N N m u v Z M n u < e w ! ",
"~ T u c b e : y y b u : , : p R ` 6 7 5 j 6 0 7 & = = = 6 j k g s ~ Y e n n v e : w y b y : : p E _ ",
"I ! Y ^ U I M V N C Z M ^ ^ M ! M = . + = - 7 - # . o . = % 6 6 4 Y ! I ^ E U R M V N C C B ^ C ! N "
};
