/* XPM */
static char *result[] = {
/* columns rows colors chars-per-pixel */
"50 50 170 2 ",
"   c #241E1E",
".  c #251E1E",
"X  c #241F1E",
"o  c #241E1F",
"O  c #251E1F",
"+  c #241F1F",
"@  c #251F1F",
"#  c #2F2828",
"$  c #2E2829",
"%  c #2F2829",
"&  c #2F2929",
"*  c #31282A",
"=  c #30292A",
"-  c #31292A",
";  c #31282B",
":  c #30292B",
">  c #31292B",
",  c #3C3232",
"<  c #3D3232",
"1  c #3C3332",
"2  c #3D3332",
"3  c #3C3233",
"4  c #3C3333",
"5  c #3A383A",
"6  c #3B383A",
"7  c #3A393A",
"8  c #3B393A",
"9  c #3A383B",
"0  c #3B383B",
"q  c #3A393B",
"w  c #3B393B",
"e  c #3E3E42",
"r  c #3F3E42",
"t  c #3E3F42",
"y  c #3F3F42",
"u  c #3E3E43",
"i  c #3F3E43",
"p  c #3E3F43",
"a  c #3F3F43",
"s  c #424042",
"d  c #434042",
"f  c #424142",
"g  c #424043",
"h  c #434043",
"j  c #424143",
"k  c #434143",
"l  c #4C4142",
"z  c #4D4142",
"x  c #4C4043",
"c  c #4D4043",
"v  c #4C4143",
"b  c #4D4143",
"n  c #484448",
"m  c #494448",
"M  c #484548",
"N  c #494548",
"B  c #484449",
"V  c #494449",
"C  c #484549",
"Z  c #494549",
"A  c #484848",
"S  c #494848",
"D  c #484948",
"F  c #494948",
"G  c #484849",
"H  c #494849",
"J  c #484949",
"K  c #494949",
"L  c #4C484C",
"P  c #4D484C",
"I  c #4C494C",
"U  c #4D494C",
"Y  c #4C484D",
"T  c #4D484D",
"R  c #4C494D",
"E  c #4D494D",
"W  c #4E4E4E",
"Q  c #4F4E4E",
"!  c #4E4F4E",
"~  c #4F4F4E",
"^  c #4E4E4F",
"/  c #4F4E4F",
"(  c #4E4F4F",
")  c gray31",
"_  c #5A565A",
"`  c #5B565A",
"'  c #5A575A",
"]  c #5B575A",
"[  c #5A565B",
"{  c #5A575B",
"}  c #5B575B",
"|  c #585858",
" . c #595858",
".. c #585958",
"X. c #595958",
"o. c #585859",
"O. c #595859",
"+. c #585959",
"@. c gray35",
"#. c #5A585A",
"$. c #5B585A",
"%. c #5A595A",
"&. c #5B595A",
"*. c #5A585B",
"=. c #5B585B",
"-. c #5A595B",
";. c #5B595B",
":. c #626262",
">. c #636262",
",. c #626362",
"<. c #636362",
"1. c #626263",
"2. c #636263",
"3. c #626363",
"4. c gray39",
"5. c #686868",
"6. c #696868",
"7. c #686968",
"8. c #696968",
"9. c #686869",
"0. c #696869",
"q. c #686969",
"w. c DimGray",
"e. c #6A6C6A",
"r. c #6B6C6A",
"t. c #6A6D6A",
"y. c #6B6D6A",
"u. c #6A6C6B",
"i. c #6B6C6B",
"p. c #6A6D6B",
"a. c #6B6D6B",
"s. c #747474",
"d. c #757474",
"f. c #747574",
"g. c #757574",
"h. c #747475",
"j. c #747575",
"k. c gray46",
"l. c #787678",
"z. c #797678",
"x. c #787778",
"c. c #797778",
"v. c #787679",
"b. c #797679",
"n. c #787779",
"m. c #797779",
"M. c #7E7E7E",
"N. c #7F7E7E",
"B. c #7E7F7E",
"V. c #7F7F7E",
"C. c #7E7E7F",
"Z. c #7F7E7F",
"A. c #7E7F7F",
"S. c gray50",
"D. c #8A888A",
"F. c #8B888A",
"G. c #8A898A",
"H. c #8B898A",
"J. c #8A888B",
"K. c #8B888B",
"L. c #8A898B",
"P. c #8B898B",
"I. c #9C989C",
"U. c #9D989C",
"Y. c #9C999C",
"T. c #9D999C",
"R. c #9C989D",
"E. c #9D989D",
"W. c #9C999D",
"Q. c #9D999D",
/* pixels */
"Y.Y.R.Y.Y.K.K.R.Q.T.P.T.Y.Y.H.Y.r.9.s.s.5.5.|  .| |  .X.5.8.s.f.f.T.Y.W.Y.I.I.K.J.R.T.I.L.I.Y.G.Y.i.",
"T.M.Z.S.y.A.Z.S.Z.r.y.A.A.B.S.Z.#.g.5.A / H H a e u A D ) ^ F 6.w.T.B.S.C.y.y.S.Z.S.Z.e.y.B.A.S.Z.#.",
"J.A.4.:.%.;.&.&.2.4.,.4.i.i.v.p.#.5.A S Q O.@./ A r a a F ( H A k.L.A.4.1.%.%.-.#.%.>.4.,.4.a.v.a.%.",
"P.e.=.Y.W.W.H.P.Y.U.L.W.2.2.P.x.;.f.a ) A A a i i F G / ^ ) ) ( s.P.t.%.Y.Q.W.Y.P.P.Y.U.P.Y.2.P.n.-.",
"T.A.&.T.F.C.A.l.V.V.S.y.2.2.P.S.$.q.S ~  .O.H r F W ..| @.) A u 6.Q.A.;.Y.F.F.S.A.n.V.V.S.i.4.P.S.&.",
"Y.S.#.W.S.c.t.t.c.l.S.v.>.:.P.S.%. .( S y r t y y p r F F i u r 5.Y.C.#.W.S.S.m.t.t.c.z.S.v.<.L.B.-.",
"P.p.%.P.C.m.%.-.#.G.V.p.4.4.I.v.-. .^ ..Q H r S Q @.O. .|  .^ u  .P.t.&.H.A.A.b.%.*.&.D.S.a.4.Y.v.-.",
"L.A.-.Q.l.u.%.-.#.T.S.v.#.%.Y.e.-.O.A A r S G ) +.o./ ! A G G S O.L.S.*.Y.l.l.t.%.-.#.T.V.v.%.Y.t.-.",
"P.y.%.P.A.z.%.&.#.H.x.t.%.&.W.z.%. .e i i K F a S r r e a F r S O.P.y.%.P.C.C.z.#.&.$.P.l.e.%.Q.b.%.",
"Y.t.4.K.Z.l.D.U.L.F.Z.t.#.*.T.z.%.o.H Q ) u / / J ! )  .X.| ( ^ +.T.t.2.J.Z.M.z.F.E.L.F.S.t.#.I.l.%.",
"I.V.<.Q.S.M.K.A.K.S.x.a.%.%.L.x.&.X.F A ~ O.@.^ ) / K S ) ~ Q G  .U.S.,.Q.S.S.M.P.A.F.S.l.y.%.P.x.$.",
"I.S.1.W.z.r.z.t.x.e.t.r.2.3.H.Z.%.9.W ( / H S r r t S t K H y t  .Y.Z.3.W.b.b.r.c.e.x.e.t.t.4.H.V.#.",
"I.S.e.4.<.,.%.$.%.-.%.3.3.1.J.v.%.f.i i H S S G K r S O.| ( G r j.I.A.e.<.4.2.<.;.$.%.-.*.,.3.P.z.#.",
"I.S.e.2.<.<.%.#.%.-.%.3.,.3.P.v.%.s.i i S S H H K r S O.| ( G r j.R.S.e.<.3.4.<.%.$.&.&.&.3.3.K.v.&.",
"L.F.Y.I.H.F.Y.R.T.E.P.K.G.G.A.l.%.s.F G !  .) S ! | O.! S u S G s.P.F.I.Y.P.P.K.T.Y.W.U.P.F.G.A.x.#.",
"L.z.x.A.n.e.b.N.Z.l.z.t.x.x.a.y.#.d.7.S ( ^ H r A G / S r e K 9.j.G.z.l.A.n.m.t.l.N.S.v.z.t.x.a.t.#.",
"t.&.%.=.%.;.=.%.%.#.&.#.&.#.%.*.%.7.s.5.g.5.5.| X.| o.o.+.f.o.s. .t.&.-.=.%.-.-.;.%.&.#.*.#.&.%.*.%.",
"5.s.s.7.5.o. .| | | X.5.8.8.s.f.j., - , , , , < , 3 1 , - 4 , - O 5.s.s.5.5.5.|  .| |  ...6.8.s.f.f.",
"g.7.S / S H p e e J S / ~ ) F 5.q.: M { ' ' ' ' _ ' { { E _ ' R O g.5.S / S F S a t t D K ) ! K 5.q.",
"5.D A ) X.O.) S a a a F ( ! S S k., [ w n B I I Y g V v b M n E o 5.A A ) |  .O./ F r p a F ) H S k.",
"f.p ) A S i r r D H / ^ ) ) ) ( h.2 { h Z v x T U N Y Y z k 7 R X f.a ( G S H i r r F H ) ^ ) ) ( j.",
"9.S /  .@.H r F Q .. .X.) ) A u 7.1 ' n h v P z T U E I n h 2 Z @ 9.H W  . .O.H e F / +. . .) G u 7.",
"O.( H y r y a y u r F F i r e e 5.2 _ h N h l Z R ` E E P h 3 N -  .) S y r r y y y u r F S a t e 5.",
" .^ X.~ S y S /  . .X. .O. .^ e O.4 ' k s f Z U L E ] B C m w n o | ^ X.~ S S r S /  . . . . .^ e O.",
" .A S r H G ) +.O.) ( A K H G S @., { M h q P Y E U E M k M q I o  .A A i S A J ) +.@./ ( S H H S o.",
" .i r r S F a S r r t a F F r S o.3 ' M E L R R M M T d N j 9 M -  .i r r H S F p S r y p a F r S X.",
"| F Q / u ~ ~ F ! )  . .o.o.( ) o.1 } Y Y [ R g d h n h s n 7 N : o.S W ) i u / ) F ! )  . .o.( ( | ",
"X.F A ) O.@.! ) / J S ) ) ( Q J  .- E E U l E g d d h 6 q 1 , Y o X.F S ~ O.O.+.^ ) / J A / ) / G X.",
"8.W ( ) H S r e y D t K F S e t | < { U c E v n w 7 h 7 w 3 $ E O 6.W ( ) H H A r i y S p K F e u  .",
"s.i i F S S H J r H O. .( ! G y j.* I w M n C h 8 w d 8 < & % U + d.i u H H S F H K r S O.| ( A e j.",
"s.K G !  .! H ( | O.( S p u S A s.= P 7 4 w 0 5 1 % # & % % < E > s.K H ~ | X./ S ( | O.( A u S A s.",
"d.7.S ( ^ S i A G Q S e r r K 6.j.- U n V M U E U n I P U E P M + s.7.H ( ^ ^ S r A H / H y r K 6.j.",
"q.s.5.f.6.5..... .o.O...f.f. .s.O.- o o . @ = ;   o   > - + O O o 7.f.5.j.6.5.5... . .o.O...f.| d. .",
"I.U.R.W.Y.K.K.E.T.T.P.Y.Y.T.K.Y.r.6.s.s.7.5.o. ... . ...6.8.h.f.g.Y.Y.W.Y.Y.Y.K.K.R.T.T.H.Y.W.H.T.r.",
"W.V.S.A.y.A.Z.S.S.t.y.B.A.A.S.Z.%.f.5.S Q F H a e u D K ) ( F 5.5.Y.B.A.S.y.y.A.Z.S.Z.r.t.B.C.S.Z.$.",
"G.C.4.:.%.;.%.&.2.<.,.4.a.p.v.p.&.5.A F )  .O./ F e a a F ~ S S k.L.C.2.1.%.%.-.%.%.2.3.,.4.a.n.a.%.",
"P.t.%.T.W.Y.P.P.Y.U.P.W.4.2.H.x.%.f.y ) S S a r i F H / ( ) ~ ( s.P.e.%.Y.W.W.W.P.P.Y.U.P.Y.1.P.x.%.",
"T.C.;.Y.D.N.C.l.S.V.S.r.4.4.P.S.%.0.S )  .o.H r F / ..| O./ S u 7.T.A.;.W.F.F.Z.S.l.S.V.S.r.2.P.S.&.",
"T.A.%.Y.F.C.A.l.V.V.B.r.4.2.P.S.&.7.H )  .O.H e F / @. . .) A i 7.T.A.-.T.H.D.S.A.l.Z.N.A.r.3.P.S.;.",
"Y.Z.#.W.S.c.y.t.m.z.S.v.<.<.P.A.%. .( S y r a a y u r D S r e e 5.Y.N.#.W.V.S.c.t.t.x.b.A.v.<.P.A.%.",
"P.p.%.P.A.z.%.*.#.H.V.p.4.3.I.v.-. .^ ..! S i S /  .O. .O.| ( e O.P.p.%.K.A.C.b.%.;.%.P.V.p.4.Y.v.-.",
"L.A.#.W.l.u.%.-.#.T.V.v.#.%.Y.e.-. .D S r S G ~ +.O./ ( A H H S  .H.A.*.W.l.z.e.%.-.*.T.V.v.%.Y.t.*.",
"H.y.%.P.C.z.%.&.$.P.x.t.-.#.Y.b.-. .r r y H F a A r r t a K r S O.K.y.%.L.A.A.z.#.&.%.H.l.t.%.W.b.%.",
"T.t.4.K.Z.c.G.R.K.F.Z.r.#.#.Y.l.#.o.S Q ) u / ) D ! ) |  .+.( ( | U.t.4.K.Z.Z.c.F.E.L.F.S.e.#.Y.n.#.",
"I.Z.<.Q.S.M.K.A.L.S.x.t.&.%.P.n.-.X.F G ~  .+.^ ) / J S ) / ~ G  .I.S.<.Q.Z.S.N.K.A.J.Z.x.y.%.P.x.&.",
"Y.S.3.R.z.r.c.p.l.r.p.e.4.4.H.A.%.6.W ) ( H S r r r K e K A r p X.Y.S.3.Y.v.z.r.c.y.x.r.t.e.4.P.S.-.",
"R.V.r.4.2.<.%.;.%.-.#.,.3.3.P.v.%.s.i i S H A H K r S O. .( G r j.E.S.u.3.4.4.>.&.$.%.-.#.3.3.L.v.%.",
"L.K.U.I.P.K.I.Y.Q.U.L.D.G.G.C.l.%.d.K G ! O.) H !  .O.( S u S A g.P.K.I.I.K.P.K.Y.U.Q.U.P.F.G.A.l.#.",
"L.z.x.A.n.u.l.N.Z.l.z.e.x.n.a.y.%.d.7.S ( ^ S r S G / H r r F 0.k.L.z.l.A.n.m.r.l.N.N.z.z.t.x.a.y.-.",
"t.$.%.=.%.-.;.&.%.#.%.$.&.&.%.-.%.6.s.5.f.6.5.| X.@.o.O.| f.o.s. .t.&.%.=.%.%.-.;.%.%.*.#.#.&.%.*.%."
};
