/* XPM */
static char *result[] = {
/* columns rows colors chars-per-pixel */
"50 50 144 2 ",
"   c gray10",
".  c #1B1A1A",
"X  c #1A1B1A",
"o  c #1B1B1A",
"O  c #1A1A1B",
"+  c #1A1B1B",
"@  c gray14",
"#  c #252424",
"$  c #242524",
"%  c #252524",
"&  c #242425",
"*  c #252425",
"=  c #242525",
"-  c #252525",
";  c #2D2C2C",
":  c #2C2D2C",
">  c #2D2D2C",
",  c #2C2C2D",
"<  c #2D2C2D",
"1  c #2C2D2D",
"2  c #2D2D2D",
"3  c #383636",
"4  c #393636",
"5  c #383736",
"6  c #393736",
"7  c #383637",
"8  c #393637",
"9  c #383737",
"0  c #393737",
"q  c #32333C",
"w  c #33333C",
"e  c #32323D",
"r  c #33323D",
"t  c #32333D",
"y  c #33333D",
"u  c #353640",
"i  c #353740",
"p  c #343641",
"a  c #353641",
"s  c #343741",
"d  c #353741",
"f  c #3E3E42",
"g  c #3F3E42",
"h  c #3E3F42",
"j  c #3F3F42",
"k  c #3E3E43",
"l  c #3F3E43",
"z  c #3E3F43",
"x  c #3F3F43",
"c  c #3C3E4C",
"v  c #3D3E4C",
"b  c #3C3F4C",
"n  c #3D3F4C",
"m  c #3C3E4D",
"M  c #3D3E4D",
"N  c #3C3F4D",
"B  c #3D3F4D",
"V  c gray25",
"C  c #414040",
"Z  c #404140",
"A  c #414140",
"S  c #404041",
"D  c #414041",
"F  c #404141",
"G  c #414141",
"H  c #484848",
"J  c #494848",
"K  c #484948",
"L  c #494948",
"P  c #484849",
"I  c #494849",
"U  c #484949",
"Y  c #494949",
"T  c #4E4A4E",
"R  c #4F4A4E",
"E  c #4E4B4E",
"W  c #4F4B4E",
"Q  c #4E4A4F",
"!  c #4F4A4F",
"~  c #4E4B4F",
"^  c #4F4B4F",
"/  c #4A4C4E",
"(  c #4B4C4E",
")  c #4A4D4E",
"_  c #4B4D4E",
"`  c #4A4C4F",
"'  c #4B4C4F",
"]  c #4A4D4F",
"[  c #4B4D4F",
"{  c #4E4E4E",
"}  c #4F4E4E",
"|  c #4E4F4E",
" . c #4F4F4E",
".. c #4E4E4F",
"X. c #4F4E4F",
"o. c #4E4F4F",
"O. c gray31",
"+. c #585858",
"@. c #595858",
"#. c #585958",
"$. c #595958",
"%. c #585859",
"&. c #595859",
"*. c #585959",
"=. c gray35",
"-. c gray36",
";. c #5D5C5C",
":. c #5C5D5C",
">. c #5D5D5C",
",. c #5C5C5D",
"<. c #5D5C5D",
"1. c #5C5D5D",
"2. c #5D5D5D",
"3. c #686868",
"4. c #696868",
"5. c #686968",
"6. c #696968",
"7. c #686869",
"8. c #696869",
"9. c #686969",
"0. c gray43",
"q. c #6F6E6E",
"w. c #6E6F6E",
"e. c #6F6F6E",
"r. c #6E6E6F",
"t. c #6F6E6F",
"y. c #6E6F6F",
"u. c #6F6F6F",
"i. c #747474",
"p. c #757474",
"a. c #747574",
"s. c #757574",
"d. c #747475",
"f. c #757475",
"g. c #747575",
"h. c gray46",
"j. c #888888",
"k. c #898888",
"l. c #888988",
"z. c #898988",
"x. c #888889",
"c. c #898889",
"v. c #888989",
"b. c #898989",
/* pixels */
"t v f.d.~ ! u i s.i.<.W a a ^ B q +.r.0.' r.0.u.0.r.q.q.#.F 7 2 - t v f.d.E ~ ^ u s h.i.,.W p W M t ",
"q p.>.-.z.:.,.^ b.,.:.d.R ^ -.^ b 0.@.+.7 +.+.+.+.[ $.+.+.&.D 2 * y f.-.,.l.z.-.<.^ b.;.-.f.! -.W c ",
"M f.b.i.b.i.i.;.c.d.p.j.p.p.,.,.,.q.&.+.*.7 ] [ %.5 9 4 &.9 D G @ B d.b.i.x.v.i.i.<.b.d.p.v.s.,.,.,.",
"^ -.p.^ ,.^ -.:.R ^ ~ W R ! d.i.^ r.G ( +.[ 5 6 9 #.( ' 5 G _ D & ^ -.s.^ ,.,.^ :.:.R ^ ~ W ! d.i.^ ",
"M -.-.Q b.z.v.l.s.p.a.d.^ ^ ^ ! c q.7 #.G $ S ' G ( ] A G @ 7 F = M ,.-.! b.b.j.x.l.i.p.a.f.~ ^ ^ c ",
"c x.p.;.b.<.~ -.:.R ,.a.W W a.>.,.%.' 0 & Z 6 G % $ A @ @ A = : # c x.p.;.b.b.<.Q ;.-.! 1.s.W a.:.1.",
"v <.! ~ k.^ l.p.b.g.R i.2.>.v.b.;.0 5 5 @ 5 0 < 6 7 # 2 9 5 @ 7 % v <.! ^ v.c.! v.p.v.g.^ a.2.b.z.-.",
"a.v.z.W v.! v.W 1.s.;.a.! ! i.-.;.2 1 @ o 2 $   +   . < ; @ O % > a.x.z.^ b.v.^ v.^ 2.s.-.a.E i.-.-.",
"-.1.;.^ d.~ b.-.E d.E x.^ ^ z.a.~ y.r.$.6 t.6 ' O ' 4 e.w.e.( %.w.-.1.;.^ a.i.Q c.-.E i.~ x.^ k.a.Q ",
"v h.b.Q s.-.i.g.i.i.~ b.<.2.z.c.p.%.@.' G @.G 7 $ 9 y.$.%.%.' G G v s.v.Q s.a.-.i.d.i.p.^ b.>.l.k.i.",
"E -.g.R i.,.! >.E ! -.b.E E p.-.,.D ` : @.9 _ D & e.+.#.$.( $.*.#.E -.a.W i.i.,.^ >.T ^ 1.b.E s.-.,.",
",.:.s.^ i.p.a.i.i.b.b.v.^ ^ i.d.B %.2 ` ' +.5 0 @ ' +.: F ' S +.$.:.-.p.W i.i.p.a.i.a.x.b.v.^ i.d.n ",
"~ d.p.<.^ ^ ! 1.W ,.W ^ ^ ^ b.h.W ` 2 G C ' +.2 $ 3 > S +.2 ' $.%.~ d.p.<.^ ^ ^ ^ :.! ,.W ~ ~ b.f.W ",
"~ h.i.1.R W ~ :.^ ,.W E ^ ^ v.d.W ' 2 F V ( +.2 % 4 > D @.1 ` $.%.~ g.i.<.^ ^ ! ^ :.^ <.W ^ ^ b.f.W ",
"B ,.z.k.i.^ z.;.p.b.<.-.a.a.i.i.N 0 = 9 G G G 3 # &.G 3 @._ > [ Z n -.z.c.p.p.! z.<.p.b.<.-.g.d.i.N ",
"m i.f.b.p.1.a.p.a.v.-.p.;.>.p.;.M 9 - 2 6 0 0 4 = 0 0 9 3 9 9 7 6 M d.p.v.p.i.1.i.d.a.l.-.i.>.p.>.M ",
"e v 1.f.-.1.W s.d.i.1.! <.<.p.v e > % @ 2 1 ; % # $ @ ; 1 2 1 2 1 r v 1.i.;.,.1.~ s.d.i.:.! ;.p.v e ",
"+.0.0.' r.q.t.0.r.0.0.#.S S 9 2 & 3.i.a.3.3.&.@.%.+.+.=.3.6.p.g.a.%.r.0.' 0.0.q.t.0.r.t.0.#.F 9 2 = ",
"q.@.+.9 +.+.+.%.[ @.+.+.&.&.D < * s.3.J X.H I x f f K L O.o.L 9.5.0.@.%.5 +.#.@.+.+.] $.+.+.@.D < * ",
"e.*.+.*.8 ` [ +.9 9 0 %.9 9 D G @ 3.P J O.@.&.X.J g x z L X.P J g.0.+.&.*.7 9 ` ' +.5 9 0 &.9 G F @ ",
"r.G ' #.] 5 4 5 #.( ' 6 G F [ D = a.x | K J k f l L I o...O.o.o.d.r.G ( %.[ [ 9 4 9 #.( ` 6 S [ D & ",
"w.9 #.F % S ' G ( [ A F @ @ 5 F & 7.J O.@.&.Y g Y X.#.@.&.O.J k 5.r.9 #.A $ - S ' G ( ] Z G $ 9 G * ",
"%.` 9 & F 4 G % = F @ @ Z A * 2 * @.| J x g h x j k g L J l f z 3.%.' 9 & G D 6 G % $ Z @ $ F * 1 # ",
"6 5 5 @ 5 0 < 5 7 @ 2 9 5 5 $ 9 % @...$. .K g J O.@.%.@.@.@.o.k &.6 9 9 & 5 5 0 1 5 7 # 2 0 3 @ 9 % ",
"2 , & X 2 $ X o   . < > @ & O % 2 @.H I g J I O.*.@.X.o.U P I I &.2 1 @ o 2 > @     . . 2 : @ O - > ",
"r.r.#.0 r.6 ` + _ 3 0.0.w.e.' *.0.&.f g g J L k J f g h x L l J &.r.r.#.0 r.r.6 ` O _ 3 w.w.e.( %.0.",
"%.@.' F #.F 9 # 9 0.*.#.%.%.] A D *.J } ..l X.O.K |  .@.@.&.| ..%.*.$.' C +.@.D 9 @ 9 w.#.@.&.' G A ",
"S ` : +.9 [ S $ w.@.+.@.( _ =.#.#.$.L P  .&.=...O.X.U L O.O.} P @.S ) : +.7 9 [ G @ w.%.+.#.( $.#.#.",
"%.2 ` ' +.7 9 @ ' +.< F [ ' S %.$.4.{ | O.I J f f j J h Y J f f @.%.2 ` / +.+.9 9 # ' +.2 Z ` S =.$.",
"` 2 Z C ' +.2 @ 4 ; D #.> < ` =.%.i.g l J J J J Y g I &.@.o.P g g.] 2 F C ' ' $.1 @ 4 > S +.1 ` @.%.",
"0 $ 9 G A F 3 # &.G 9 &.` ( < ` S i.U P | @.O.I o.+.=.o.H k J H a.9 = 9 A G G G 3 # %.G 7 @./ 2 [ S ",
"9 = 2 6 0 8 6 @ 0 0 9 7 5 9 9 9 6 i.5.J o.X.J f H I X.P k g U 8.d.9 $ 1 6 8 6 0 5 @ 0 6 5 3 8 9 3 6 ",
"> # @ 2 1 ; # # $ @ ; , 2 < 1 2 1 6.i.7.a.8.3.+.$.@.%.@.#.a.+.i.+.> % @ > , , ; # @ $ @ ; , 2 1 2 1 ",
"t v f.d.~ ^ u d s.i.1.W a a E v q +.r.0.' w.t.t.0.r.0.t.#.F 0 2 & t v f.d.E E ! u d p.i.1.W d ! B t ",
"y f.:.1.z.-.<.^ b.;.-.f.! ! ;.W c q.@.+.9 +.+.#.+._ $.%.@.&.D < * y f.:.,.l.z.;.,.^ z.;.-.f.! -.^ c ",
"v i.c.d.v.a.i.>.b.d.p.v.i.p.,.,.1.0.%.#.*.9 ` ` @.9 9 0 &.9 D A @ v f.b.i.l.v.i.a.>.b.d.d.v.p.1.,.,.",
"^ -.p.^ ,.^ :.:.R ^ ~ W ! ! g.a.^ r.G ( +.[ 9 6 9 +.( ' 6 G [ D & ^ -.h.Q ,.-.^ ;.:.R ^ ~ W ! d.i.^ ",
"M -.<.R z.z.v.v.s.i.i.d.W W Q ^ b 0.0 +.G @ S [ G ) [ Z F @ 0 G & M ,.-.! b.v.k.v.l.i.p.i.d.^ ^ ~ b ",
"M ,.-.! b.z.v.v.i.i.p.d.^ W ^ ^ b r.5 #.G $ F ] G ( _ A A @ 9 G & M -.;.! b.b.z.x.l.i.p.d.d.R ^ ^ b ",
"v x.p.;.b.<.~ -.-.R ,.s.W W d.1.1.%.( 9 & G 6 A % = Z & $ A & 2 # v x.f.-.x.v.2.E ,.,.! -.a.W i.>.,.",
"v ;.! ^ c.^ b.h.b.g.^ p.2.2.b.c.-.9 5 5 @ 5 0 2 5 7 % 2 9 5 @ 9 % n >.! ^ c.x.^ v.i.b.h.W i.-.v.k.>.",
"g.v.z.T b.R v.~ ,.h.;.a.! R i.-.;.2 1 % o 2 @ + X   . < > @ O - > a.v.l.^ z.c.Q v.W 2.s.;.a.! i.;.;.",
"1.1.<.! i.~ b.-.W f.T x.^ ~ z.a.Q r.r.#.0 y.6 `   ' 4 w.0.e.' *.q.-.1.;.~ i.p.~ k.,.E i.~ x.^ z.a.Q ",
"c s.b.Q s.:.d.d.i.i.~ b.<.2.l.v.i.*.#.' G +.G 9 @ 7 y.#.+.%.' A G v h.z.Q h.s.-.i.d.i.i.^ b.>.v.b.i.",
"E -.a.R i.1.^ ;.Q R ;.z.W E p.-.,.S ` : $.9 ' A @ e.@.+.@.( $.#.+.W :.a.W i.p.,.W ;.Q ! :.z.E s.;.,.",
":.-.p.W i.p.a.i.i.b.b.v.^ ^ i.d.n %.2 ` ( @.9 9 @ ' @.1 F [ S %.@.-.;.p.^ i.i.i.s.i.i.b.b.v.~ i.h.v ",
"~ d.p.2.Q ! W :.^ <.W ^ ^ ^ b.f.W ` 2 G C ' +.2 @ 4 > D +.2 ` @.&.~ a.p.<.^ ~ ~ ^ 1.^ :.E ^ W b.f.W ",
"B -.c.c.f.! k.2.p.b.2.,.a.s.i.p.m 8 = 9 G G F 3 # %.G 9 @.' > [ V B ,.k.c.p.p.^ b.<.p.b.<.-.d.i.d.N ",
"m i.p.v.i.1.i.f.a.l.-.i.;.>.p.;.B 9 = , 6 9 0 6 @ 6 0 9 7 9 9 8 5 M a.p.x.i.i.1.a.f.g.v.-.s.;.p.-.M ",
"e v ,.g.:.1.^ f.d.a.2.Q ;.;.f.v e , % $ 2 1 > # # $ & ; , 2 < 2 , w m 1.i.,.,.1.E s.d.a.1.! ;.f.v e "
};
