/* XPM */
static char *result[] = {
/* columns rows colors chars-per-pixel */
"80 80 64 1 ",
"  c #38383E",
". c #39383E",
"X c #38393E",
"o c #39393E",
"O c #38383F",
"+ c #39383F",
"@ c #38393F",
"# c #39393F",
"$ c #4A4A52",
"% c #4B4A52",
"& c #4A4B52",
"* c #4B4B52",
"= c #4A4A53",
"- c #4B4A53",
"; c #4A4B53",
": c #4B4B53",
"> c #686868",
", c #696868",
"< c #686968",
"1 c #696968",
"2 c #686869",
"3 c #696869",
"4 c #686969",
"5 c DimGray",
"6 c #747474",
"7 c #757474",
"8 c #747574",
"9 c #757574",
"0 c #747475",
"q c #757475",
"w c #747575",
"e c gray46",
"r c #7E7E7E",
"t c #7F7E7E",
"y c #7E7F7E",
"u c #7F7F7E",
"i c #7E7E7F",
"p c #7F7E7F",
"a c #7E7F7F",
"s c gray50",
"d c #8E8E8E",
"f c #8F8E8E",
"g c #8E8F8E",
"h c #8F8F8E",
"j c #8E8E8F",
"k c #8F8E8F",
"l c #8E8F8F",
"z c gray56",
"x c #A2A4AC",
"c c #A3A4AC",
"v c #A2A5AC",
"b c #A3A5AC",
"n c #A2A4AD",
"m c #A3A4AD",
"M c #A2A5AD",
"N c #A3A5AD",
"B c #AAB0B8",
"V c #ABB0B8",
"C c #AAB1B8",
"Z c #ABB1B8",
"A c #AAB0B9",
"S c #ABB0B9",
"D c #AAB1B9",
"F c #ABB1B9",
/* pixels */
"ZZZZZvvvvvCCCCCVSVVVxxxxxlllllvvvvvkkzkkhhhhhzzkzzhhhhhccccckkfkkxxxxnxxxxxCCCCC",
"ZZZZZbvvvvCCCCCBVVZVxxxcxllllzvvvvxkfkhkhhhfhzzzkzhhhhhccccckkkkkxnxxxxxxxxCCCCC",
"ZZZZZvvvvvBCCCCVVVCVxxcxxlllllvxvvvzkkkkhhhghzzzzhhhfhhcbcccjkkkkxxxxxxxxxxCVCCC",
"ZZZZVvvvvvCCCCCVSSVVxxxxxzlllzvvvvvkfkkkhghzgzzzzzhhhhlccccckkkkkxnxxxxxxxxCCCCC",
"ZZZZZvvvvvCCCCCVVVVVxvxxxljlllvvvvvkkkkkhghhhzhzzzkhhhhccccckkkkkxxxxxnnxxxCZCCC",
"VVVVVcxxvxsssssOO OO++++.-=======-======>>>>>=====,>>2>>>>>>-----yyyyyxxnxxxxxxx",
"VVVZVxxvnxsssssOOOO++#+++====$====;=-===>>>>>=====>>>>,>>>>>-----yyyryxxxnxxxxxx",
"VVVVVvxnbxsssssOOOO++O.++===============>>>>>=====>>>>><><>>-----yyyyyxxxxxxxxxx",
"VZVVVvxxxxussssOOOOO+++++====$==========>>>,>=====>>>>>>>>>>-----yyyyyxxxxxxxxxx",
"VVVVVxxxxxsssssOOOOO#++++===-===========>>>>>=====>2>>>>>>>>-----yyyyyxxxxvxcxxn",
"xxxxxssssusssss1<<<<06000aaaaa66667iiiii7777766666>,><>aaaaa>>>>>ptpppyyyyyxxcnx",
"xxxxxusssssssss<<<<<00000aaaaa66666iiiai7777786660>>>>>yaaaa>>>>,pppppyauyyxcxxx",
"xxxxxsuasssssss<><<<0w000aaaaa66668iiiia7777q66666>>>>>aaaay>>>>2pppppyaayyxxxxx",
"xxxxxssssssssss<<<<4w0000aaaia66666iiiii7777766q66>>>>>aasaa>>>>>pppppyayyuxxxxx",
"xxxxxssssssssss>1<<<00000aaaaa66666iiiii7677q06666>>>>>aisaa>><><pppppyyyyyxxcxx",
"vvvbx=====*%%%%>>>>>aaaas00000@    OO+OO++++++O@ Oppppp99999>>>>>-----OOOOObbbbb",
"vvvvv=====-%%%%>>>>2aaaya00000     + OOO+++++OOOOOppppp99999>>>>>-----OOOOObbbbb",
"vvxvv$====%%%%%>>>><aaaaaq0000  X  OOOOO+++.+OOOOOppppp99999>>>>2--%--OOOOObbbbb",
"vvxvv=====%%%%%>>>2>aaaaa00000     OOOOO+ ++.OOOOOppppp96799>>>>>-----OOOOObbbbb",
"vvvvv=====%%*%%>>>>>asaaa00q0w     OOOOO+++++OOOOOppppp999e9>>>>>--:--OOO@Obbbcb",
"bcbbb=====77777777777777qzzzzz#@OX@eqeeeppppp     ssssszzlhzsssssqqqqq@@@@@zzzzz",
"bbbbb=====q67777767777777zzzzz@@@@Xeeeeeipppp     usssshzzzksssss0qqq0@@@@@gzzzz",
"bbbbb-====777777779777777zzzzz@@@O@eeeeepppppX    sspsszzzzzsasssqqqqq@@@@@zzzzz",
"bbbbv=====777q77777777777zzzzz@@@@@eeeeepppsp O   ussuskzzzzsspssqqqqq@@#@@zzzzz",
"bbbbb=====777q77779767777zzzzz@@@@@eeeeepppppO    sussszzzzzsssusqqqqqO@@O@zzzzz",
"saaaa===;-zzzzzspsaszzzzz.....tttttttttp76777yyyya@@@@@ppsppsssspzzkzz$$$$=hghhh",
"aaaaa====;zzzzzusssszzhzk.....tttttttttp76777yyyyy@@@@@pppppsssuszzzzz$$$%$hhhhh",
"aaaaa=====zzzkzsssaszzzzz..+..tttttttttt77777yyyyr@#@@@pppppassuszzzzz$$$$$hhhhh",
"saaaa=====zzzzzusssszzzzz.....prtttttttt77777uyyyy#@@@@ppptssssuszzzzz$$$$$hhfhh",
"aaaaa=====hzzzjssssslzzzz.....tptrtttttt77777yyray@@@@@spsptssssszzzzz$$$$$hfhhh",
"sssss>>>2>zzzzz+++++@OOOO77777hhzhhOOO O@X@@@iripiq7777OOOOO+++++kkkkk::;::zkzzz",
"assss>>>>>zzhzk+++++ @O@O77777hhzhhOOOOO@@@@@iiiii79776OOOOOO+#++kkkfk:::::llzzz",
"pssss>2>>>kzzhh+++++OOOOO97777hhhhhOO@@O@@@@@iiiii77777OOOOO+++++kkzkk::-::kzzzz",
"sssss>>>>>zzzzz+++++OOOOO77777hhhzhOOOOO@@#@Oiiiii77977OOOOO+++++kkkkk:::::zzzzz",
"sssss>>>>>zzzzz+++++OOO O77777hhhhkOOOOO@@@@@iiiii76779O+OOO+++++jkfkk::::;zjzzz",
"pptpp-----77977X@@@@77777sssssOOOOO+++#+@@@@@OOOOOzzzzzsssss##o##ssssp&;;:;sssss",
"ppppp-----7q777@@@@@77777sspspOOOOO+++++@@@@#O+OOOzzzzzssssu#####ssssu;;;;;sssss",
"ipppp----%77767@X@@@77q77sssspO .OO+#+++@XO@@OOOOOzzzzzsssss#####sssss;;;;;sasss",
"ppppi-----79777@@@@@7777qsasssOOOOO#+.++@@##@O@OO zzzzzsssss#o###sssss;;;;=sussu",
"ppssp-----76777@@@@@77777ssusaO.OOO+++++@@@X+OOO++zzzzzsusss####+sssis;;;;;sssss",
"iiiii,,,1,sssss;;;&;ssssszzzhz-:-=-OOOOO====$;$===zzzzzfkkfk;;;;&86667--%--zzzzz",
"iiiii,,,,,sssss;;;;;ssssuzzzhz---%-OOOOO========$-zzkzlkkkjk=;;;;66666-----zkzzz",
"iipii,,,,,assss;;;;;puapszzzhk---=-OOOOO=;==$===$=zzzzzkkkkj;;;;;66686-----zzzzz",
"iarpi,,,,,sssss;;;=;sussszzzzz-----OOOOO==$$$=====zzzzzkkkkk;;;;;66766::---zzzzz",
"pirii,,,,,sssss;;;;;ssssszzzzz-----OOOOO==-=======zzzzzkkkkk;;;;;66666%----zzzzh",
"auaaa>><>>sssss=====$&$$$67777MMMMM==========Mnnnnptttt==========zzhzz>>>>>uasss",
"aaaaa<>>,>sssss===-=%$$$$77779MMMMM%======$==nnnnnttttt==$====;==zzzzz>>>>>sssss",
"aaaaa>>,>>sssss=====$$$$$77777MMvMM==========nnnnnrttpt==========kzzzz>>>>>sssss",
"iaaaa>>>><sssss=====$%$$$77777MMMMM=-========nnnnnttutt==========hzzzl>>>>>ssass",
"aaaaa3>>>>sssss=====&$$$=777q7MMMMM==-===;===nnnnnptttt==========zzhzz>>>>>sssss",
"sssss>>,>>ssssscccccxxxxx=====jjdjjnnnnnccccckkkfk%%%%-MMMMMxxxxxhhhhh$$$$$ttttt",
"sssss>>>>>ssssscccccxxxxx=====jjjjjnnnnnccccckjkkk%%%%%nMMMMxxxvxhhhhz$$$$$ttttp",
"sssus>>>2>susiscccxcxxxxx=====jjjjjnnnnnccccckkkfk%%%%%MMMMMxxxxxfhhgh$$%$$ttttt",
"ussss>>2>>sssssccccccxxxx=====jjjjjnMnnnvcccckkkkk%%%%%MMMMMxxxxcgzhhh$$$$$ttutt",
"pssss<>>>>sssssccmccxxxxc-====jjjjjnnnnnccccckkjkk%%%%%MMMMMxxxcxhhhhh$$$$=ttttt",
"sssss,,,,1<<<<<lljljpttttnMnnn;;;;&llllldffff54155NNNNN66666usssskzkkk>2>>>ghhhh",
"ussss>,1,,<<<<<ljllltttttnnnnn=;;;;lllllfffff35545NNNNN60666ssssszkkkk>>>>>hhhhh",
"sssss,1,,,<<<1<gllllpttttnnxnm;;;;;lllllfffff55555NNNNN66666ssssskkkfz>>>>>hhhhh",
"sssss,,,,>1<<<<lljlltttrtnnnnx;;;;;lllllgffff51555NmNNN06666sssuszkkkk>>>><hhzhh",
"sssss,3,,,<<<<<ljllltttttnnnnM;=;;;llllgfdfff55555NNNNN66666sssspkkkkk>>>>>hhhhh",
"sssss22232aaaaaasusshhhfhhhhhh====;44444>,>>>2222>zzkzzhzhhh2222242232<>>>>zzzzz",
"sssss22222aaaaassssshzfhfhhhhh=====44444>>,>>22222zzzkzhhhhh2222222>22>>2>>zzzzz",
"assss22222aaaaassssshhzhhhhhhh=====44444<>>,>2>222zzzzhhhhhg222>222222>>>,2zzzhz",
"sssss22222iaaaassssshhzhhhhhzz$====44444>>>>>22>22zzzzzhfhzh2222222222>>>>>zzhzz",
"usssa22222aaaaassssshhhhhhhhfh=====44444>>>>>22222zzkzzhhhzh2222222222,>><>zzzzz",
"sssssCZCZCBDDAD,,,,,zzzzklllllxxxxxccbccxxxxxxvxcxzzzzzsssss55555mnnnnnnnnnzzzzz",
"sssssCCCCCDDDDD,,,,,zzzzzlllljxxxxxcccccxxxxxxxxxxzzzzzussus51555nnnnnmnmnnkzzzz",
"sssssCCCCCDDDDD,,,,,zzhzzlllllxxxxxcccmcxnvxxxxxxxzzzzzsssss35545nMnxnnmnnnzzzzz",
"pssisCCCDCDDDFD,,3,,zzzzzlllllxxxxccccccxxxnxxxnxxzzzzzsssss55555nnnnnnnnnMzzzzz",
"sssssCCCCCADDDD,,,,,zzzkzllgllxxcxxcccccxxxvxxxxxxzzkzzsssss55555nnnnnMnnnnzzzzz",
"lllllzzzzzzzzzz222223333,uuuuu<<1<<,,,,,>>>2>1<<<<11111uuuuu>>>>>nnnnnzhzzzsssss",
"lllllzzzzzzzzzz2222233333uusuu<<<1<,,,,,>>>>><<<<<11111tuuuu>>>>>nnnnnzzzhzssasu",
"lllllzzzzzzzzzz2222233533uuuuu<<<<<>>,,,>,>,><<<<<1<111uuutu<>>>>nnnnnzzzjzsssss",
"lllllzkzzzzzzhl222,2,3332uusuu<<<<<>,,,3>>>>>1<<<<11111uuuut2>>>>nnnnnzzzzzsssss",
"zllljhzzzzzzlzz2222233333uuuuu><<<<,,,,,>>>>><<<<<111,1uuuuu>><>>nnnnnzzzzzussss",
"utuuuhzzzlhhhhfxxxvxxxxxxxxxxxkkkkknnxnnkkkkjzzzzzzzzzzMvvvvxxxxxnnmnnzzzzzzhzzz",
"uuuuuzzzzzhhhhhxxxxxxxnxxxxxxxkfkkknnnnnzkkkkzzlzzzzzzzvvvbvxnxxxnnxnnzzzzzzzkzz",
"uuuuuzzzzzhhhhhnxxxxxxxxxxxxxxfkkkknnnnnkkkkkzzzzzzzzhzvvbvvxxxxxnnnnngzzgzhzzzz",
"uuuuuzzlzzhhhhhncxxxxxxvxxxxxxkkkkknnnnnkkkkkzzzzzzzkhzMvvxvcxxxxnnnMnzzzzzzklzz",
"uuuuuzzzzzhghhhxxvvxvxxxxxxxxxjkkfkmnnnnkkkkkzzzzzzzzzzvvxvvvxxxxnnnnxzzzzzzzzzz"
};
